<?xml version="1.0" encoding="iso-8859-1"?>
<!-- Generator: Adobe Illustrator 19.0.0, SVG Export Plug-In . SVG Version: 6.00 Build 0)  -->
<svg version="1.1" id="Capa_1" xmlns="http://www.w3.org/2000/svg" xmlns:xlink="http://www.w3.org/1999/xlink" x="0px" y="0px"
	 viewBox="0 0 496 496" style="enable-background:new 0 0 496 496;" xml:space="preserve">
<g>
	<g>
		<g>
			<path d="M280.004,288h-16c0,8.824-7.184,16-16,16c-8.824,0-16-7.176-16-16h-16c0,17.648,14.352,32,32,32
				S280.004,305.648,280.004,288z"/>
			<path d="M424.508,427.608c-11.152-35.696-42.24-62.432-79.192-68.12l-41.312-6.352v-8.288
				c26.92-15.624,46.784-42.072,53.488-73.4c19.44-2.712,34.512-19.272,34.512-39.448v-24c0-50.328-26.784-96.712-68.672-122.6
				c3.016-6.84,4.672-14.08,4.672-21.4c0-35.288-35.888-64-80-64s-80,28.712-80,64c0,7.456,1.552,14.672,4.616,21.544
				c-41.088,25.392-68.616,70.712-68.616,122.456v24c0,20.176,15.072,36.736,34.512,39.448c6.704,31.328,26.568,57.776,53.488,73.4
				v8.288l-41.312,6.352c-36.952,5.688-68.048,32.424-78.992,67.536L44.196,496h407.608L424.508,427.608z M359.668,254.632
				c0.128-2.208,0.336-4.392,0.336-6.632v-38.528c9.288,3.312,16,12.112,16,22.528C376.004,242.536,369.132,251.408,359.668,254.632
				z M120.004,232c0-10.416,6.704-19.216,16-22.528V248c0,2.24,0.208,4.424,0.336,6.632
				C126.876,251.408,120.004,242.536,120.004,232z M136.004,176v16.808c-5.768,1.176-11.008,3.68-15.592,7.056
				C124.644,133.08,180.172,80,248.004,80c10.16,0,20.288,1.192,30.104,3.56L281.852,68c-11.032-2.656-22.424-4-33.848-4
				c-21.904,0-42.592,5.056-61.2,13.848c-1.816-4.472-2.8-9.096-2.8-13.848c0-26.472,28.712-48,64-48c35.288,0,64,21.528,64,48
				c0,4.696-0.992,9.248-2.752,13.648c-3.384-1.6-6.848-3.072-10.384-4.408l-5.656,14.968c47,17.744,79.304,62.008,82.48,111.736
				c-4.6-3.408-9.88-5.952-15.688-7.136V176h-15.432c-34.344,0-66.632-13.376-90.912-37.656l-5.656-5.656l-5.656,5.656
				C218.068,162.624,185.78,176,151.436,176H136.004z M152.004,248v-56c35.8-0.144,69.576-13.2,96-36.976
				c26.424,23.776,60.2,36.84,96,36.976v56c0,52.936-43.064,96-96,96C195.068,344,152.004,300.936,152.004,248z M288.004,352.488
				v6.344C286.628,363,278.22,384,248.004,384c-30.208,0-38.6-20.904-40-25.168v-6.344c12.44,4.784,25.896,7.512,40,7.512
				S275.564,357.272,288.004,352.488z M67.804,480l18.96-47.624c1.704-5.448,4.136-10.544,6.872-15.432l22.216,22.216
				c-2.408,5.136-3.848,10.8-3.848,16.84c0,9.04,3.128,17.296,8.208,24H67.804z M102.852,403.544
				c12.704-14.856,30.448-25.192,50.28-28.24l6.872-1.056V416h-8c-10.184,0-19.384,3.944-26.456,10.232L102.852,403.544z
				 M152.004,480c-13.232,0-24-10.768-24-24s10.768-24,24-24s24,10.768,24,24S165.236,480,152.004,480z M176.004,371.784
				l18.768-2.888C201.06,382.336,217.188,400,248.004,400c30.816,0,46.944-17.664,53.232-31.104l18.768,2.888V416H305.94
				c-21.448,0-41.744,7.456-57.936,21.144C231.812,423.456,211.508,416,190.068,416h-14.064V371.784z M183.796,480
				c5.08-6.704,8.208-14.96,8.208-24c0-9.04-3.128-17.296-8.208-24h6.264c19.752,0,38.312,7.688,52.28,21.656l5.664,5.656
				l5.656-5.656C267.628,439.688,286.188,432,305.94,432h6.264c-5.072,6.704-8.2,14.96-8.2,24c0,9.04,3.128,17.296,8.208,24H183.796
				z M344.004,480c-13.232,0-24-10.768-24-24s10.768-24,24-24s24,10.768,24,24S357.236,480,344.004,480z M344.004,416h-8v-41.752
				l6.872,1.056c19.776,3.04,37.488,13.328,50.24,28.272l-22.656,22.656C363.388,419.944,354.188,416,344.004,416z M380.156,439.16
				l22.168-22.168c2.84,5.04,5.344,10.304,7.12,15.96L428.196,480h-52.4c5.08-6.704,8.208-14.96,8.208-24
				C384.004,449.96,382.564,444.296,380.156,439.16z"/>
			<rect x="144.004" y="448" width="16" height="16"/>
			<rect x="336.004" y="448" width="16" height="16"/>
			<path d="M188.004,208c-11.032,0-20,8.968-20,20s8.968,20,20,20s20-8.968,20-20S199.036,208,188.004,208z M188.004,232
				c-2.2,0-4-1.8-4-4s1.8-4,4-4s4,1.8,4,4S190.204,232,188.004,232z"/>
			<path d="M308.004,248c11.032,0,20-8.968,20-20s-8.968-20-20-20c-11.032,0-20,8.968-20,20S296.972,248,308.004,248z M308.004,224
				c2.2,0,4,1.8,4,4s-1.8,4-4,4s-4-1.8-4-4S305.804,224,308.004,224z"/>
		</g>
	</g>
</g>
<g>
</g>
<g>
</g>
<g>
</g>
<g>
</g>
<g>
</g>
<g>
</g>
<g>
</g>
<g>
</g>
<g>
</g>
<g>
</g>
<g>
</g>
<g>
</g>
<g>
</g>
<g>
</g>
<g>
</g>
</svg>
