<?xml version="1.0" encoding="iso-8859-1"?>
<!-- Generator: Adobe Illustrator 19.0.0, SVG Export Plug-In . SVG Version: 6.00 Build 0)  -->
<svg version="1.1" id="Capa_1" xmlns="http://www.w3.org/2000/svg" xmlns:xlink="http://www.w3.org/1999/xlink" x="0px" y="0px"
	 viewBox="0 0 499.312 499.312" style="enable-background:new 0 0 499.312 499.312;" xml:space="preserve">
<g>
	<g>
		<g>
			<path d="M475.288,478.48c-11.984-19.976-20.376-41.688-24.944-64.52c-5.4-27.024-21.296-50.056-44.168-64.656
				c17.144-11.768,27.48-31.12,27.48-52.352c0-26.16-15.688-49.336-39.968-59.048l-0.032-12.112c0-40.776-17.528-79.096-48-105.952
				V24.208l-53.832,17.944L249.656,0l-42.168,42.16l-53.832-17.952v95.632c-30.472,26.856-48,65.184-48,105.952v12.104l-0.024,0.008
				c-24.288,9.712-39.976,32.896-39.976,59.048c0,21.224,10.336,40.576,27.472,52.352c-22.872,14.6-38.76,37.64-44.16,64.656
				c-4.568,22.832-12.96,44.544-24.944,64.52L11.52,499.312h150.136h21.272h133.456h21.272h150.136L475.288,478.48z
				 M387.736,252.752c18.176,7.28,29.92,24.624,29.92,44.2c0,18.144-10.08,34.456-26.288,42.56l-1.272,0.632l0.52,1.048
				c-0.432-0.176-0.84-0.392-1.272-0.568c3.088-9.104,4.312-18.224,4.312-25.312c0-3.664-2.512-6.808-6.072-7.704
				c-3.584-0.856-7.296,0.808-9.032,4.024c-0.256,0.48-6.504,11.68-24.896,11.68c-4.104,0-7.56-1.696-11.096-4.856
				c8.232-13.4,13.92-28.288,16.816-43.728c12.224-2.224,21.952-11.4,25.096-23.28L387.736,252.752z M337.656,379.312
				c1.144,0,2.168-0.144,3.272-0.2c-5.296,7.368-15.688,16.2-35.272,16.2c-25.192,0-31.968-24.912-32.24-25.936l-15.512,3.872
				c2.176,8.72,9.2,22.56,22.464,30.936c-3.248,5.344-11.752,15.128-30.712,15.128c-18.904,0-27.424-9.784-30.688-15.144
				c13.248-8.368,20.264-22.2,22.448-30.92l-15.504-3.912c-0.288,1.064-7.064,25.976-32.256,25.976
				c-19.608,0-29.992-8.824-35.28-16.2c1.104,0.056,2.136,0.2,3.28,0.2c31.64,0,40-20.928,40-32h-16c0,0.656-0.272,16-24,16
				c-22.344,0-32.2-14.856-36.56-28.056c5.416,2.384,12.2,4.056,20.56,4.056c16.8,0,26.168-12.496,36.096-25.728
				c13.448-17.936,28.704-38.272,67.904-38.272s54.456,20.336,67.904,38.272c9.928,13.232,19.296,25.728,36.096,25.728
				c8.36,0,15.136-1.672,20.552-4.056c-4.352,13.2-14.216,28.056-36.552,28.056c-22.4,0-23.92-13.424-24-16.112l-8,0.112h-8
				C297.656,358.384,306.016,379.312,337.656,379.312z M257.656,443.312V434.8c15.344-1.84,25.128-8.744,31.128-15.384
				c0.52,2.592,0.872,5.224,0.872,7.896c0,22.056-17.944,40-40,40c-22.056,0-40-17.944-40-40c0-2.672,0.352-5.304,0.872-7.896
				c6,6.648,15.784,13.552,31.128,15.384v8.512H257.656z M167.768,305.544c-9.128-16.536-14.112-35.304-14.112-54.232v-32H172.4
				c28.728,0,55.872-10.256,77.256-29.04c21.384,18.784,48.528,29.04,77.256,29.04h18.744v32c0,18.928-4.984,37.696-14.112,54.232
				c-0.4-0.528-0.776-1.008-1.184-1.56c-14.144-18.848-33.504-44.672-80.704-44.672s-66.56,25.824-80.704,44.672
				C168.536,304.536,168.168,305.016,167.768,305.544z M361.416,257.216c0.088-1.968,0.24-3.936,0.24-5.904v-21.776
				c4.76,2.776,8,7.88,8,13.776C369.656,249.304,366.304,254.48,361.416,257.216z M164.6,131.312h85.056h48v-16h-48h-80V46.416
				l42.168,14.056l37.832-37.848l37.832,37.84l42.168-14.048v68.896h-16v16h21.056c26.4,23.024,41.728,55.824,42.752,90.816
				c-4.144-4.656-9.592-8.064-15.8-9.68v-9.136H326.92c-27.048,0-52.48-10.528-71.6-29.656L249.656,168L244,173.656
				c-19.128,19.128-44.552,29.656-71.6,29.656h-34.744v9.136c-6.216,1.616-11.656,5.024-15.808,9.68
				C122.872,187.136,138.2,154.336,164.6,131.312z M137.896,257.216c-4.888-2.736-8.24-7.912-8.24-13.904c0-5.896,3.24-11,8-13.776
				v21.776C137.656,253.28,137.808,255.248,137.896,257.216z M81.656,296.952c0-19.576,11.744-36.92,29.92-44.192l3.264-1.304
				c3.144,11.88,12.872,21.048,25.096,23.272c2.904,15.44,8.584,30.328,16.816,43.728c-3.536,3.16-6.992,4.856-11.096,4.856
				c-18.392,0-24.64-11.2-24.848-11.576c-1.656-3.328-5.424-5.056-8.992-4.208c-3.608,0.856-6.16,4.072-6.16,7.784
				c0,7.088,1.224,16.208,4.312,25.32c-0.432,0.176-0.848,0.392-1.28,0.568l0.528-1.056l-1.256-0.624
				C91.736,331.408,81.656,315.096,81.656,296.952z M172.384,483.312h-10.728H39.744c11.864-20.608,20.248-42.864,24.912-66.208
				c5.136-25.672,21.504-47.104,44.92-58.8c2.336-1.168,4.744-2.232,7.184-3.176c4.984,7.96,11.992,14.896,21.48,19.288
				c2.44,8.4,9.632,20.72,23.416,28.792v16.104h16v-9.832c4.84,1.136,10.128,1.832,16,1.832c0.848,0,1.632-0.088,2.456-0.128
				c-1.568,5.216-2.456,10.632-2.456,16.128c0,1.92,0.096,3.824,0.288,5.688L172.384,483.312z M249.656,483.312h-59.872
				l11.768-27.472C211.336,472.256,229.208,483.312,249.656,483.312s38.32-11.056,48.096-27.472l11.776,27.472H249.656z
				 M337.656,483.312h-10.728L305.368,433c0.192-1.864,0.288-3.768,0.288-5.688c0-5.496-0.888-10.912-2.456-16.128
				c0.824,0.04,1.608,0.128,2.456,0.128c5.872,0,11.16-0.696,16-1.832v9.832h16v-16.104c13.784-8.064,20.976-20.392,23.416-28.792
				c9.488-4.392,16.496-11.336,21.48-19.296c2.448,0.952,4.856,2.008,7.192,3.184c23.416,11.696,39.784,33.128,44.912,58.8
				c4.664,23.344,13.048,45.6,24.912,66.208H337.656z"/>
			<rect x="369.656" y="371.312" width="16" height="32"/>
			<rect x="409.656" y="427.312" width="16" height="32"/>
			<rect x="353.656" y="435.312" width="16" height="32"/>
			<rect x="113.656" y="371.312" width="16" height="32"/>
			<rect x="73.656" y="427.312" width="16" height="32"/>
			<rect x="129.656" y="435.312" width="16" height="32"/>
			<path d="M222.344,75.312l27.312,27.312l27.312-27.312L249.656,48L222.344,75.312z M249.656,80l-4.688-4.688l4.688-4.688
				l4.688,4.688L249.656,80z"/>
			<rect x="297.656" y="83.312" width="16" height="16"/>
			<rect x="185.656" y="83.312" width="16" height="16"/>
			<path d="M265.656,283.312h-32c-13.232,0-24,10.768-24,24s10.768,24,24,24h32c13.232,0,24-10.768,24-24
				S278.888,283.312,265.656,283.312z M265.656,315.312h-32c-4.416,0-8-3.584-8-8c0-4.416,3.584-8,8-8h32c4.416,0,8,3.584,8,8
				C273.656,311.728,270.072,315.312,265.656,315.312z"/>
			<path d="M209.656,247.312c0-11.032-8.968-20-20-20s-20,8.968-20,20c0,11.032,8.968,20,20,20S209.656,258.344,209.656,247.312z
				 M185.656,247.312c0-2.2,1.8-4,4-4s4,1.8,4,4s-1.8,4-4,4S185.656,249.512,185.656,247.312z"/>
			<path d="M309.656,267.312c11.032,0,20-8.968,20-20c0-11.032-8.968-20-20-20c-11.032,0-20,8.968-20,20
				C289.656,258.344,298.624,267.312,309.656,267.312z M309.656,243.312c2.2,0,4,1.8,4,4s-1.8,4-4,4s-4-1.8-4-4
				S307.456,243.312,309.656,243.312z"/>
		</g>
	</g>
</g>
<g>
</g>
<g>
</g>
<g>
</g>
<g>
</g>
<g>
</g>
<g>
</g>
<g>
</g>
<g>
</g>
<g>
</g>
<g>
</g>
<g>
</g>
<g>
</g>
<g>
</g>
<g>
</g>
<g>
</g>
</svg>
