<?xml version="1.0" encoding="iso-8859-1"?>
<!-- Generator: Adobe Illustrator 19.0.0, SVG Export Plug-In . SVG Version: 6.00 Build 0)  -->
<svg version="1.1" id="Capa_1" xmlns="http://www.w3.org/2000/svg" xmlns:xlink="http://www.w3.org/1999/xlink" x="0px" y="0px"
	 viewBox="0 0 500.496 500.496" style="enable-background:new 0 0 500.496 500.496;" xml:space="preserve">
<g>
	<g>
		<g>
			<path d="M484.784,435.424c4.392-0.808,6.904-1.304,7.032-1.336l7.848-1.568l-1.568-7.84
				c-10.024-50.08-54.368-86.432-105.432-86.432h-22.416v6.936l-12.176-2.152c-9.552-1.688-16.848-8.872-19.064-17.944
				c42.256-11.584,72.96-26.768,74.816-27.688l6.088-3.048l-2.032-6.496c-0.392-1.264-39.632-128.552-39.632-277.608v-8h-256v8
				c0,148.928-39.24,276.344-39.632,277.616l-2.032,6.496l6.088,3.04c1.848,0.928,32.56,16.104,74.816,27.688
				c-2.216,9.072-9.512,16.256-19.064,17.944l-12.176,2.152v-6.936h-22.416C56.76,338.248,12.416,374.6,2.4,424.68l-1.568,7.84
				l7.84,1.568c0.128,0.024,2.648,0.528,7.032,1.336L0,498.248h250.248h250.248L484.784,435.424z M400.64,285.912
				c-8.408,3.816-25.072,10.92-46.392,17.84v-35.616c0-3.056,1.696-5.8,4.424-7.16l31.576-15.792
				C394.64,264.16,398.448,278.216,400.64,285.912z M146.248,303.736c-21.312-6.92-37.976-14.024-46.392-17.832
				c2.192-7.688,6-21.736,10.392-40.712l31.584,15.792c2.72,1.36,4.416,4.096,4.416,7.152V303.736z M148.984,246.664l-35.144-17.568
				c10.936-50.792,23.6-127.144,24.368-210.848h224.08c0.768,83.704,13.432,160.056,24.368,210.848l-35.144,17.568
				c-8.176,4.096-13.264,12.328-13.264,21.472v40.488c-7.624,2.168-15.68,4.208-24,6.04v-56.416h-16v59.56
				c-5.272,0.912-10.6,1.744-16,2.4v-109.96h34.424l29.576-19.72v-44.28h-72v-32h32v-48h-32v-32h-48v32h-32v48h32v32h-72v44.28
				l29.576,19.72h34.424v109.96c-5.4-0.656-10.728-1.488-16-2.4v-59.56h-16v56.416c-8.32-1.832-16.368-3.872-24-6.048v-40.48
				C162.248,258.984,157.16,250.76,148.984,246.664z M210.248,98.248v-16h32v-32h16v32h32v16h-32v48h-16v-48H210.248z
				 M170.824,342.392c11.272,10.336,36.64,27.856,79.424,27.856c15.152,0,29.472-2.232,42.552-6.648l-5.112-15.16
				c-11.432,3.856-24.032,5.808-37.44,5.808c-39.12,0-60.992-16.288-69.472-24.384c14.224,3.192,29.28,5.8,44.744,7.216l8.728,0.8
				V194.248h-45.576l-18.424-12.28v-19.72h56h48h56v19.72l-18.424,12.28h-45.576v143.624l8.728-0.8
				c15.432-1.408,30.448-4.016,44.632-7.192c-3.48,3.28-9.088,7.864-17.144,12.192l7.56,14.096
				c8.776-4.712,15.256-9.784,19.64-13.784c3.624,5.128,8.384,9.376,14.04,12.336c-8.816,9.704-35.088,31.528-93.456,31.528
				c-58.488,0-84.648-21.736-93.48-31.512C162.432,351.768,167.2,347.528,170.824,342.392z M140.256,359.664
				c4.976,7.208,33.288,42.584,109.992,42.584c76.696,0,105.016-35.376,109.992-42.584l9.104,1.608
				c-1.976,18.384-7.184,34.384-12.704,46.872c-5.208-3.688-11.536-5.896-18.392-5.896c-17.648,0-32,14.352-32,32
				c0,1.096,0.216,2.128,0.32,3.2c-7.384,3.928-27.24,12.8-56.32,12.8c-28.84,0-48.864-8.888-56.32-12.824
				c0.104-1.056,0.32-2.088,0.32-3.176c0-17.648-14.352-32-32-32c-6.856,0-13.184,2.208-18.392,5.896
				c-5.528-12.496-10.736-28.496-12.704-46.872L140.256,359.664z M354.248,434.248c0,8.824-7.184,16-16,16c-8.824,0-16-7.176-16-16
				c0-8.824,7.176-16,16-16C347.064,418.248,354.248,425.424,354.248,434.248z M178.248,434.248c0,8.824-7.184,16-16,16
				c-8.824,0-16-7.176-16-16c0-8.824,7.176-16,16-16C171.064,418.248,178.248,425.424,178.248,434.248z M107.832,354.248h6.616
				c1.448,28.008,10.184,51.568,18.24,67.8c-1.472,3.568-2.288,7.464-2.376,11.536c-44.68-2.344-91.72-10.256-110.288-13.632
				C31.376,381.432,67.08,354.248,107.832,354.248z M98.248,482.248H20.496l11.016-44.064c16.728,2.792,40.888,6.408,66.736,8.96
				V482.248z M386.248,482.248h-136h-136v-33.696c6.744,0.52,13.488,0.92,20.184,1.216c5.48,9.776,15.824,16.48,27.816,16.48
				c10.816,0,20.352-5.424,26.152-13.664c10.176,5.104,31.72,13.664,61.848,13.664s51.672-8.56,61.848-13.664
				c5.792,8.24,15.336,13.664,26.152,13.664c11.992,0,22.328-6.704,27.816-16.48c6.696-0.288,13.44-0.696,20.184-1.216V482.248z
				 M402.248,482.248v-35.112c25.856-2.552,50.016-6.168,66.736-8.96L480,482.248H402.248z M370.176,433.584
				c-0.088-4.072-0.896-7.968-2.376-11.536c8.056-16.232,16.792-39.792,18.24-67.8h6.624c40.752,0,76.464,27.184,87.8,65.704
				C461.904,423.328,414.872,431.24,370.176,433.584z"/>
			<rect x="322.248" y="82.248" width="16" height="16"/>
			<rect x="162.248" y="82.248" width="16" height="16"/>
			<rect x="298.248" y="226.248" width="16" height="16"/>
			<rect x="186.248" y="226.248" width="16" height="16"/>
		</g>
	</g>
</g>
<g>
</g>
<g>
</g>
<g>
</g>
<g>
</g>
<g>
</g>
<g>
</g>
<g>
</g>
<g>
</g>
<g>
</g>
<g>
</g>
<g>
</g>
<g>
</g>
<g>
</g>
<g>
</g>
<g>
</g>
</svg>
