<?xml version="1.0" encoding="iso-8859-1"?>
<!-- Generator: Adobe Illustrator 19.0.0, SVG Export Plug-In . SVG Version: 6.00 Build 0)  -->
<svg version="1.1" id="Capa_1" xmlns="http://www.w3.org/2000/svg" xmlns:xlink="http://www.w3.org/1999/xlink" x="0px" y="0px"
	 viewBox="0 0 499.52 499.52" style="enable-background:new 0 0 499.52 499.52;" xml:space="preserve">
<g>
	<g>
		<g>
			<rect x="305.76" y="425.76" width="16" height="16"/>
			<rect x="337.76" y="401.76" width="16" height="16"/>
			<rect x="177.76" y="417.76" width="16" height="16"/>
			<rect x="145.76" y="401.76" width="16" height="16"/>
			<path d="M491.52,457.76c3.84-4.256,6.24-9.832,6.24-16c0-57.344-46.656-104-104-104c-7.08,0-13.392,3.144-17.792,8.04
				l-18.384-3.248c-11.488-2.032-19.824-11.968-19.824-23.64v-11.288c16.408-12.664,30.128-28.904,39.936-47.88l24.568-7.368
				c9.272-2.792,15.496-11.176,15.496-20.856c0-12-9.76-21.76-22.128-21.76c-0.976,0-1.944,0.264-2.92,0.392
				c0.624-5.448,1.048-10.92,1.048-16.392v-48c0-79.4-64.6-144-144-144s-144,64.6-144,144v48c0,5.416,0.416,10.824,1.016,16.2
				c-1.024-0.128-2.096-0.2-3.256-0.2c-12,0-21.76,9.76-21.76,21.76c0,9.68,6.224,18.064,15.504,20.848l24.552,7.36
				c9.808,18.984,23.528,35.224,39.944,47.888v11.296c0,11.664-8.336,21.6-19.832,23.632l-18.384,3.248
				c-4.392-4.888-10.704-8.032-17.784-8.032c-57.344,0-104,46.656-104,104c0,6.168,2.4,11.744,6.24,16l-8,40h249.76h249.76
				L491.52,457.76z M113.76,481.76H19.52l3.256-16.304c0.992,0.128,1.96,0.304,2.984,0.304h32c22.608,0,42.792-10.496,56-26.84
				V481.76z M113.76,369.76v24c0,30.872-25.128,56-56,56h-32c-4.416,0-8-3.584-8-8c0-48.52,39.48-88,88-88c4.416,0,8,3.584,8,8
				V369.76z M249.76,17.76c59.312,0,109.192,40.616,123.648,95.448L249.76,40.48l-123.648,72.728
				C140.568,58.376,190.448,17.76,249.76,17.76z M121.76,145.76c0-3.976,0.24-7.888,0.6-11.776l127.4-74.944l127.4,74.944
				c0.36,3.888,0.6,7.8,0.6,11.776v10.008l-128-75.288l-128,75.296V145.76z M337.76,209.76v15.248l-16,4.448v-88.064l16,9.416
				v42.952h16v-33.544l24,14.12v19.424c0,6.904-0.632,13.824-1.72,20.616l-22.28,6.192V209.76H337.76z M305.76,131.984v101.912
				l-16,4.448V122.568L305.76,131.984z M273.76,113.16v129.632l-16,4.448V103.744L273.76,113.16z M209.76,153.76v84.584l-16-4.448
				v-101.92l16-9.416v15.2h16v-24.6l16-9.416v143.488l-16-4.44V153.76H209.76z M177.76,141.392v88.064l-16-4.448v-74.2
				L177.76,141.392z M121.76,174.336l24-14.12v60.352l-22.28-6.184c-1.088-6.8-1.72-13.72-1.72-20.624V174.336z M101.872,237.04
				c-2.464-0.736-4.112-2.952-4.112-5.52c0-3.168,2.584-5.76,6.128-5.76c0.52,0,1.048,0.072,1.536,0.208l144.336,40.096
				l144.312-40.096c0.512-0.136,1.048-0.208,1.928-0.208c3.168,0,5.76,2.584,5.76,5.76c0,2.568-1.648,4.792-4.104,5.528
				l-147.896,44.36L101.872,237.04z M144.552,266.552l105.208,31.56l105.192-31.552c-23.648,34.08-62.824,55.2-105.192,55.2
				C207.384,321.76,168.2,300.64,144.552,266.552z M322.408,326.096c-4.632,5.248-27.032,27.664-72.648,27.664
				c-45.784,0-67.968-22.304-72.648-27.664c0.424-2.336,0.648-4.736,0.648-7.176v-0.584c21.504,12.424,46.216,19.424,72,19.424
				s50.496-7,72-19.432v0.584C321.76,321.36,321.984,323.76,322.408,326.096z M170.336,341.904
				c11.272,10.336,36.64,27.856,79.424,27.856s68.152-17.52,79.424-27.856c3.624,5.128,8.376,9.368,14.032,12.328
				c-8.816,9.704-35.088,31.528-93.456,31.528c-58.488,0-84.648-21.736-93.48-31.512C161.944,351.28,166.712,347.04,170.336,341.904
				z M209.76,481.76h-80v-88v-24v-8c0-0.28-0.072-0.536-0.08-0.808l10.088-1.776c4,5.784,23.032,29.632,69.992,38.888V481.76z
				 M273.76,481.76h-16v-48h-16v48h-16v-81.352c5.056,0.552,10.4,0.904,16,1.096v16.256h16v-16.256c5.6-0.192,10.944-0.552,16-1.096
				V481.76z M369.76,361.76v8v24v88h-80v-83.704c46.968-9.256,66-33.104,69.992-38.888l10.088,1.784
				C369.832,361.224,369.76,361.48,369.76,361.76z M385.76,481.76v-42.84c13.208,16.344,33.392,26.84,56,26.84h32
				c1.024,0,1.992-0.176,2.984-0.304L480,481.76H385.76z M473.76,449.76h-32c-30.872,0-56-25.128-56-56v-24v-8c0-4.416,3.584-8,8-8
				c48.52,0,88,39.48,88,88C481.76,446.176,478.176,449.76,473.76,449.76z"/>
		</g>
	</g>
</g>
<g>
</g>
<g>
</g>
<g>
</g>
<g>
</g>
<g>
</g>
<g>
</g>
<g>
</g>
<g>
</g>
<g>
</g>
<g>
</g>
<g>
</g>
<g>
</g>
<g>
</g>
<g>
</g>
<g>
</g>
</svg>
