<?xml version="1.0" encoding="iso-8859-1"?>
<!-- Generator: Adobe Illustrator 19.0.0, SVG Export Plug-In . SVG Version: 6.00 Build 0)  -->
<svg version="1.1" id="Capa_1" xmlns="http://www.w3.org/2000/svg" xmlns:xlink="http://www.w3.org/1999/xlink" x="0px" y="0px"
	 viewBox="0 0 497.464 497.464" style="enable-background:new 0 0 497.464 497.464;" xml:space="preserve">
<g>
	<g>
		<g>
			<rect x="352.732" y="385.464" width="16" height="16"/>
			<rect x="328.732" y="417.464" width="16" height="16"/>
			<rect x="304.732" y="449.464" width="16" height="16"/>
			<rect x="128.732" y="385.464" width="16" height="16"/>
			<rect x="152.732" y="417.464" width="16" height="16"/>
			<rect x="176.732" y="449.464" width="16" height="16"/>
			<path d="M248.732,321.464c22.056,0,40-17.944,40-40h-16c0,13.232-10.768,24-24,24s-24-10.768-24-24h-16
				C208.732,303.52,226.676,321.464,248.732,321.464z"/>
			<path d="M248.732,89.464c13.232,0,24-10.768,24-24s-10.768-24-24-24s-24,10.768-24,24S235.5,89.464,248.732,89.464z
				 M248.732,57.464c4.416,0,8,3.584,8,8s-3.584,8-8,8s-8-3.584-8-8S244.316,57.464,248.732,57.464z"/>
			<rect x="296.732" y="81.464" width="16" height="16"/>
			<rect x="184.732" y="81.464" width="16" height="16"/>
			<rect x="344.732" y="105.464" width="16" height="16"/>
			<rect x="136.732" y="105.464" width="16" height="16"/>
			<path d="M425.236,413.072c-5.912-18.936-17.472-35.304-32.504-47.392V193.464c0-18.728-3.704-36.808-10.648-53.952l30.752-35.872
				L248.732,0L84.628,103.648l30.752,35.872c-6.944,17.144-10.648,35.232-10.648,53.944v172.224
				C89.7,377.776,78.14,394.144,72.22,413.08l-26.368,84.384h189.936h25.888h189.936L425.236,413.072z M108.836,107.28
				l139.896-88.352l139.896,88.36L352.9,148.984c-13.072-14.52-46.368-43.52-104.168-43.52s-91.096,29-104.168,43.512
				L108.836,107.28z M183.164,340.072l-31.744,4.88c-10.864,1.672-21.192,5.208-30.688,10.208V193.464
				c0-13.832,2.168-27.296,6.44-40.2l9.56,11.152v85.048C136.732,286.728,155.092,319.704,183.164,340.072z M296.732,161.464v32h-40
				v-32h-16v32h-40v-32h-16v32h-32v-29.4c6.56-8.52,36.52-42.6,96-42.6c59.48,0,89.44,34.08,96,42.6v29.4h-32v-32H296.732z
				 M344.732,209.464v40c0,52.936-43.064,96-96,96c-52.936,0-96-43.064-96-96v-40H344.732z M193.556,354.664
				c0.384,2.312,0.872,4.592,1.536,6.8h-24.664c-0.216-1.048-0.464-2.088-0.64-3.144L193.556,354.664z M202.844,377.456v0.008
				c1.44,2.056,3.032,4,4.736,5.84l-16.968,16.968c-6.28-6.68-11.432-14.384-15.136-22.816H202.844z M220.044,393.464
				c2.992,1.8,6.16,3.312,9.48,4.528l-10.8,21.592c-5.728-2.32-11.104-5.256-16.048-8.76L220.044,393.464z M209.804,354.344
				c12.144,4.528,25.224,7.12,38.928,7.12c13.704,0,26.784-2.592,38.928-7.12c-4.064,17.784-19.936,31.12-38.928,31.12
				S213.868,372.128,209.804,354.344z M277.42,393.472l17.368,17.368c-4.936,3.504-10.32,6.432-16.048,8.76l-10.8-21.6
				C271.26,396.784,274.428,395.264,277.42,393.472z M289.892,383.312c1.696-1.848,3.296-3.784,4.736-5.84h27.376
				c-3.712,8.424-8.864,16.12-15.144,22.808L289.892,383.312z M302.372,361.464c0.664-2.208,1.152-4.488,1.536-6.8l23.768,3.656
				c-0.176,1.056-0.424,2.096-0.64,3.144H302.372z M314.3,340.08c28.072-20.376,46.432-53.352,46.432-90.616v-85.048l9.56-11.152
				c4.28,12.896,6.44,26.368,6.44,40.2v161.704c-9.496-5-19.824-8.536-30.688-10.208L314.3,340.08z M67.612,481.464l19.88-63.624
				c2.12-6.768,5.192-13.088,8.888-18.976c12,18.104,20.48,38.024,25.224,59.376l5.152,23.224H67.612z M143.156,481.464
				l-5.928-26.688c-5.56-25.016-15.864-48.216-30.536-69.104c12.432-13.024,28.888-22.096,47.168-24.904l0.128-0.024
				c5.28,32.488,27.144,60.336,57.576,73.16l-3.776,7.56l20,40H143.156z M251.788,481.464h-6.112l-20-40l20-40h6.112l20,40
				L251.788,481.464z M354.308,481.464h-84.632l20-40l-3.776-7.552c30.44-12.824,52.296-40.664,57.576-73.16l0.128,0.024
				c18.28,2.816,34.744,11.888,47.168,24.904c-14.672,20.888-24.976,44.08-30.536,69.104L354.308,481.464z M375.868,458.248
				c4.744-21.352,13.224-41.272,25.224-59.376c3.696,5.888,6.768,12.2,8.888,18.976l19.872,63.616h-59.144L375.868,458.248z"/>
			<path d="M188.732,265.464c11.032,0,20-8.968,20-20c0-11.032-8.968-20-20-20s-20,8.968-20,20
				C168.732,256.496,177.7,265.464,188.732,265.464z M188.732,241.464c2.2,0,4,1.8,4,4s-1.8,4-4,4s-4-1.8-4-4
				S186.532,241.464,188.732,241.464z"/>
			<path d="M308.732,265.464c11.032,0,20-8.968,20-20c0-11.032-8.968-20-20-20c-11.032,0-20,8.968-20,20
				C288.732,256.496,297.7,265.464,308.732,265.464z M308.732,241.464c2.2,0,4,1.8,4,4s-1.8,4-4,4s-4-1.8-4-4
				S306.532,241.464,308.732,241.464z"/>
		</g>
	</g>
</g>
<g>
</g>
<g>
</g>
<g>
</g>
<g>
</g>
<g>
</g>
<g>
</g>
<g>
</g>
<g>
</g>
<g>
</g>
<g>
</g>
<g>
</g>
<g>
</g>
<g>
</g>
<g>
</g>
<g>
</g>
</svg>
