<?xml version="1.0" encoding="iso-8859-1"?>
<!-- Generator: Adobe Illustrator 19.0.0, SVG Export Plug-In . SVG Version: 6.00 Build 0)  -->
<svg version="1.1" id="Capa_1" xmlns="http://www.w3.org/2000/svg" xmlns:xlink="http://www.w3.org/1999/xlink" x="0px" y="0px"
	 viewBox="0 0 495.734 495.734" style="enable-background:new 0 0 495.734 495.734;" xml:space="preserve">
<g>
	<g>
		<path d="M367.867,223.734v-32h-16v-56h8c8.816,0,16-7.176,16-16v-16c0-8.816-7.184-16-16-16h-12.688l-80-80
			c-10.312-10.312-28.312-10.312-38.624,0l-80,80h-12.688c-8.824,0-16,7.184-16,16v16c0,8.824,7.176,16,16,16h8v56h-16v32h-24v40
			c0,10.792,7.208,19.84,17.032,22.848l8.192,49.152h14.776v160h208v-160h14.776l8.192-49.152
			c9.824-3.008,17.032-12.056,17.032-22.848v-40H367.867z M295.867,59.046l28.688,28.688h-28.688V59.046z M255.867,19.046l24,24
			v44.688h-24V19.046z M215.867,43.046l24-24v68.688h-24V43.046z M199.867,59.046v28.688h-28.688L199.867,59.046z M135.867,119.734
			v-16h224l0.016,16H135.867z M287.867,191.734v-40h-80v40h-16v32h-16v-32h-16v-56h176v56h-16v32h-16v-32H287.867z M223.867,191.734
			v-24h48v24h-16v32h-16v-32H223.867z M271.867,207.734h16v16h-16V207.734z M223.867,207.734v16h-16v-16H223.867z M335.867,207.734
			h16v16h-16V207.734z M143.867,207.734h16v16h-16V207.734z M207.867,479.734h-48v-16h48V479.734z M271.867,415.734h-48v-16h48
			V415.734z M303.867,431.734v16h-48v-16H303.867z M239.867,431.734v16h-48v-16H239.867z M255.867,383.734v-16h48v16H255.867z
			 M271.867,351.734h-48v-16h48V351.734z M239.867,367.734v16h-48v-16H239.867z M207.867,351.734h-48v-16h48V351.734z
			 M175.867,367.734v16h-16v-16H175.867z M207.867,399.734v16h-48v-16H207.867z M175.867,431.734v16h-16v-16H175.867z
			 M271.867,479.734h-48v-16h48V479.734z M335.867,479.734h-48v-16h48V479.734z M335.867,447.734h-16v-16h16V447.734z
			 M335.867,415.734h-48v-16h48V415.734z M335.867,383.734h-16v-16h16V383.734z M335.867,351.734h-48v-16h48V351.734z
			 M375.867,263.734c0,4.416-3.584,8-8,8h-24v16h14.56l-5.336,32H142.643l-5.336-32h190.56v-16h-200c-4.416,0-8-3.584-8-8v-24h256
			V263.734z"/>
	</g>
</g>
<g>
</g>
<g>
</g>
<g>
</g>
<g>
</g>
<g>
</g>
<g>
</g>
<g>
</g>
<g>
</g>
<g>
</g>
<g>
</g>
<g>
</g>
<g>
</g>
<g>
</g>
<g>
</g>
<g>
</g>
</svg>
