<svg id="Capa_1" enable-background="new 0 0 512 512" height="512" viewBox="0 0 512 512" width="512" xmlns="http://www.w3.org/2000/svg"><g><path d="m380.935 425.723 13.377-29.995c5.362-12.024 6.135-25.601 2.137-38.144-8.28-25.975-22.885-76.575-33.366-139.296h-214.165c-10.481 62.721-25.087 113.321-33.366 139.296-3.998 12.544-3.225 26.12 2.137 38.144l13.377 29.995z" fill="#daa985"/><path d="m383.835 116.587 15.262-33.307c4.397-9.595 6.673-20.026 6.673-30.581v-32.563c0-11.121-9.015-20.136-20.136-20.136h-69.994c-11.121 0-20.136 9.015-20.136 20.136v20.573c0 9.117-7.391 16.509-16.508 16.509h-45.992c-9.117 0-16.509-7.391-16.509-16.509v-20.573c0-11.121-9.015-20.136-20.135-20.136h-69.994c-11.121 0-20.136 9.015-20.136 20.136v32.563c0 10.555 2.276 20.986 6.673 30.581l15.262 33.307z" fill="#daa985"/><path d="m391.097 85.681h-270.194c-2.27 0-4.501.163-6.695.447l13.957 30.458h255.67l13.957-30.458c-2.194-.284-4.425-.447-6.695-.447z" fill="#d2896f"/><path d="m391.097 172.563h-270.194c-11.524 0-20.866-9.342-20.866-20.866v-14.244c0-11.524 9.342-20.866 20.866-20.866h270.194c11.524 0 20.866 9.342 20.866 20.866v14.244c0 11.524-9.342 20.866-20.866 20.866z" fill="#f2d98d"/><path d="m120.903 116.587c-11.524 0-20.866 9.342-20.866 20.866v14.244c0 11.524 9.342 20.866 20.866 20.866h128.232c-20.423-11.378-23.151-37.719-14.363-55.976z" fill="#eec076"/><path d="m363.082 218.288h-214.164c-1.772 10.604-3.663 20.851-5.621 30.701 1.469.126 2.951.204 4.452.204h216.501c1.501 0 2.983-.078 4.452-.204-1.957-9.85-3.848-20.097-5.62-30.701z" fill="#d2896f"/><path d="m385.194 172.563h-258.388v24.781c0 11.567 9.377 20.944 20.944 20.944h216.5c11.567 0 20.944-9.377 20.944-20.944z" fill="#e7c7af"/><path d="m414.402 464.84h-316.804v-22.967c0-8.919 7.231-16.15 16.15-16.15h284.504c8.919 0 16.15 7.23 16.15 16.15z" fill="#f2d98d"/><path d="m417.053 464.84h-322.106c-12.226 0-22.92 8.23-26.051 20.047l-2.111 7.969c-2.563 9.67 4.728 19.144 14.731 19.144h348.968c10.003 0 17.294-9.474 14.732-19.143l-2.111-7.969c-3.132-11.819-13.826-20.048-26.052-20.048z" fill="#e7c7af"/><path d="m229.062 464.84h-134.115c-12.226 0-22.92 8.23-26.051 20.047l-2.112 7.969c-2.562 9.67 4.729 19.144 14.732 19.144h159.437c-14.681-9.236-17.044-31.447-11.891-47.16z" fill="#daa985"/><g><g fill="#fff"><ellipse cx="175.258" cy="347.943" rx="29.792" ry="23.725"/><ellipse cx="336.742" cy="347.943" rx="29.792" ry="23.725"/></g><g fill="#4e5660"><path d="m206.801 329.625c-4.142 0-7.5-3.358-7.5-7.5 0-3.684-2.997-6.68-6.681-6.68s-6.681 2.997-6.681 6.68c0 4.142-3.358 7.5-7.5 7.5s-7.5-3.358-7.5-7.5c0-11.955 9.726-21.68 21.681-21.68s21.681 9.726 21.681 21.68c0 4.143-3.358 7.5-7.5 7.5z"/><path d="m333.56 329.625c-4.143 0-7.5-3.358-7.5-7.5 0-3.684-2.997-6.68-6.681-6.68s-6.68 2.997-6.68 6.68c0 4.142-3.357 7.5-7.5 7.5s-7.5-3.358-7.5-7.5c0-11.955 9.726-21.68 21.68-21.68 11.955 0 21.681 9.726 21.681 21.68 0 4.143-3.358 7.5-7.5 7.5z"/><path d="m256 353.053c-7.933 0-15.476-3.436-20.696-9.426-2.721-3.123-2.396-7.86.727-10.582 3.122-2.721 7.86-2.397 10.581.727 2.371 2.72 5.792 4.28 9.388 4.28s7.018-1.56 9.388-4.28c2.721-3.124 7.458-3.448 10.582-.727 3.122 2.721 3.448 7.459.727 10.582-5.22 5.99-12.764 9.426-20.697 9.426z"/></g></g></g></svg>