<svg id="Capa_1" enable-background="new 0 0 512 512" height="512" viewBox="0 0 512 512" width="512" xmlns="http://www.w3.org/2000/svg"><g><path d="m269.143 68.706c0 38.086 30.684 53.041 49.539 49.283 21.909-4.367 34.811-19.106 34.811-58.995 0-32.581-15.585-58.994-34.811-58.994-19.225 0-49.539 36.125-49.539 68.706z" fill="#d2896f"/><path d="m291.581 76.186 14.491-33.558c5.356-12.404-1.546-26.669-14.599-30.155-45.306-12.103-124.039-22.363-184.6 38.745-72.504 73.157-77.686 225.101-6.131 304.467z" fill="#e7c7af"/><g fill="#d2896f"><path d="m124.909 228.993h-38.952c-4.143 0-7.5-3.358-7.5-7.5s3.357-7.5 7.5-7.5h38.952c4.143 0 7.5 3.358 7.5 7.5s-3.357 7.5-7.5 7.5z"/><path d="m145.923 144.97h-38.952c-4.143 0-7.5-3.358-7.5-7.5s3.357-7.5 7.5-7.5h38.952c4.143 0 7.5 3.358 7.5 7.5s-3.358 7.5-7.5 7.5z"/><path d="m132.504 186.981h-38.952c-4.143 0-7.5-3.358-7.5-7.5s3.357-7.5 7.5-7.5h38.952c4.143 0 7.5 3.358 7.5 7.5 0 4.143-3.357 7.5-7.5 7.5z"/></g><path d="m382.478 464.84h-316.804v-22.967c0-8.919 7.231-16.15 16.15-16.15h284.504c8.919 0 16.15 7.23 16.15 16.15z" fill="#f2d98d"/><path d="m385.129 464.84h-322.106c-12.226 0-22.92 8.23-26.051 20.047l-2.112 7.969c-2.562 9.67 4.729 19.144 14.732 19.144h348.968c10.003 0 17.294-9.474 14.732-19.143l-2.111-7.969c-3.132-11.819-13.826-20.048-26.052-20.048z" fill="#e7c7af"/><path d="m197.138 464.84h-134.115c-12.226 0-22.92 8.23-26.051 20.047l-2.111 7.969c-2.563 9.67 4.728 19.144 14.731 19.144h159.437c-14.681-9.236-17.044-31.447-11.891-47.16z" fill="#daa985"/><path d="m467.952 223.824c-33.582-44.737-81.365-97.187-118.323-134.034-48.532-48.386-127.329-49.664-176.193-1.613-69.609 70.003-78.145 205.031-77.769 338.085l254.327-.717c-.1-35.467-9.772-87.351-25.105-120.203 17.725 2.232 34.828 5.473 50.27 11.359 25.92 9.879 55.255 3.242 74.972-16.27 4.387-4.341 8.829-8.74 13.142-13.015 17.215-17.062 19.23-44.208 4.679-63.592z" fill="#daa985"/><path d="m222.235 291.878c-1.429 48.118 8.093 98.4 30.337 133.941l97.421-.275c-.1-35.467-9.772-87.351-25.105-120.203-34.385-4.329-71.118-4.854-102.653-13.463z" fill="#d2896f"/><path d="m136.625 68.706c0 38.086 30.684 53.041 49.539 49.283 21.909-4.367 34.811-19.106 34.811-58.995 0-32.581-15.586-58.994-34.811-58.994-19.226 0-49.539 36.125-49.539 68.706z" fill="#d2896f"/><g><ellipse cx="231.517" cy="167.5" fill="#fff" rx="30.274" ry="24.109"/><ellipse cx="345.091" cy="167.5" fill="#fff" rx="30.274" ry="24.109"/><g fill="#4e5660"><path d="m426.177 260.639c0-15.085-10.928-16.502-24.409-16.502-13.48 0-24.409 1.417-24.409 16.502s10.928 27.313 24.409 27.313 24.409-12.228 24.409-27.313z"/><path d="m236.578 146.217c-4.143 0-7.5-3.358-7.5-7.5v-12.362c0-4.142 3.357-7.5 7.5-7.5s7.5 3.358 7.5 7.5v12.362c0 4.142-3.357 7.5-7.5 7.5z"/><path d="m340.03 146.217c-4.143 0-7.5-3.358-7.5-7.5v-12.362c0-4.142 3.357-7.5 7.5-7.5s7.5 3.358 7.5 7.5v12.362c0 4.142-3.357 7.5-7.5 7.5z"/></g></g></g></svg>