<svg id="Capa_1" enable-background="new 0 0 512 512" height="512" viewBox="0 0 512 512" width="512" xmlns="http://www.w3.org/2000/svg"><g><path d="m60.299 459.782c-33.249 0-60.299-27.05-60.299-60.299v-332.993c0-33.25 27.05-60.3 60.299-60.3h332.993c33.249 0 60.299 27.051 60.299 60.3v332.993c0 33.249-27.05 60.299-60.299 60.299z" fill="#daa985"/><path d="m234.006 459.782h159.287c33.249 0 60.299-27.05 60.299-60.299v-232.687c-18.15-13.754-40.753-21.924-65.229-21.924-58.121 0-105.688 46.061-108.116 103.596-19.44 12.059-32.411 33.595-32.411 58.106 0 24.451 12.911 45.944 32.272 58.019-3.063 16.948-7.532 38.294-12.639 58.316-15.776 6.611-28.145 19.89-33.463 36.873z" fill="#d2896f"/><path d="m393.292 421.873h-332.992c-12.366 0-22.39-10.025-22.39-22.39v-332.993c0-12.366 10.025-22.39 22.39-22.39h332.993c12.366 0 22.39 10.024 22.39 22.39v332.993c0 12.365-10.025 22.39-22.391 22.39z" fill="#fbf1cf"/><path d="m393.292 421.873c12.366 0 22.39-10.025 22.39-22.391v-251.109c-8.731-2.28-17.885-3.501-27.32-3.501-58.121 0-105.688 46.061-108.116 103.596-19.44 12.059-32.411 33.595-32.411 58.106 0 24.451 12.911 45.944 32.272 58.019-3.01 16.657-7.38 37.559-12.378 57.279h125.563z" fill="#fae0bd"/><g><path d="m37.909 232.986h94.443v94.443h-94.443z" fill="#4e5660"/><path d="m226.796 232.986h94.443v94.443h-94.443z" fill="#4e5660"/><path d="m321.239 232.986h-39.214c-.952 5.047-1.556 10.216-1.779 15.482-19.44 12.059-32.411 33.595-32.411 58.106 0 7.271 1.15 14.277 3.263 20.855h70.141z" fill="#404656"/><g fill="#4e5660"><path d="m132.353 327.429h94.443v94.443h-94.443z"/><path d="m393.292 421.873h-72.053v-94.443h94.443v72.053c.001 12.365-10.024 22.39-22.39 22.39z"/><path d="m132.353 138.543h-94.444v-72.053c0-12.366 10.025-22.39 22.39-22.39h72.053v94.443z"/><path d="m226.796 44.099h94.443v94.443h-94.443z"/><path d="m132.353 138.543h94.443v94.443h-94.443z"/><path d="m321.239 138.543h94.443v94.443h-94.443z"/></g><path d="m415.683 148.373c-8.731-2.28-17.885-3.501-27.32-3.501-25.336 0-48.664 8.754-67.124 23.394v64.719h94.443v-84.612z" fill="#404656"/></g><g><path d="m480.286 454.675c-11.738-39.17-22.865-97.073-24.172-116.15h-135.502c-1.307 19.077-12.434 76.979-24.172 116.15z" fill="#daa985"/><path d="m495.712 505.81h-214.698c-10.452 0-18.197-9.708-15.874-19.899l3.053-13.396c2.378-10.437 11.659-17.84 22.364-17.84h195.613c10.704 0 19.985 7.404 22.363 17.84l3.053 13.396c2.322 10.191-5.422 19.899-15.874 19.899z" fill="#f2d98d"/><ellipse cx="388.363" cy="253.086" fill="#daa985" rx="71.838" ry="71.838" transform="matrix(.707 -.707 .707 .707 -65.21 348.741)"/><path d="m460.671 369.704c-2.451-13.161-4.102-24.53-4.557-31.179h-135.502c-.456 6.649-2.106 18.018-4.557 31.179z" fill="#d2896f"/><path d="m460.565 274.623h-144.404c-17.646 0-31.951 14.305-31.951 31.951 0 17.646 14.305 31.951 31.951 31.951h144.403c17.646 0 31.951-14.305 31.951-31.951 0-17.646-14.304-31.951-31.95-31.951z" fill="#f2d98d"/><path d="m316.161 274.623c-17.646 0-31.951 14.305-31.951 31.951 0 17.646 14.305 31.951 31.951 31.951h53.492c-16.988-13.788-21.565-44.692-12.757-63.902z" fill="#eec076"/></g></g></svg>