<svg id="Capa_1" enable-background="new 0 0 512 512" height="512" viewBox="0 0 512 512" width="512" xmlns="http://www.w3.org/2000/svg"><g><path d="m109.171 99.244h60.243v34.182h-60.243z" fill="#4e5660"/><path d="m189.607 99.244h-100.628c-11.556 0-19.579-11.511-15.578-22.353 8.725-23.647 31.261-39.353 56.467-39.353h18.852c25.206 0 47.741 15.706 56.466 39.353 4 10.842-4.023 22.353-15.579 22.353z" fill="#f2d98d"/><path d="m124.864 37.75c-23.146 1.923-43.321 17.071-51.464 39.141-4 10.842 4.022 22.353 15.578 22.353h51.255c-15.155-8.612-25.746-34.754-15.369-61.494z" fill="#eec076"/><path d="m342.586 99.244h60.243v34.182h-60.243z" fill="#4e5660" transform="matrix(-1 0 0 -1 745.415 232.671)"/><path d="m322.393 99.244h100.628c11.556 0 19.579-11.511 15.578-22.353-8.725-23.647-31.261-39.353-56.466-39.353h-18.852c-25.206 0-47.741 15.706-56.466 39.353-4.001 10.842 4.022 22.353 15.578 22.353z" fill="#f2d98d"/><path d="m358.279 37.75c-23.146 1.923-43.321 17.071-51.464 39.141-4 10.842 4.022 22.353 15.578 22.353h51.255c-15.156-8.612-25.747-34.754-15.369-61.494z" fill="#eec076"/><path d="m113.168 474.462h-30.532c-7.973 0-14.436-6.463-14.436-14.436v-25.609h59.405v25.609c-.001 7.972-6.464 14.436-14.437 14.436z" fill="#4e5660"/><path d="m398.832 474.462h30.532c7.973 0 14.436-6.463 14.436-14.436v-25.609h-59.405v25.609c.001 7.972 6.464 14.436 14.437 14.436z" fill="#4e5660"/><path d="m489.414 201.002h-466.829v192.258c0 22.73 18.427 41.157 41.157 41.157h384.515c22.73 0 41.157-18.427 41.157-41.157z" fill="#e7889d"/><path d="m22.585 201.002h466.829v30.905h-466.829z" fill="#e16e7e"/><path d="m479.813 133.426h-447.626c-17.776 0-32.187 14.411-32.187 32.187v14.967c0 11.279 9.143 20.422 20.421 20.422h471.157c11.279 0 20.422-9.143 20.422-20.422v-14.967c0-17.776-14.411-32.187-32.187-32.187z" fill="#f2d98d"/><path d="m211.838 133.426h-179.651c-17.776 0-32.187 14.411-32.187 32.187v14.967c0 11.279 9.143 20.422 20.421 20.422h206.621c-19.74-12.529-22.829-47.754-15.204-67.576z" fill="#eec076"/><circle cx="139.293" cy="317.709" fill="#f2d98d" r="84.118"/><path d="m103.09 241.767c-28.335 13.532-47.915 42.448-47.915 75.943 0 46.457 37.661 84.117 84.118 84.117 25.699 0 48.692-11.538 64.122-29.702-118.83 4.277-122.74-96.214-100.325-130.358z" fill="#eec076"/><circle cx="139.293" cy="317.709" fill="#fff" r="51.19"/><path d="m139.292 325.209c-1.919 0-3.839-.732-5.303-2.197-2.929-2.929-2.929-7.678 0-10.606l13.167-13.167c2.929-2.929 7.678-2.93 10.607 0 2.929 2.929 2.929 7.678 0 10.606l-13.168 13.167c-1.464 1.465-3.384 2.197-5.303 2.197z" fill="#4e5660"/><path d="m139.292 325.209h-11.688c-4.142 0-7.5-3.358-7.5-7.5s3.358-7.5 7.5-7.5h11.688c4.142 0 7.5 3.358 7.5 7.5s-3.357 7.5-7.5 7.5z" fill="#e7889d"/><circle cx="372.707" cy="317.709" fill="#f2d98d" r="84.118"/><path d="m336.504 241.767c-28.335 13.532-47.915 42.448-47.915 75.943 0 46.457 37.661 84.117 84.118 84.117 25.699 0 48.692-11.538 64.122-29.702-118.829 4.277-122.739-96.214-100.325-130.358z" fill="#eec076"/><circle cx="372.707" cy="317.709" fill="#fff" r="51.19"/><path d="m359.54 338.376c-1.919 0-3.839-.732-5.303-2.197-2.93-2.929-2.93-7.677-.001-10.606l13.167-13.167c2.93-2.929 7.679-2.93 10.607 0 2.93 2.929 2.93 7.677.001 10.606l-13.167 13.167c-1.465 1.465-3.385 2.197-5.304 2.197z" fill="#4e5660"/><path d="m372.707 325.209c-4.142 0-7.5-3.358-7.5-7.5v-11.688c0-4.142 3.358-7.5 7.5-7.5 4.143 0 7.5 3.358 7.5 7.5v11.688c0 4.142-3.357 7.5-7.5 7.5z" fill="#e7889d"/></g></svg>