<svg id="Capa_1" enable-background="new 0 0 512 512" height="512" viewBox="0 0 512 512" width="512" xmlns="http://www.w3.org/2000/svg"><g><path d="m59.363 452.22v-332.363c0-33.015 26.764-59.78 59.78-59.78h273.715c33.015 0 59.78 26.764 59.78 59.78v332.363c0 33.015-26.764 59.78-59.78 59.78h-273.716c-33.015 0-59.779-26.764-59.779-59.78z" fill="#b2ecde"/><path d="m148.231 69.774v34.224c0 26.859 21.852 48.711 48.711 48.711h118.115c26.859 0 48.711-21.852 48.711-48.711v-34.224c0-3.321-.345-6.561-.981-9.697h-213.574c-.637 3.136-.982 6.376-.982 9.697z" fill="#8ee2cf"/><path d="m387.126 95.318h-262.252c-16.717 0-30.27 13.552-30.27 30.27v320.901c0 16.717 13.552 30.27 30.27 30.27h262.252c16.717 0 30.27-13.552 30.27-30.27v-320.901c-.001-16.717-13.553-30.27-30.27-30.27z" fill="#fbf1cf"/><path d="m256 282.771c-1.919 0-3.839-.732-5.304-2.197l-88.271-88.272c-2.929-2.929-2.929-7.678 0-10.606 2.93-2.929 7.678-2.929 10.607 0l88.271 88.271c2.929 2.929 2.929 7.678 0 10.606-1.464 1.466-3.384 2.198-5.303 2.198z" fill="#4e5660"/><ellipse cx="167.729" cy="186.999" fill="#e7889d" rx="32.343" ry="32.343" transform="matrix(.987 -.16 .16 .987 -27.788 29.282)"/><path d="m256 282.771c-1.919 0-3.839-.732-5.304-2.197-2.929-2.929-2.929-7.678 0-10.606l88.271-88.271c2.93-2.929 7.678-2.929 10.607 0s2.929 7.678 0 10.606l-88.272 88.272c-1.463 1.464-3.383 2.196-5.302 2.196z" fill="#4e5660"/><ellipse cx="344.271" cy="186.999" fill="#a3defe" rx="32.343" ry="32.343" transform="matrix(.16 -.987 .987 .16 104.54 496.871)"/><g><path d="m313.835 402.105c-7.385-24.645-14.386-61.076-15.208-73.079h-85.254c-.822 12.003-7.823 48.434-15.208 73.079z" fill="#daa985"/><path d="m323.541 434.279h-135.082c-6.576 0-11.449-6.108-9.988-12.52l1.921-8.428c1.496-6.566 7.336-11.225 14.071-11.225h123.075c6.735 0 12.574 4.658 14.071 11.225l1.921 8.428c1.46 6.411-3.413 12.52-9.989 12.52z" fill="#f2d98d"/><path d="m243.875 402.105h-49.413c-6.735 0-12.574 4.658-14.071 11.225l-1.921 8.429c-1.461 6.412 3.412 12.52 9.988 12.52h63.53c-6.944-6.396-10.815-19.004-8.113-32.174z" fill="#eec076"/><ellipse cx="256" cy="275.271" fill="#daa985" rx="45.199" ry="45.199" transform="matrix(.924 -.383 .383 .924 -85.855 118.921)"/><path d="m301.427 288.821h-90.855c-11.102 0-20.103 9-20.103 20.103 0 11.102 9 20.103 20.103 20.103h90.855c11.102 0 20.103-9 20.103-20.103 0-11.102-9-20.103-20.103-20.103z" fill="#f2d98d"/><path d="m247.499 288.821h-36.927c-11.102 0-20.103 9-20.103 20.103s9 20.103 20.103 20.103h45.428c-7.648-8.485-11.454-30.098-8.501-40.206z" fill="#eec076"/></g><path d="m148.231 95.318v8.68c0 26.859 21.852 48.711 48.711 48.711h118.115c26.859 0 48.711-21.852 48.711-48.711v-8.68z" fill="#fae0bd"/><path d="m315.057 51.968h-18.349c-2.582 0-4.528-2.411-3.905-4.916 1.069-4.3 1.405-8.889.852-13.634-2.032-17.438-16.103-31.374-33.563-33.203-22.777-2.386-42.012 15.413-42.012 37.704 0 3.14.386 6.19 1.108 9.106.624 2.517-1.302 4.943-3.896 4.943h-18.351c-9.834 0-17.805 7.972-17.805 17.806v34.224c0 9.834 7.972 17.805 17.805 17.805h118.115c9.834 0 17.805-7.972 17.805-17.805v-34.224c.002-9.834-7.97-17.806-17.804-17.806z" fill="#a3defe"/><g fill="#7acefa"><ellipse cx="256" cy="37.919" rx="7.474" ry="7.474" transform="matrix(.987 -.16 .16 .987 -2.768 41.496)"/><path d="m276.186 94.386h-40.373c-4.143 0-7.5-3.358-7.5-7.5s3.357-7.5 7.5-7.5h40.373c4.143 0 7.5 3.358 7.5 7.5s-3.357 7.5-7.5 7.5z"/></g></g></svg>