<svg id="Capa_1" enable-background="new 0 0 512 512" height="512" viewBox="0 0 512 512" width="512" xmlns="http://www.w3.org/2000/svg"><g><path d="m294.63 432.91h-77.26l6.435 57.894c1.341 12.067 11.541 21.196 23.683 21.196h17.024c12.141 0 22.341-9.129 23.683-21.196z" fill="#a3defe"/><path d="m222.529 479.326c10.486 3.488 21.748 5.392 33.471 5.392s22.984-1.904 33.47-5.392l5.159-46.416h-77.26z" fill="#7acefa"/><ellipse cx="256" cy="388.056" fill="#f2d98d" rx="70.731" ry="65.757"/><path d="m384.242 151.024c-4.266-.626-8.049-3.181-9.958-7.047-12.449-25.211-38.403-42.559-68.422-42.559-15.977 0-30.796 4.923-43.048 13.322-4.121 2.825-9.504 2.825-13.626 0-12.252-8.399-27.071-13.322-43.048-13.322-30.02 0-55.974 17.348-68.423 42.559-1.909 3.866-5.693 6.421-9.958 7.047-43.62 6.405-77.111 43.962-77.111 89.36 0 35.857 20.89 66.833 51.162 81.427 4.942 2.383 8.502 6.889 9.596 12.266 8.389 41.216 44.836 72.234 88.529 72.234 18.268 0 35.257-5.436 49.468-14.762 4.002-2.626 9.193-2.626 13.194 0 14.211 9.326 31.2 14.762 49.468 14.762 43.694 0 80.141-31.017 88.529-72.234 1.094-5.377 4.654-9.883 9.596-12.266 30.272-14.594 51.162-45.57 51.162-81.427.001-45.398-33.49-82.955-77.11-89.36z" fill="#e7889d"/><g><path d="m321.757 195.596c-8.397-28.02-16.357-69.441-17.292-83.088h-96.931c-.935 13.647-8.895 55.067-17.292 83.088z" fill="#daa985"/><path d="m332.792 232.176h-153.584c-7.477 0-13.017-6.945-11.356-14.235l2.184-9.583c1.701-7.466 8.34-12.762 15.998-12.762h139.932c7.657 0 14.296 5.296 15.998 12.762l2.184 9.583c1.661 7.29-3.879 14.235-11.356 14.235z" fill="#f2d98d"/><ellipse cx="256" cy="51.39" fill="#daa985" rx="51.39" ry="51.39" transform="matrix(.417 -.909 .909 .417 102.642 262.714)"/><path d="m307.65 66.796h-103.3c-12.623 0-22.856 10.233-22.856 22.856 0 12.623 10.233 22.856 22.856 22.856h103.3c12.623 0 22.856-10.233 22.856-22.856-.001-12.623-10.234-22.856-22.856-22.856z" fill="#f2d98d"/></g><g fill="#e16e7e"><path d="m135.074 277.383c-4.142 0-7.5-3.358-7.5-7.5 0-11.635-9.466-21.101-21.101-21.101-4.142 0-7.5-3.358-7.5-7.5s3.358-7.5 7.5-7.5c19.906 0 36.101 16.195 36.101 36.101 0 4.142-3.358 7.5-7.5 7.5z"/><path d="m376.926 277.383c-4.142 0-7.5-3.358-7.5-7.5 0-19.906 16.195-36.101 36.101-36.101 4.142 0 7.5 3.358 7.5 7.5s-3.358 7.5-7.5 7.5c-11.635 0-21.101 9.466-21.101 21.101 0 4.142-3.358 7.5-7.5 7.5z"/><path d="m256 363.038c-4.142 0-7.5-3.358-7.5-7.5 0-11.352-9.235-20.587-20.587-20.587-4.142 0-7.5-3.358-7.5-7.5s3.358-7.5 7.5-7.5c11.403 0 21.57 5.39 28.087 13.757 6.518-8.367 16.684-13.757 28.087-13.757 4.142 0 7.5 3.358 7.5 7.5s-3.358 7.5-7.5 7.5c-11.352 0-20.587 9.235-20.587 20.587 0 4.142-3.358 7.5-7.5 7.5z"/></g><g><g fill="#fff"><ellipse cx="174.042" cy="306.458" rx="30.241" ry="24.082"/><ellipse cx="337.958" cy="306.458" rx="30.241" ry="24.082"/></g><g fill="#4e5660"><path d="m191.667 290.776c-4.142 0-7.5-3.358-7.5-7.5v-12.362c0-4.142 3.358-7.5 7.5-7.5s7.5 3.358 7.5 7.5v12.362c0 4.142-3.358 7.5-7.5 7.5z"/><path d="m320.333 290.776c-4.142 0-7.5-3.358-7.5-7.5v-12.362c0-4.142 3.358-7.5 7.5-7.5s7.5 3.358 7.5 7.5v12.362c0 4.142-3.357 7.5-7.5 7.5z"/><path d="m256 298.135c-8.669 0-16.912-3.754-22.616-10.3-2.721-3.123-2.396-7.86.727-10.582 3.123-2.721 7.861-2.396 10.582.727 2.854 3.275 6.976 5.154 11.307 5.154s8.452-1.879 11.307-5.154c2.721-3.124 7.458-3.448 10.582-.727 3.123 2.721 3.448 7.459.727 10.582-5.705 6.546-13.948 10.3-22.616 10.3z"/></g></g></g></svg>