<svg id="Capa_1" enable-background="new 0 0 512 512" height="512" viewBox="0 0 512 512" width="512" xmlns="http://www.w3.org/2000/svg"><g><path d="m451.912 229.496-195.255-195.256c-11.19-11.19-29.333-11.19-40.523 0l-25.647 25.647 76.736 184.166 159.043 51.613 25.647-25.647c11.189-11.19 11.189-29.333-.001-40.523z" fill="#a78cd6"/><path d="m296.124 362.564 31.621 31.621 124.167-124.166c11.19-11.19 11.19-29.333 0-40.523l-88.527-88.527c-20.902 15.025-34.949 39.014-36.456 66.294-15.423 10.014-25.643 27.389-25.643 47.108 0 19.55 10.05 36.799 25.253 46.852-2.341 12.773-5.65 28.498-9.419 43.391-8.567 3.818-15.864 10.04-20.996 17.95z" fill="#a78cd6"/><path d="m426.266 255.142-195.256-195.255c-11.19-11.19-29.333-11.19-40.523 0l-29.435 29.436 76.736 184.166 159.043 51.613 29.435-29.435c11.19-11.192 11.19-29.334 0-40.525z" fill="#fbf1cf"/><path d="m426.266 295.665c11.19-11.19 11.19-29.333 0-40.523l-87.374-87.374c-6.905 11.704-11.169 25.144-11.962 39.495-15.423 10.014-25.643 27.389-25.643 47.108 0 19.55 10.05 36.799 25.253 46.852-2.341 12.773-5.65 28.498-9.419 43.391-13.713 6.112-24.173 18.382-27.704 33.878l-2.409 10.574c-1.129 4.956-1.381 9.974-.808 14.866l15.901 15.901z" fill="#fae0bd"/><path d="m396.83 325.101-124.166 124.166c-1.535 1.535-3.473 2.602-5.591 3.077l-6.236 1.4c-4.322.97-7.697 4.346-8.668 8.668l-1.4 6.236c-.475 2.117-1.542 4.056-3.077 5.591l-5.25 5.25c-8.885 8.885-23.29 8.885-32.174 0l-203.604-203.604c-8.885-8.885-8.885-23.29 0-32.174l5.25-5.25c1.535-1.535 3.473-2.602 5.591-3.077l6.236-1.4c4.322-.97 7.697-4.346 8.668-8.668l1.4-6.236c.475-2.117 1.542-4.056 3.077-5.591l124.166-124.167c11.19-11.19 29.333-11.19 40.523 0l195.255 195.256c11.19 11.19 11.19 29.333 0 40.523z" fill="#b0ade2"/><path d="m396.83 284.578-74.214-74.213c-12.985 10.289-21.33 26.191-21.33 44.006 0 19.55 10.05 36.799 25.253 46.852-2.341 12.773-5.65 28.498-9.419 43.391-13.713 6.112-24.173 18.382-27.704 33.878l-2.409 10.574c-2.975 13.054.108 26.544 8.458 37.01.058.073.121.14.179.212l101.186-101.187c11.19-11.19 11.19-29.333 0-40.523z" fill="#a78cd6"/><circle cx="181.031" cy="225.693" fill="#fbf1cf" r="51.323"/><path d="m173.415 240.809c-1.92 0-3.839-.732-5.303-2.197-2.929-2.929-2.929-7.678 0-10.606l15.233-15.232c2.929-2.929 7.678-2.929 10.606 0 2.929 2.929 2.929 7.678 0 10.606l-15.233 15.232c-1.465 1.465-3.384 2.197-5.303 2.197z" fill="#4e5660"/><path d="m226.234 334.625c-1.919 0-3.839-.732-5.303-2.197-2.929-2.929-2.929-7.678 0-10.606l56.228-56.229c2.93-2.929 7.678-2.929 10.607 0s2.929 7.678 0 10.606l-56.23 56.229c-1.463 1.464-3.383 2.197-5.302 2.197z" fill="#4e5660"/><path d="m23.74 233.984-6.236 1.4c-2.117.475-4.056 1.542-5.591 3.077l-5.25 5.25c-8.885 8.885-8.885 23.29 0 32.174l203.604 203.604c8.885 8.885 23.29 8.885 32.174 0l5.25-5.25c1.535-1.535 2.602-3.473 3.077-5.591l1.4-6.236c.485-2.161 1.572-4.085 3.077-5.591l-225.914-225.914c-1.505 1.505-3.43 2.591-5.591 3.077z" fill="#a78cd6"/><g><path d="m486.966 371.275c-9.266-30.919-18.049-76.625-19.08-91.684h-106.959c-1.032 15.059-9.815 60.764-19.08 91.684z" fill="#daa985"/><path d="m499.143 411.639h-169.473c-8.25 0-14.364-7.663-12.531-15.707l2.41-10.574c1.877-8.238 9.203-14.083 17.653-14.083h154.409c8.449 0 15.776 5.844 17.653 14.083l2.41 10.574c1.832 8.044-4.281 15.707-12.531 15.707z" fill="#f2d98d"/><path d="m399.195 371.275h-61.993c-8.45 0-15.775 5.844-17.653 14.083l-2.409 10.574c-1.833 8.044 4.28 15.707 12.53 15.707h79.704c-8.713-8.024-13.57-23.842-10.179-40.364z" fill="#eec076"/><ellipse cx="414.406" cy="212.149" fill="#daa985" rx="56.706" ry="56.706" transform="matrix(.99 -.142 .142 .99 -25.995 61.196)"/><path d="m472.575 310.497c-2.534-13.37-4.266-24.723-4.689-30.905h-106.959c-.424 6.183-2.155 17.535-4.689 30.905z" fill="#d2896f"/><path d="m471.399 229.15h-113.986c-13.929 0-25.221 11.292-25.221 25.221 0 13.929 11.292 25.221 25.221 25.221h113.986c13.929 0 25.221-11.292 25.221-25.221 0-13.929-11.292-25.221-25.221-25.221z" fill="#f2d98d"/><path d="m403.741 229.15h-46.328c-13.929 0-25.221 11.292-25.221 25.221s11.292 25.221 25.221 25.221h56.993c-9.595-10.646-14.37-37.761-10.665-50.442z" fill="#eec076"/></g></g></svg>