<svg id="Capa_1" enable-background="new 0 0 512 512" height="512" viewBox="0 0 512 512" width="512" xmlns="http://www.w3.org/2000/svg"><g><path d="m382.627 470.75c12.837 0 22.657-11.436 20.726-24.127-11.626-76.426-77.621-134.985-157.294-134.985s-145.669 58.559-157.294 134.984c-1.931 12.691 7.889 24.127 20.726 24.127h273.136z" fill="#fbf1cf"/><path d="m88.765 446.622c-1.93 12.691 7.89 24.127 20.726 24.127h110.419c0-33.427-11.766-82.93-46.604-141.54-44.462 22.901-76.741 66.135-84.541 117.413z" fill="#b0ade2"/><path d="m403.354 446.622c1.93 12.691-7.89 24.127-20.726 24.127h-110.42c0-33.427 11.766-82.93 46.604-141.54 44.463 22.901 76.741 66.135 84.542 117.413z" fill="#b0ade2"/><path d="m292.531 469.044-.389 1.705h90.485c12.837 0 22.657-11.436 20.726-24.127-7.801-51.279-40.079-94.512-84.542-117.413-5.191 8.734-9.859 17.26-14.063 25.566 2.239 16.047 11.324 29.934 24.216 38.578-2.3 12.469-5.515 27.753-9.13 42.12-13.515 6.112-23.813 18.256-27.303 33.571z" fill="#a78cd6"/><ellipse cx="435.385" cy="199.36" fill="#ffbe9d" rx="56.733" ry="50.609"/><ellipse cx="56.733" cy="199.36" fill="#ffbe9d" rx="56.733" ry="50.609"/><path d="m441.556 210.468c0 97.814-87.527 168.032-195.497 168.032s-195.497-70.218-195.497-168.032 81.585-177.107 195.497-177.107 195.497 79.294 195.497 177.107z" fill="#ffd3bd"/><path d="m441.093 222.524c-7.951-2.41-16.38-3.711-25.107-3.711-46.096 0-83.904 36.16-86.545 81.606-15.19 9.963-25.242 27.143-25.242 46.626 0 8.199 1.795 15.983 4.989 23 72.965-20.316 126.503-75.575 131.905-147.521z" fill="#ffbe9d"/><path d="m49.927 161.196c49.571-5.796 127.436-42.793 160.882-60.455 4.775-2.522 10.432 1.343 9.807 6.707-1.097 9.424-2.076 21.867-2.162 32.107-.054 6.424 6.103 11.081 12.269 9.279 20.514-5.995 56.305-22.927 76.892-39.49 4.097-3.296 10.002-3.04 13.772.627 27.245 26.506 73.965 50.393 115.947 56.696 11.236 1.687 20.685-8.372 18.226-19.465-11.531-52.027-67.35-136.968-209.501-136.968-137.891 0-192.763 81.55-212.672 128.538-4.814 11.364 4.282 23.857 16.54 22.424z" fill="#4e5660"/><path d="m33.388 138.771c-4.815 11.364 4.281 23.858 16.54 22.425 34.587-4.044 82.944-23.276 120.381-40.533-36.538-7.748-41.504-61.72-28.456-91.018-63.845 27.053-94.619 76.445-108.465 109.126z" fill="#404656"/><g><path d="m473.309 402.762-57.322-20.448-57.323 20.448c-3.575 18.789-8.737 41.521-14.063 59.294h142.77c-5.326-17.773-10.487-40.505-14.062-59.294z" fill="#daa985"/><path d="m499.351 501.766h-166.729c-8.117 0-14.131-7.539-12.328-15.453l2.371-10.403c1.847-8.105 9.054-13.854 17.367-13.854h151.909c8.313 0 15.52 5.75 17.367 13.854l2.371 10.403c1.803 7.914-4.211 15.453-12.328 15.453z" fill="#f2d98d"/><ellipse cx="415.986" cy="305.506" fill="#daa985" rx="55.788" ry="55.788" transform="matrix(.845 -.535 .535 .845 -98.923 270.192)"/><path d="m473.309 402.762c-2.544-13.369-4.287-24.746-4.709-30.905h-105.227c-.422 6.159-2.165 17.536-4.709 30.905z" fill="#d2896f"/><path d="m472.056 322.231h-112.14c-13.704 0-24.812 11.109-24.812 24.812 0 13.703 11.109 24.812 24.812 24.812h112.14c13.703 0 24.812-11.109 24.812-24.812.001-13.703-11.108-24.812-24.812-24.812z" fill="#f2d98d"/></g><g><g><path d="m192.219 225.768c.007 13.843-14.079 25.072-31.463 25.081-17.383.009-31.481-11.206-31.488-25.049s14.079-25.073 31.463-25.081c17.384-.01 31.481 11.206 31.488 25.049z" fill="#eda1ab"/><path d="m299.875 225.714c.007 13.843 14.105 25.058 31.488 25.049s31.47-11.238 31.463-25.081-14.105-25.059-31.488-25.05-31.47 11.239-31.463 25.082z" fill="#eda1ab"/><path d="m276.895 214.394c-.01-19.068-13.824-20.852-30.864-20.844-17.04.009-30.852 1.807-30.843 20.875.01 19.068 13.831 34.518 30.871 34.509s30.846-15.473 30.836-34.54z" fill="#4e5660"/></g><g fill="#4e5660"><path d="m313.728 204.531c-.005 0-.009 0-.015 0-4.142-.008-7.493-3.372-7.485-7.514l.024-12.362c.008-4.137 3.364-7.486 7.5-7.486h.015c4.142.008 7.493 3.372 7.485 7.514l-.024 12.362c-.007 4.137-3.364 7.486-7.5 7.486z"/><path d="m198.786 203.399c-.006 0-.011 0-.017 0-4.142-.009-7.492-3.374-7.483-7.517.009-3.852-3.119-6.994-6.972-7.002-.005 0-.01 0-.015 0-3.846 0-6.979 3.124-6.987 6.972-.009 4.136-3.365 7.483-7.5 7.483-.006 0-.011 0-.017 0-4.142-.009-7.492-3.374-7.483-7.517.026-12.122 9.932-21.974 22.034-21.939 12.124.027 21.966 9.912 21.939 22.036-.008 4.137-3.364 7.484-7.499 7.484z"/></g></g></g></svg>