<svg id="Capa_1" enable-background="new 0 0 512 512" height="512" viewBox="0 0 512 512" width="512" xmlns="http://www.w3.org/2000/svg"><g><path d="m83.704 481.346c-9.204-9.204-9.204-24.127 0-33.331l116.896-116.896c9.203-9.204 24.128-9.204 33.331 0 9.204 9.204 9.204 24.127 0 33.331l-116.896 116.896c-9.203 9.204-24.127 9.204-33.331 0z" fill="#b0ade2"/><path d="m145.94 414.841c-2.376-6.976-5.737-13.431-9.855-19.206l-52.38 52.38c-9.204 9.204-9.204 24.127 0 33.331 9.204 9.205 24.128 9.204 33.331 0l52.398-52.398c-5.795-4.117-12.259-7.465-19.223-9.837-2.026-.69-3.582-2.246-4.271-4.27z" fill="#a78cd6"/><path d="m116.685 424.805c3.777 11.09 12.471 19.784 23.561 23.56 23.47 7.993 36.295 34.797 19.849 51.243-16.033 16.033-58.971 13.663-85.546 8.605-8.986-1.71-16.001-8.726-17.711-17.711-5.058-26.575-7.427-69.513 8.605-85.546 16.445-16.446 43.248-3.621 51.242 19.849z" fill="#b0ade2"/><path d="m428.296 481.346c9.204-9.204 9.204-24.127 0-33.331l-116.897-116.897c-9.203-9.204-24.128-9.204-33.331 0-9.204 9.204-9.204 24.127 0 33.331l116.896 116.896c9.204 9.205 24.128 9.205 33.332.001z" fill="#b2ecde"/><path d="m366.06 414.841c2.376-6.976 5.737-13.431 9.855-19.206l52.38 52.38c9.204 9.204 9.204 24.127 0 33.331-9.204 9.205-24.128 9.204-33.331 0l-52.398-52.398c5.795-4.117 12.259-7.465 19.223-9.837 2.026-.69 3.582-2.246 4.271-4.27z" fill="#8ee2cf"/><path d="m395.315 424.805c-3.777 11.09-12.471 19.784-23.561 23.56-23.47 7.993-36.295 34.797-19.849 51.243 16.033 16.033 58.971 13.663 85.546 8.605 8.986-1.71 16.001-8.726 17.711-17.711 5.058-26.575 7.427-69.513-8.605-85.546-16.445-16.446-43.248-3.621-51.242 19.849z" fill="#b2ecde"/><path d="m367.504 327.471c30.55-38.66-30.744-108.028-9.251-153.981h-204.506c21.493 45.953-39.802 115.321-9.252 153.981z" fill="#e7c7af"/><path d="m354.661 209.779c-1.948-12.943-1.554-25.287 3.591-36.289h-204.505c5.145 11.001 5.54 23.346 3.591 36.289z" fill="#daa985"/><g fill="#4e5660"><path d="m188.425 286.64c-4.142 0-7.5-3.358-7.5-7.5v-12.362c0-4.142 3.358-7.5 7.5-7.5s7.5 3.358 7.5 7.5v12.362c0 4.142-3.358 7.5-7.5 7.5z"/><path d="m256 294.681c-8.996 0-17.55-3.896-23.47-10.688-2.721-3.123-2.396-7.86.727-10.582 3.123-2.721 7.859-2.397 10.582.727 3.07 3.523 7.503 5.544 12.162 5.544s9.091-2.02 12.162-5.544c2.722-3.122 7.458-3.447 10.582-.727 3.123 2.722 3.448 7.459.727 10.582-5.922 6.792-14.476 10.688-23.472 10.688z"/><path d="m340.288 286.295c-4.142 0-7.5-3.358-7.5-7.5 0-3.764-3.062-6.826-6.826-6.826s-6.826 3.062-6.826 6.826c0 4.142-3.358 7.5-7.5 7.5s-7.5-3.358-7.5-7.5c0-12.035 9.791-21.826 21.826-21.826s21.826 9.791 21.826 21.826c0 4.142-3.358 7.5-7.5 7.5z"/></g><ellipse cx="256" cy="23.356" fill="#e7c7af" rx="25.693" ry="23.356"/><path d="m256 37.544c-11.715 0-22.796 2.85-32.674 7.718-4.044 1.992-4.876 7.412-1.688 10.599l8.238 8.238c7.145 7.145 7.366 19.06.09 26.07-7.057 6.799-18.291 6.72-25.252-.24l-7.909-7.909c-3.324-3.324-8.947-2.221-10.795 2.101-3.305 7.728-5.123 15.873-5.123 23.985 0 34.951 33.629 56.008 75.113 56.008s75.113-21.057 75.113-56.008-33.629-70.562-75.113-70.562z" fill="#daa985"/><path d="m180.887 108.106c0 34.951 33.629 56.008 75.113 56.008s75.113-21.057 75.113-56.008c0-1.763-.108-3.527-.276-5.288h-149.68c-.168 1.761-.27 3.525-.27 5.288z" fill="#d2896f"/><path d="m352.953 178.873h-193.906c-9.776 0-17.701-7.925-17.701-17.701v-9.749c0-9.776 7.925-17.701 17.701-17.701h193.906c9.776 0 17.701 7.925 17.701 17.701v9.749c0 9.777-7.925 17.701-17.701 17.701z" fill="#f2d98d"/><path d="m232.471 133.723h-73.424c-9.776 0-17.701 7.925-17.701 17.701v9.749c0 9.776 7.925 17.701 17.701 17.701h84.925c-13.396-9.219-15.335-33.061-11.501-45.151z" fill="#eec076"/><path d="m367.038 322.088h-222.076c-13.323 0-24.976 8.968-28.389 21.846l-2.301 8.684c-2.792 10.537 5.153 20.861 16.054 20.861h251.348c10.901 0 18.846-10.324 16.054-20.861l-2.301-8.684c-3.413-12.878-15.066-21.846-28.389-21.846z" fill="#daa985"/></g></svg>