<svg id="Capa_1" enable-background="new 0 0 512 512" height="512" viewBox="0 0 512 512" width="512" xmlns="http://www.w3.org/2000/svg"><g><path d="m174.209 234.809c38.981-16.151 98.843-70.558 117.979-89.051l148.547 143.552c-19.136 18.493-75.436 76.342-92.149 114.013z" fill="#daa985"/><path d="m316.689 244.969-62.557-39.105 1.042-26.739c-25.386 21.552-57.091 45.793-80.965 55.685l95.462 92.253 24.31-1.063c19.891-.87 36.753-13.933 41.958-32.507 5.204-18.573-2.532-38.073-19.25-48.524z" fill="#d2896f"/><path d="m343.544 390.52-66.021-63.801c-.003-.001-46.902-24.035-61.534-11.278-14.632 12.756 1.225 47.048 1.226 47.051l88.03 85.071c10.528 10.174 28.237 7.609 35.216-5.1l8.685-15.814c6.549-11.925 4.276-26.583-5.602-36.129z" fill="#e7c7af"/><path d="m496.23 90.594c-2.93-2.929-7.678-2.929-10.608 0l-8.015 8.016-2.61-2.61c-2.93-2.929-7.678-2.929-10.607 0s-2.929 7.678 0 10.606l2.61 2.61-21.727 21.727c-2.929 2.929-2.929 7.678 0 10.606 2.93 2.929 7.677 2.929 10.607 0l21.726-21.726 2.61 2.61c2.93 2.929 7.677 2.929 10.607 0 2.929-2.929 2.929-7.678 0-10.606l-2.611-2.611 8.016-8.016c2.931-2.928 2.931-7.677.002-10.606z" fill="#e7c7af"/><path d="m471.941 248.431-137.451-132.829c5.075-7.665 11.586-18.361 16.94-27.887 6.027-10.723 20.258-14.095 30.762-7.324 26.862 17.313 54.926 42.848 68.386 55.855 13.46 13.008 39.883 40.128 57.799 66.086 7.006 10.152 3.517 23.904-7.579 29.728-9.857 5.175-20.925 11.466-28.857 16.371z" fill="#daa985"/><path d="m334.49 115.602 137.451 132.829c7.572-4.682 17.999-10.626 27.506-15.657l-148.755-143.753c-5.206 9.186-11.357 19.263-16.202 26.581z" fill="#d2896f"/><path d="m291.553 149.04 145.786 140.884c8.72 8.427 22.858 8.427 31.577 0l7.192-6.95c8.72-8.427 8.72-22.089 0-30.516l-145.785-140.884c-8.72-8.427-22.857-8.427-31.577 0l-7.192 6.95c-8.721 8.427-8.721 22.09-.001 30.516z" fill="#f2d98d"/><path d="m370.175 150.087-39.853-38.513c-8.72-8.427-22.857-8.427-31.577 0l-7.192 6.95c-8.72 8.427-8.72 22.089 0 30.516l74.696 72.184c-9.976-20.495-4.785-56.295 3.926-71.137z" fill="#eec076"/><path d="m187.457 239.681c-9.878-9.546-25.046-11.742-37.385-5.414l-16.364 8.393c-13.151 6.745-15.805 23.859-5.277 34.032l88.784 85.799 9.887-33.568 50.421-2.204z" fill="#daa985"/><path d="m200.572 309.898-18.625 63.238c-3.257 11.059-18.052 13.991-25.551 5.064l-27.677-32.951c-4.035-4.804-10.825-6.531-16.785-4.27l-59.358 22.523c-12.486 4.738-24.476-7.836-18.571-19.476l24.857-48.993c2.832-5.581 1.579-12.293-3.09-16.567l-51.175-46.84c-7.974-7.299-5.15-20.164 5.204-23.705l49.198-16.824c6.284-2.149 10.285-8.116 9.748-14.537l-8.626-103.004c-1.222-14.588 18.423-21.213 26.859-9.059l49.839 71.806c5.271 7.594 16.486 8.467 22.947 1.786l41.944-43.373c9.292-9.608 25.941-2.908 25.428 10.234l-4.238 108.688c-.195 5.006 2.353 9.741 6.705 12.462l70.297 43.943c12.013 7.509 6.973 25.493-7.32 26.118l-78.537 3.433c-6.316.279-11.742 4.428-13.473 10.304z" fill="#f2d98d"/><path d="m140.51 190.914-17.399 31.136c-.747 1.338-2.021 2.328-3.532 2.749l-32.158 8.944c-5.236 1.456-5.755 8.429-.787 10.594l23.945 10.435c1.764.769 3.021 2.33 3.358 4.172l5.828 31.846c.865 4.725 7.04 6.33 10.24 2.662l22.061-25.284c.814-.933 1.918-1.586 3.148-1.863l33.119-7.453c4.915-1.106 6.176-7.301 2.06-10.124l-24.721-16.953c-1.034-.709-1.802-1.723-2.188-2.89l-12.248-37.005c-1.571-4.752-8.274-5.355-10.726-.966z" fill="#e7889d"/></g></svg>