<svg id="Capa_1" enable-background="new 0 0 512 512" height="512" viewBox="0 0 512 512" width="512" xmlns="http://www.w3.org/2000/svg"><g><path d="m437.853 367.37h-36.056v-18.847c0-18.169-13.679-32.95-30.492-32.95h-107.805v-34.382c0-4.142-3.357-7.5-7.5-7.5s-7.5 3.358-7.5 7.5v34.382h-107.805c-16.813 0-30.492 14.781-30.492 32.95v18.847h-36.056c-16.813 0-30.492 14.781-30.492 32.95v23.586h15v-23.586c0-9.898 6.95-17.95 15.492-17.95h87.111c8.542 0 15.492 8.052 15.492 17.95v23.586h15v-23.586c0-18.169-13.679-32.95-30.492-32.95h-36.056v-18.847c0-9.898 6.95-17.95 15.492-17.95h230.609c8.542 0 15.492 8.052 15.492 17.95v18.847h-36.056c-16.814 0-30.492 14.781-30.492 32.95v23.586h15v-23.586c0-9.898 6.95-17.95 15.492-17.95h87.111c8.542 0 15.492 8.052 15.492 17.95v23.586h15v-23.586c.003-18.169-13.676-32.95-30.489-32.95z" fill="#4e5660"/><ellipse cx="256" cy="170.74" fill="#a78cd6" rx="139.424" ry="111.452"/><g><path d="m315.913 178.212c-7.651-25.53-14.903-63.269-15.755-75.703h-88.316c-.852 12.434-8.104 50.173-15.755 75.703z" fill="#daa985"/><path d="m325.967 211.541h-139.934c-6.812 0-11.86-6.327-10.346-12.97l1.99-8.731c1.55-6.802 7.599-11.628 14.576-11.628h127.496c6.977 0 13.026 4.826 14.576 11.628l1.99 8.731c1.512 6.642-3.536 12.97-10.348 12.97z" fill="#f2d98d"/><ellipse cx="256" cy="46.822" fill="#daa985" rx="46.822" ry="46.822" transform="matrix(.407 -.914 .914 .407 109.094 261.641)"/><path d="m303.059 60.86h-94.118c-11.501 0-20.825 9.324-20.825 20.825 0 11.501 9.324 20.825 20.825 20.825h94.118c11.501 0 20.825-9.324 20.825-20.825 0-11.502-9.324-20.825-20.825-20.825z" fill="#f2d98d"/><g fill="#eec076"><path d="m243.44 178.212h-51.188c-6.977 0-13.026 4.826-14.576 11.628l-1.99 8.731c-1.514 6.642 3.534 12.97 10.346 12.97h65.812c-7.194-6.626-11.203-19.686-8.404-33.329z"/><path d="m247.194 60.859h-38.253c-11.501 0-20.825 9.324-20.825 20.825s9.324 20.825 20.825 20.825h47.059c-7.923-8.79-11.865-31.179-8.806-41.65z"/></g></g><path d="m73.096 512h-43.881c-12.209 0-22.106-9.897-22.106-22.106v-43.882c0-12.209 9.897-22.106 22.106-22.106h43.882c12.209 0 22.106 9.897 22.106 22.106v43.882c-.001 12.209-9.898 22.106-22.107 22.106z" fill="#e7889d"/><path d="m206.192 512h-43.882c-12.209 0-22.106-9.897-22.106-22.106v-43.882c0-12.209 9.897-22.106 22.106-22.106h43.882c12.209 0 22.106 9.897 22.106 22.106v43.882c0 12.209-9.897 22.106-22.106 22.106z" fill="#a3defe"/><path d="m438.904 512h43.882c12.209 0 22.106-9.897 22.106-22.106v-43.882c0-12.209-9.897-22.106-22.106-22.106h-43.882c-12.209 0-22.106 9.897-22.106 22.106v43.882c0 12.209 9.897 22.106 22.106 22.106z" fill="#b2ecde"/><path d="m305.808 512h43.882c12.209 0 22.106-9.897 22.106-22.106v-43.882c0-12.209-9.897-22.106-22.106-22.106h-43.882c-12.209 0-22.106 9.897-22.106 22.106v43.882c0 12.209 9.897 22.106 22.106 22.106z" fill="#b0ade2"/><path d="m29.215 512h43.882c1.248 0 2.464-.128 3.656-.327-47.046-10.055-48.96-74.238-42.521-87.767h-5.017c-12.209 0-22.106 9.897-22.106 22.106v43.882c0 12.209 9.897 22.106 22.106 22.106z" fill="#e16e7e"/><path d="m162.311 512h43.882c1.248 0 2.464-.128 3.655-.327-47.046-10.055-48.96-74.238-42.521-87.767h-5.017c-12.209 0-22.106 9.897-22.106 22.106v43.882c.001 12.209 9.898 22.106 22.107 22.106z" fill="#7acefa"/><path d="m305.808 512h43.882c1.248 0 2.464-.128 3.656-.327-47.046-10.055-48.96-74.238-42.521-87.767h-5.017c-12.209 0-22.106 9.897-22.106 22.106v43.882c0 12.209 9.897 22.106 22.106 22.106z" fill="#a78cd6"/><path d="m438.904 512h43.882c1.248 0 2.464-.128 3.655-.327-47.046-10.055-48.96-74.238-42.521-87.767h-5.017c-12.209 0-22.106 9.897-22.106 22.106v43.882c.001 12.209 9.898 22.106 22.107 22.106z" fill="#8ee2cf"/></g></svg>