<svg id="Capa_1" enable-background="new 0 0 512 512" height="512" viewBox="0 0 512 512" width="512" xmlns="http://www.w3.org/2000/svg"><g><path d="m315.704 411.783 12.147-26.305c6.874-14.885 7.742-31.847 2.386-47.343-9.552-27.634-24.034-78.027-28.577-139.868h-238.227c-4.543 61.841-19.025 112.234-28.577 139.868-5.356 15.496-4.488 32.458 2.386 47.344l12.147 26.305h266.315z" fill="#daa985"/><path d="m315.704 411.783 12.147-26.305c6.874-14.885 7.742-31.847 2.386-47.343-9.551-27.634-24.034-78.027-28.577-139.868h-49.247c-.775 1.232-1.536 2.476-2.269 3.746l-92.671 160.508c-8.934 15.476-13.837 32.301-14.736 49.263h172.967z" fill="#d2896f"/><g><g><ellipse cx="96.17" cy="310.739" fill="#fff" rx="31.872" ry="25.381"/><ellipse cx="268.924" cy="310.739" fill="#fff" rx="31.872" ry="25.381"/><ellipse cx="182.547" cy="291.238" fill="#4e5660" rx="16.918" ry="18.932"/></g><g fill="#4e5660"><path d="m101.498 287.611c-4.143 0-7.5-3.358-7.5-7.5v-12.362c0-4.142 3.357-7.5 7.5-7.5s7.5 3.358 7.5 7.5v12.362c0 4.142-3.357 7.5-7.5 7.5z"/><path d="m263.597 287.611c-4.143 0-7.5-3.358-7.5-7.5v-12.362c0-4.142 3.357-7.5 7.5-7.5s7.5 3.358 7.5 7.5v12.362c0 4.142-3.358 7.5-7.5 7.5z"/></g></g><path d="m314.129 140.651 15.709-34.283c4.526-9.877 6.869-20.613 6.869-31.478v-33.518c0-11.447-9.279-20.726-20.726-20.726h-72.046c-11.447 0-20.726 9.279-20.726 20.726v21.176c0 9.385-7.608 16.992-16.992 16.992h-47.34c-9.385 0-16.992-7.608-16.992-16.992v-21.176c0-11.447-9.279-20.726-20.726-20.726h-72.046c-11.447 0-20.726 9.279-20.726 20.726v33.517c0 10.864 2.343 21.601 6.869 31.478l15.709 34.283h263.164z" fill="#daa985"/><path d="m314.129 140.651 13.816-30.151c-2.865-.487-5.804-.755-8.806-.755h-273.183c-3.002 0-5.941.268-8.807.755l13.816 30.15h263.164z" fill="#d2896f"/><path d="m319.138 140.651h-191.668c-22.532 14.197-14.345 49.961 16.045 57.617h169.177c15.422 0 27.924-12.502 27.925-27.924v-8.215c-.001-11.863-9.617-21.478-21.479-21.478z" fill="#f2d98d"/><path d="m45.956 140.651c-11.862 0-21.478 9.616-21.478 21.478v8.214c0 15.422 12.502 27.925 27.925 27.925h91.112c-15.683-12.978-23.291-39.34-16.045-57.617z" fill="#eec076"/><path d="m169.951 453.402c-4.322-17.334-10.617-23.107-27.214-41.619h-100.585c-17.969 0-33.687 12.096-38.29 29.466l-3.103 11.713c-3.766 14.212 6.95 28.137 21.653 28.137h140.603c7.127-8.65 7.772-24.344 6.936-27.697z" fill="#e7c7af"/><g><path d="m252.414 198.267h60.277c15.422 0 27.924-12.502 27.924-27.924v-8.215c0-5.64-2.191-10.757-5.747-14.589-34.023 3.143-64.081 21.54-82.454 50.728z" fill="#eec076"/><path d="m364.335 452.962-3.103-11.713c-4.602-17.37-20.32-29.466-38.289-29.466h-180.206c-1.101 20.76 3.802 41.723 14.738 60.663 1.728 2.993 3.582 5.874 5.54 8.653h179.667c14.703 0 25.418-13.925 21.653-28.137z" fill="#daa985"/><path d="m252.675 491.354c-26.705 0-50.621-13.808-63.973-36.935-13.353-23.128-13.353-50.742-.001-73.87l92.669-160.507c13.352-23.128 37.268-36.935 63.973-36.935 26.706 0 50.621 13.808 63.973 36.935l92.669 160.507c13.352 23.128 13.352 50.742-.001 73.87-13.352 23.128-37.268 36.935-63.973 36.935z" fill="#fbf1cf"/><path d="m319.619 187.637c-15.884 5.83-29.392 17.064-38.249 32.405l-92.67 160.506c-13.352 23.128-13.352 50.742.001 73.87 13.352 23.128 37.268 36.935 63.973 36.935h94.548c-73.789-59.497-70.562-223.361-27.603-303.716z" fill="#fae0bd"/><path d="m308.899 235.936-92.669 160.507c-16.197 28.055 4.049 63.123 36.444 63.123h185.337c32.395 0 52.641-35.068 36.444-63.123l-92.669-160.507c-16.196-28.055-56.69-28.055-72.887 0z" fill="#e7889d"/><path d="m295.822 258.586-79.592 137.857c-16.197 28.055 4.049 63.123 36.444 63.123h67.256c-31.981-52.446-37.176-133.761-24.108-200.98z" fill="#e16e7e"/></g><g><path d="m353.155 402.276c0 4.315-3.498 7.812-7.812 7.812s-7.812-3.498-7.812-7.812 3.498-7.812 7.812-7.812 7.812 3.497 7.812 7.812z" fill="#fbf1cf"/><g><g><path d="m345.457 378.068c-4.142 0-7.5-3.358-7.5-7.5v-100.014c0-4.142 3.358-7.5 7.5-7.5 4.143 0 7.5 3.358 7.5 7.5v100.014c0 4.142-3.357 7.5-7.5 7.5z" fill="#fbf1cf"/></g></g></g></g></svg>