<svg id="Capa_1" enable-background="new 0 0 512 512" height="512" viewBox="0 0 512 512" width="512" xmlns="http://www.w3.org/2000/svg"><g><g><path d="m98.814 427.406c8.877-24.532 20.685-60.555 22.941-96.156 2.605-41.121 2.007-81.677 1.01-103.306h266.012c-.997 21.629-1.595 62.185 1.01 103.306 2.256 35.6 14.064 71.624 22.941 96.156z" fill="#d2896f"/><path d="m403.934 419.615h-296.326c-18.752 0-35.308 12.241-40.805 30.169l-7.29 23.778c-5.858 19.109 8.433 38.438 28.419 38.438h335.677c19.986 0 34.278-19.329 28.419-38.438l-7.29-23.778c-5.496-17.928-22.051-30.169-40.804-30.169z" fill="#e7c7af"/><path d="m403.934 419.615h-296.327c-.86 0-1.713.035-2.563.085 29.006 53.523 85.691 89.953 150.726 89.953s121.72-36.43 150.726-89.953c-.849-.05-1.702-.085-2.562-.085z" fill="#daa985"/><path d="m266.798 18.56h-3.527v-11.06c0-4.142-3.358-7.5-7.5-7.5s-7.5 3.358-7.5 7.5v11.06h-3.528c-4.142 0-7.5 3.358-7.5 7.5s3.358 7.5 7.5 7.5h3.528v30.166c0 4.142 3.358 7.5 7.5 7.5s7.5-3.358 7.5-7.5v-30.165h3.527c4.142 0 7.5-3.358 7.5-7.5s-3.358-7.501-7.5-7.501z" fill="#e7c7af"/><path d="m118.731 158.168h274.08c2.849-12.968 7.392-30.494 11.882-45.66 5.054-17.071-5.656-34.738-23.114-38.227-44.643-8.92-98.968-10.555-125.807-10.555s-81.164 1.636-125.807 10.555c-17.459 3.488-28.168 21.156-23.114 38.227 4.488 15.166 9.032 32.692 11.88 45.66z" fill="#daa985"/><g><g fill="#fff"><path d="m204.116 133.999c-.011 13.284-13.544 24.042-30.225 24.027-16.681-.014-30.195-10.795-30.184-24.079s13.544-24.042 30.225-24.027c16.682.014 30.195 10.795 30.184 24.079z"/><ellipse cx="337.63" cy="134.115" rx="30.205" ry="24.053"/></g><g fill="#4e5660"><path d="m191.535 118.181c-.002 0-.004 0-.006 0-4.142-.004-7.498-3.364-7.494-7.506l.009-12.055c.003-4.14 3.36-7.494 7.5-7.494h.006c4.142.003 7.498 3.364 7.494 7.506l-.009 12.055c-.003 4.14-3.36 7.494-7.5 7.494z"/><path d="m320.048 118.307c-.002 0-.004 0-.006 0-4.142-.003-7.498-3.364-7.494-7.506l.009-12.056c.003-4.14 3.36-7.494 7.5-7.494h.006c4.142.003 7.497 3.364 7.494 7.506l-.009 12.056c-.004 4.14-3.361 7.494-7.5 7.494z"/><path d="m272.727 123.611c-.002 0-.004 0-.006 0l-33.881-.029c-4.142-.003-7.497-3.364-7.494-7.506.003-4.14 3.361-7.494 7.5-7.494h.006l33.881.029c4.142.004 7.497 3.364 7.494 7.506-.003 4.14-3.361 7.494-7.5 7.494z"/></g></g><path d="m394.156 231.771h-276.77c-16.554 0-29.974-13.42-29.974-29.974v-13.654c0-16.554 13.42-29.974 29.974-29.974h276.769c16.554 0 29.974 13.42 29.974 29.974v13.654c.001 16.554-13.419 29.974-29.973 29.974z" fill="#f2d98d"/><path d="m389.79 231.771c-31.413-39.42-79.813-64.734-134.019-64.734-54.207 0-102.606 25.314-134.019 64.734z" fill="#eec076"/></g><g><ellipse cx="255.771" cy="338.346" fill="#fbf1cf" rx="135.78" ry="135.781" transform="matrix(.707 -.707 .707 .707 -164.333 279.957)"/><circle cx="255.771" cy="338.346" fill="#e7889d" r="83.138"/><ellipse cx="255.771" cy="338.346" fill="#fbf1cf" rx="30.496" ry="30.496" transform="matrix(.707 -.707 .707 .707 -164.333 279.957)"/></g><path d="m412.492 36.916c4.16-6.353 13.446-6.353 17.605 0 11.825 18.06 23.715 33.837 23.715 48.158 0 17.959-14.559 32.518-32.518 32.518s-32.518-14.559-32.518-32.518c.001-14.321 11.891-30.098 23.716-48.158z" fill="#a3defe"/></g></svg>