<svg id="Capa_1" enable-background="new 0 0 512 512" height="512" viewBox="0 0 512 512" width="512" xmlns="http://www.w3.org/2000/svg"><g><g><path d="m256 509.002c-15.1 0-29.923-4.129-42.867-11.94-39.618-23.905-83.633-64.833-123.935-115.242-40.17-50.243-70.33-101.956-84.925-145.611-6.689-20.008-5.493-41.56 3.368-60.684 24.357-52.561 82.812-124.411 127.648-156.897 14.113-10.225 30.795-15.63 48.243-15.63 9.705 0 19.239 1.697 28.338 5.043 14.471 5.322 29.292 12.217 44.13 20.527 14.84-8.31 29.66-15.205 44.13-20.527 9.099-3.346 18.633-5.043 28.338-5.043 17.448 0 34.13 5.405 48.241 15.628 44.837 32.488 103.293 104.337 127.648 156.897 8.862 19.126 10.058 40.677 3.369 60.685-14.595 43.655-44.755 95.368-84.925 145.611-40.302 50.409-84.317 91.336-123.936 115.242-12.942 7.812-27.765 11.941-42.865 11.941z" fill="#b2ecde"/><path d="m362.441 447.63c-197.431-79.776-222.939-368.213-199.592-442-9.842 2.547-19.159 6.911-27.56 12.998-44.836 32.486-103.291 104.336-127.648 156.898-8.861 19.124-10.057 40.675-3.368 60.684 14.595 43.655 44.755 95.368 84.925 145.611 40.302 50.409 84.317 91.336 123.935 115.242 12.945 7.811 27.768 11.94 42.867 11.94 15.1 0 29.923-4.129 42.867-11.94 20.395-12.307 41.955-29.134 63.574-49.433z" fill="#8ee2cf"/><path d="m465.483 209.372-150.127-59.356-59.356-73.417c-6.296 0-12.592-1.641-18.232-4.923-11.814-6.875-26.198-14.224-41.941-20.014-11.143-4.098-23.653-2.363-33.267 4.602-38.064 27.579-91.658 93.29-112.747 138.801-2.097 4.526-3.195 9.402-3.295 14.306l165.611 43.871 43.871 209.282c6.524 0 13.048-1.752 18.855-5.256 72.618-43.818 162.174-156.174 188.792-235.795 1.314-3.931 1.918-8.026 1.836-12.101z" fill="#fbf1cf"/><path d="m325.579 374.566c14.262 0 27.543-6.394 36.437-17.544 8.894-11.149 12.177-25.518 9.008-39.421l-1.979-8.686c-3.243-14.227-12.107-25.837-23.958-32.728-1.966-8.128-3.75-16.41-5.216-23.862 12.054-10.417 19.693-25.81 19.693-42.954 0-17.996-8.418-34.064-21.523-44.472-4.864-40.952-39.802-72.817-82.041-72.817s-77.177 31.865-82.041 72.817c-13.105 10.407-21.523 26.475-21.523 44.472 0 17.144 7.639 32.537 19.693 42.954-1.466 7.452-3.25 15.734-5.216 23.863-11.851 6.89-20.715 18.5-23.958 32.73l-1.978 8.68c-3.169 13.905.114 28.275 9.007 39.424 8.894 11.149 22.175 17.544 36.437 17.544z" fill="#fae0bd"/><path d="m46.517 209.372c-.083 4.075.521 8.17 1.836 12.101 26.619 79.621 116.174 191.977 188.792 235.795 5.807 3.504 12.331 5.256 18.855 5.256v-253.152z" fill="#4e5660"/><path d="m465.483 209.372c-.1-4.904-1.197-9.78-3.295-14.306-21.089-45.511-74.684-111.222-112.748-138.801-9.614-6.966-22.125-8.7-33.267-4.602-15.743 5.79-30.128 13.139-41.941 20.014-5.64 3.282-11.936 4.923-18.232 4.923v132.773h209.483z" fill="#4e5660"/><path d="m256 374.566v-165.194h-103.564c0 17.144 7.639 32.537 19.693 42.954-1.466 7.452-3.25 15.734-5.216 23.863-11.851 6.89-20.715 18.5-23.958 32.73l-1.978 8.68c-3.169 13.905.114 28.275 9.007 39.424 8.894 11.149 22.175 17.544 36.437 17.544h69.579z" fill="#404656"/><path d="m338.041 164.9c-4.864-40.952-39.802-72.817-82.041-72.817v117.289h103.564c0-17.996-8.418-34.064-21.523-44.472z" fill="#404656"/><g><path d="m315.581 305.366c-7.608-25.389-14.82-62.919-15.668-75.284h-87.827c-.847 12.365-8.059 49.895-15.667 75.284z" fill="#d2896f"/><path d="m325.58 338.51h-139.16c-6.775 0-11.794-6.292-10.289-12.898l1.979-8.683c1.542-6.765 7.557-11.564 14.495-11.564h126.79c6.938 0 12.954 4.799 14.495 11.564l1.979 8.683c1.505 6.605-3.515 12.898-10.289 12.898z" fill="#eec076"/><ellipse cx="256" cy="174.703" fill="#d2896f" rx="46.563" ry="46.563" transform="matrix(.905 -.425 .425 .905 -49.969 125.306)"/><path d="m302.799 188.663h-93.597c-11.437 0-20.709 9.272-20.709 20.709 0 11.438 9.272 20.709 20.709 20.709h93.597c11.437 0 20.709-9.272 20.709-20.709 0-11.437-9.272-20.709-20.709-20.709z" fill="#eec076"/></g></g><path d="" fill="#4e5660"/></g></svg>