<svg id="Capa_1" enable-background="new 0 0 512 512" height="512" viewBox="0 0 512 512" width="512" xmlns="http://www.w3.org/2000/svg"><g><path d="m285.525 456.129c-18.192 9.869-39.992 9.901-58.215.086-103.405-55.692-227.157-177.864-227.31-279.493-.114-76.574 61.868-138.742 138.442-138.856 49.439-.073 92.844 25.758 117.447 64.667 24.49-38.983 67.817-64.943 117.255-65.018 76.574-.115 138.741 61.868 138.856 138.442.151 101.629-123.234 224.17-226.475 280.172z" fill="#e7889d"/><path d="m394.991 364.944c-4.593-24.063-7.504-61.517-8.56-97.122 13.489-7.156 23.936-19.509 28.593-35.014 5.663-18.856 2.172-38.73-9.578-54.528-2.398-3.224-5.058-6.168-7.941-8.811 2.927-8.06 5.373-16.51 7.325-25.322 3.706-16.735-.309-33.981-11.014-47.317-10.814-13.47-26.845-21.196-43.983-21.196-6.836 0-13.552 1.24-19.99 3.687-2.311-10.911-6.996-20.952-13.474-29.574-24.981 11.289-46.017 29.763-60.48 52.785-14.491-22.917-35.509-41.29-60.436-52.512-6.37 8.56-10.978 18.506-13.264 29.301-6.437-2.447-13.154-3.687-19.99-3.687-17.139 0-33.17 7.725-43.983 21.195-10.706 13.336-14.72 30.582-11.014 47.319 1.952 8.812 4.397 17.262 7.325 25.321-2.882 2.643-5.542 5.587-7.941 8.811-11.75 15.797-15.241 35.672-9.577 54.529 4.657 15.504 15.104 27.856 28.593 35.012-1.056 35.606-3.968 73.059-8.56 97.122-2.909 1.094-5.727 2.377-8.446 3.826 37.253 35.556 79.448 66.296 118.715 87.445 18.222 9.814 40.022 9.783 58.215-.086 39.033-21.172 80.94-51.86 117.967-87.328-2.738-1.461-5.574-2.754-8.502-3.856z" fill="#e26e7e"/><g><circle cx="256.016" cy="94.974" fill="#f2d98d" r="39.403"/><path d="m346.751 189.48c12.06-16.696 19.052-35.868 22.875-53.128 3.531-15.946-12.439-29.327-27.539-23.102-32.372 13.348-57.155 5.763-73.849-6.787-7.268-5.464-17.176-5.464-24.444 0-16.695 12.55-41.477 20.135-73.849 6.787-15.099-6.226-31.07 7.155-27.539 23.102 3.822 17.26 10.815 36.432 22.875 53.128z" fill="#daa985"/><path d="m366.257 396.387c-14.078-35.557-16.33-126.422-16.33-157.789h-187.822c0 31.367-2.252 122.232-16.33 157.789z" fill="#e7c7af"/><path d="m350.438 269.504c-.383-12.633-.51-23.451-.51-30.906h-187.823c0 7.454-.128 18.272-.51 30.906z" fill="#daa985"/><path d="m355.978 158.575h-199.924c-2.338 0-4.649.146-6.928.42 3.947 10.424 9.205 20.866 16.154 30.485h181.471c6.948-9.62 12.207-20.061 16.154-30.485-2.278-.275-4.589-.42-6.927-.42z" fill="#d2896f"/><path d="m358.762 238.598h-205.492c-10.016 0-18.847-6.568-21.728-16.161-4.933-16.424 7.364-32.957 24.513-32.957h199.924c17.148 0 29.446 16.534 24.513 32.957-2.883 9.593-11.714 16.161-21.73 16.161z" fill="#f2d98d"/><path d="m229.371 189.48h-73.318c-17.149 0-29.446 16.534-24.513 32.957 2.881 9.593 11.712 16.161 21.728 16.161h90.308c-17.922-9.879-19.943-35.333-14.205-49.118z" fill="#eec076"/><path d="m369.458 396.387h-226.885c-16.726 0-31.231 11.561-34.962 27.865l-6.336 27.687c-2.641 11.542 6.129 22.546 17.969 22.546h273.542c11.841 0 20.61-11.004 17.969-22.546l-6.336-27.687c-3.729-16.304-18.235-27.865-34.961-27.865z" fill="#daa985"/></g><g><path d="m191.148 334.317c-2.191 1.188-4.816 1.192-7.01.01-12.452-6.706-27.354-21.418-27.372-33.656-.014-9.221 7.45-16.707 16.671-16.721 5.953-.009 11.18 3.102 14.143 7.787 2.949-4.694 8.166-7.82 14.12-7.829 9.221-.014 16.707 7.45 16.721 16.671.017 12.238-14.841 26.994-27.273 33.738z" fill="#e26e7e"/><path d="m320.861 334.123c2.194 1.182 4.819 1.178 7.01-.01 12.432-6.744 27.29-21.5 27.271-33.738-.014-9.221-7.5-16.685-16.721-16.671-5.953.009-11.171 3.135-14.119 7.829-2.963-4.685-8.19-7.796-14.143-7.787-9.221.014-16.685 7.5-16.671 16.721.019 12.238 14.921 26.949 27.373 33.656z" fill="#e26e7e"/><path d="m281.911 324.836c-.025-16.429-11.632-18.283-25.947-18.261-14.315.021-25.917 1.909-25.893 18.339.024 16.429 11.649 29.731 25.964 29.709s25.9-13.358 25.876-29.787z" fill="#4e5660"/></g></g></svg>