<svg id="Capa_1" enable-background="new 0 0 512 512" height="512" viewBox="0 0 512 512" width="512" xmlns="http://www.w3.org/2000/svg"><g><path d="m302.278 504.691-274.548-274.548c-9.745-9.745-9.745-25.544 0-35.289l136.521-136.521c9.745-9.745 25.544-9.745 35.289 0l274.548 274.548c9.745 9.745 9.745 25.544 0 35.289l-136.52 136.521c-9.745 9.745-25.545 9.745-35.29 0z" fill="#b2ecde"/><path d="m474.089 332.881-241.757-241.757c-6.73 10.724-10.639 23.39-10.639 36.958 0 24.978 13.202 46.932 32.992 59.252-3.134 17.344-7.71 39.209-12.941 59.707-17.564 7.345-31.023 22.773-35.493 42.389l-3.122 13.693c-3.652 16.028.133 32.591 10.385 45.442 10.251 12.851 25.559 20.221 41.998 20.221h217.959l.616-.616c9.746-9.745 9.746-25.544.002-35.289z" fill="#8ee2cf"/><path d="m474.089 368.17-32.51 32.51c-23.733-29.149-23.733-71.161 0-100.31l32.51 32.51c9.744 9.746 9.744 25.545 0 35.29z" fill="#8ee2cf"/><path d="m474.089 332.881-32.51-32.51c-15.957 19.598-21.168 45.007-15.668 68.416h47.563l.616-.616c9.743-9.746 9.743-25.545-.001-35.29z" fill="#6ad7be"/><g fill="#8ee2cf"><path d="m337.568 504.691 32.51-32.511c-29.149-23.733-71.161-23.733-100.31 0l32.51 32.51c9.745 9.746 25.545 9.746 35.29.001z"/><path d="m156.018 194.12c-1.919 0-3.839-.732-5.303-2.197l-15.961-15.96c-2.93-2.929-2.93-7.677-.001-10.607 2.93-2.929 7.679-2.93 10.607 0l15.961 15.96c2.93 2.929 2.93 7.677.001 10.606-1.466 1.465-3.386 2.198-5.304 2.198z"/><path d="m361.762 399.864c-1.919 0-3.839-.732-5.304-2.197l-15.96-15.96c-2.929-2.929-2.929-7.678 0-10.606 2.93-2.929 7.678-2.929 10.607 0l15.96 15.96c2.929 2.929 2.929 7.678 0 10.607-1.464 1.464-3.384 2.196-5.303 2.196z"/><ellipse cx="250.909" cy="281.512" rx="80.82" ry="89.273" transform="matrix(.707 -.707 .707 .707 -125.569 259.873)"/></g><path d="m314.035 344.638c31.562-31.562 28.886-85.41-5.977-120.274-15.781-15.781-35.452-24.943-55.185-27.344-2.977 15.421-6.831 33.18-11.128 50.021-17.564 7.345-31.023 22.773-35.493 42.389l-3.122 13.693c-3.652 16.028.133 32.591 10.385 45.442 3.709 4.65 8.088 8.57 12.935 11.695 30.466 12.088 64.821 7.141 87.585-15.622z" fill="#6ad7be"/><path d="m175.248 393.887-36.714-36.714c-4.169-4.169-4.169-10.928 0-15.097l172.94-172.94c4.169-4.169 10.928-4.169 15.097 0l36.714 36.714c4.169 4.169 4.169 10.928 0 15.097l-172.94 172.94c-4.169 4.169-10.928 4.169-15.097 0z" fill="#fbf1cf"/><path d="m363.285 205.851-36.714-36.714c-4.169-4.169-10.928-4.169-15.097 0l-67.049 67.049c-.871 3.639-1.765 7.269-2.68 10.856-17.564 7.345-31.023 22.773-35.493 42.389l-3.122 13.693c-3.652 16.028.133 32.591 10.385 45.442 3.326 4.17 7.192 7.751 11.449 10.703l138.321-138.321c4.168-4.169 4.168-10.928 0-15.097z" fill="#fae0bd"/><path d="m164.251 58.333-32.51 32.511c29.149 23.733 71.161 23.733 100.31 0l-32.51-32.51c-9.746-9.746-25.545-9.746-35.29-.001z" fill="#8ee2cf"/><path d="m27.73 194.854 32.51-32.51c23.733 29.149 23.733 71.161 0 100.31l-32.51-32.51c-9.745-9.746-9.745-25.546 0-35.29z" fill="#8ee2cf"/><g><path d="m459.167 279.44c-11.997-40.032-23.368-99.207-24.704-118.704h-138.481c-1.336 19.497-12.707 78.672-24.704 118.704z" fill="#daa985"/><path d="m438.861 191.641c-2.361-13.294-3.949-24.349-4.398-30.905h-138.481c-.449 6.557-2.037 17.611-4.398 30.905z" fill="#d2896f"/><path d="m491.156 311.363-3.12-13.69c-2.431-10.666-11.916-18.233-22.855-18.233h-119.653c-16.224 16.768-16.957 44.613 13.179 52.26h116.225c10.682 0 18.597-9.922 16.224-20.337z" fill="#f2d98d"/><path d="m345.528 279.44h-80.263c-10.94 0-20.425 7.567-22.855 18.233l-3.12 13.691c-2.374 10.415 5.542 20.337 16.223 20.337h103.194c-11.28-10.39-17.568-30.869-13.179-52.261z" fill="#eec076"/><ellipse cx="365.223" cy="73.418" fill="#daa985" rx="73.418" ry="73.418" transform="matrix(.707 -.707 .707 .707 55.057 279.755)"/><path d="m439.012 95.429h-87.598c-24.721 13.214-28.758 50.925 13.808 65.307h73.789c18.034 0 32.654-14.619 32.654-32.653.001-18.035-14.619-32.654-32.653-32.654z" fill="#f2d98d"/><path d="m351.415 95.429h-59.981c-18.034 0-32.654 14.619-32.654 32.654 0 18.034 14.62 32.654 32.654 32.654h73.789c-12.423-13.783-18.605-48.89-13.808-65.308z" fill="#eec076"/></g></g></svg>