<svg id="Capa_1" enable-background="new 0 0 512 512" height="512" viewBox="0 0 512 512" width="512" xmlns="http://www.w3.org/2000/svg"><g><path d="m56.574 276.583-25.914-25.915c-8.869-8.869-8.869-23.248 0-32.117l157.505-157.504c8.869-8.869 23.248-8.869 32.117 0l201.968 201.968c24.618 24.618 24.618 64.531 0 89.149l-141.373 141.373c-24.618 24.618-64.531 24.618-89.149 0l-159.996-159.996c-8.869-8.869-8.869-23.248 0-32.117z" fill="#fbf1cf"/><path d="m157.966 91.246-127.306 127.306c-8.869 8.869-8.869 23.248 0 32.117l25.914 25.914-24.842 24.842c-8.869 8.869-8.869 23.248 0 32.117l159.995 159.995c24.618 24.618 64.531 24.618 89.149 0l42.677-42.677c-135.64-38.139-185.162-232.875-165.587-359.614z" fill="#fae0bd"/><path d="m31.733 301.424c-8.869 8.869-8.869 23.248 0 32.117l129.445 129.445c17.146 17.146 56.473 11.011 56.473-25.327l-161.077-161.076z" fill="#eec076"/><path d="m243.417 156.652-33.407-33.407c-4.522-4.522-11.854-4.522-16.376 0l-100.776 100.776c-4.522 4.522-4.522 11.854 0 16.376l33.407 33.407c4.522 4.522 11.854 4.522 16.376 0l100.776-100.776c4.522-4.522 4.522-11.854 0-16.376z" fill="#b2ecde"/><path d="m154.133 162.745-61.276 61.276c-4.522 4.522-4.522 11.854 0 16.376l33.407 33.407c4.522 4.522 11.854 4.522 16.376 0l23.311-23.311c-6.909-29.203-10.798-59.047-11.818-87.748z" fill="#8ee2cf"/><g fill="#4e5660"><path d="m173 311.9c-1.919 0-3.839-.732-5.303-2.196-2.929-2.93-2.929-7.678 0-10.607l101.013-101.013c2.929-2.928 7.678-2.928 10.606 0 2.929 2.93 2.929 7.678 0 10.607l-101.013 101.013c-1.464 1.464-3.384 2.196-5.303 2.196z"/><path d="m207.093 345.993c-1.92 0-3.839-.732-5.303-2.196-2.929-2.93-2.929-7.678 0-10.607l101.013-101.013c2.929-2.928 7.678-2.928 10.607 0 2.929 2.93 2.929 7.678 0 10.607l-101.014 101.013c-1.464 1.464-3.383 2.196-5.303 2.196z"/><path d="m301.105 320.167c-1.919 0-3.839-.732-5.303-2.196-2.929-2.93-2.929-7.678 0-10.607l35.095-35.095c2.929-2.929 7.678-2.927 10.606 0 2.929 2.93 2.929 7.678 0 10.607l-35.095 35.095c-1.464 1.464-3.384 2.196-5.303 2.196z"/><path d="m335.198 354.261c-1.919 0-3.839-.732-5.303-2.196-2.929-2.93-2.929-7.678 0-10.608l35.095-35.095c2.929-2.93 7.678-2.929 10.606-.001 2.929 2.93 2.929 7.678 0 10.608l-35.095 35.095c-1.464 1.464-3.383 2.197-5.303 2.197z"/></g><path d="m283.7 398.254 13.211-13.211c4.652-4.652 4.652-12.194 0-16.846l-17.247-17.247c-4.652-4.652-12.194-4.652-16.846 0l-13.21 13.211c-4.652 4.652-4.652 12.194 0 16.846l17.247 17.247c4.651 4.652 12.193 4.652 16.845 0z" fill="#e7889d"/><g><path d="m463.95 207.276c-8.898-29.694-17.333-73.588-18.324-88.049h-102.72c-.991 14.462-9.426 58.356-18.324 88.049z" fill="#daa985"/><path d="m475.644 246.04h-162.756c-7.923 0-13.794-7.359-12.034-15.085l2.314-10.155c1.803-7.911 8.839-13.524 16.953-13.524h148.289c8.115 0 15.15 5.613 16.953 13.524l2.314 10.155c1.761 7.726-4.11 15.085-12.033 15.085z" fill="#f2d98d"/><path d="m379.658 207.276h-59.536c-8.115 0-15.15 5.613-16.953 13.524l-2.314 10.155c-1.76 7.725 4.111 15.085 12.034 15.085h76.545c-8.368-7.705-13.032-22.896-9.776-38.764z" fill="#eec076"/><circle cx="394.266" cy="54.458" fill="#daa985" r="54.458"/><path d="m450.363 150.133c-2.56-13.369-4.318-24.781-4.738-30.906h-102.718c-.42 6.125-2.178 17.537-4.738 30.906z" fill="#d2896f"/><path d="m449 70.785h-109.468c-13.377 0-24.221 10.844-24.221 24.221 0 13.377 10.844 24.221 24.221 24.221h109.468c13.377 0 24.221-10.844 24.221-24.221 0-13.377-10.844-24.221-24.221-24.221z" fill="#f2d98d"/><path d="m384.024 70.785h-44.491c-13.377 0-24.221 10.844-24.221 24.221s10.844 24.221 24.221 24.221h54.734c-9.216-10.223-13.802-36.264-10.243-48.442z" fill="#eec076"/></g></g></svg>