<svg id="Capa_1" enable-background="new 0 0 512 512" height="512" viewBox="0 0 512 512" width="512" xmlns="http://www.w3.org/2000/svg"><g><path d="m86.596 512c-36.722 0-66.597-29.874-66.597-66.595v-338.81c0-36.721 29.875-66.595 66.597-66.595h338.809c36.722 0 66.597 29.874 66.597 66.595v338.81c0 36.721-29.875 66.595-66.597 66.595z" fill="#daa985"/><path d="m93.081 119.374c0 51.071 19.961 81.337 36 105.656 9.257 14.036 16.767 25.423 20.625 39.997-12.427 10.256-20.359 25.77-20.359 43.103v19.781c0 37.7 25.329 69.596 59.864 79.56 3.333 7.363 7.772 14.051 13.21 19.792 13.534 14.286 32.562 22.153 53.58 22.153s40.046-7.867 53.58-22.153c5.438-5.741 9.877-12.429 13.21-19.792 34.535-9.965 59.864-41.86 59.864-79.56v-19.781c0-17.333-7.932-32.847-20.359-43.103 3.858-14.574 11.368-25.961 20.625-39.997 16.039-24.319 36-54.585 36-105.656 0-28.98-8.365-56.127-22.9-79.375h-280.041c-14.534 23.248-22.899 50.395-22.899 79.375z" fill="#d2896f"/><g><path d="m425.405 473.246h-338.809c-15.377 0-27.842-12.465-27.842-27.842v-338.809c0-15.377 12.465-27.842 27.842-27.842h338.809c15.377 0 27.842 12.465 27.842 27.842v338.809c0 15.377-12.466 27.842-27.842 27.842z" fill="#fbf1cf"/><path d="m93.081 119.374c0 51.071 19.961 81.337 36 105.656 9.257 14.036 16.767 25.423 20.625 39.997-12.427 10.256-20.359 25.77-20.359 43.103v19.781c0 37.7 25.329 69.596 59.864 79.56 3.333 7.363 7.772 14.051 13.21 19.792 13.534 14.286 32.562 22.153 53.58 22.153s40.046-7.867 53.58-22.153c5.438-5.741 9.877-12.429 13.21-19.792 34.535-9.965 59.864-41.86 59.864-79.56v-19.781c0-17.333-7.932-32.847-20.359-43.103 3.858-14.574 11.368-25.961 20.625-39.997 16.039-24.319 36-54.585 36-105.656 0-14.05-1.976-27.667-5.656-40.622h-314.528c-3.681 12.955-5.656 26.572-5.656 40.622z" fill="#fae0bd"/><path d="m190.251 210.251h-131.498v-103.656c0-15.377 12.465-27.842 27.842-27.842h103.656z" fill="#4e5660"/><path d="m93.081 119.374c0 41.262 13.03 68.94 26.493 90.876h70.677v-131.497h-91.505c-3.683 12.954-5.665 26.569-5.665 40.621z" fill="#404656"/><path d="m453.247 210.251h-131.498v-131.498h103.656c15.377 0 27.842 12.465 27.842 27.842z" fill="#4e5660"/><path d="m418.919 119.374c0-14.052-1.982-27.667-5.666-40.622h-91.505v131.498h70.677c13.465-21.936 26.494-49.614 26.494-90.876z" fill="#404656"/><path d="m190.251 210.251h131.498v131.498h-131.498z" fill="#4e5660"/><path d="m190.251 473.246h-103.655c-15.377 0-27.842-12.465-27.842-27.842v-103.656h131.498v131.498z" fill="#4e5660"/><path d="m189.21 407.471c.333.736.686 1.46 1.041 2.182v-67.905h-59.748c5.321 31.496 28.49 57.004 58.707 65.723z" fill="#404656"/><path d="m425.405 473.246h-103.656v-131.498h131.498v103.656c0 15.377-12.466 27.842-27.842 27.842z" fill="#4e5660"/><path d="m321.749 341.748v67.905c.355-.722.708-1.446 1.041-2.182 30.217-8.719 53.386-34.227 58.708-65.722h-59.749z" fill="#404656"/></g><g><path d="m323.417 288.313c0-77.666 59.446-89.01 59.446-168.939 0-65.928-56.799-119.374-126.863-119.374s-126.863 53.446-126.863 119.374c0 79.929 59.446 91.274 59.446 168.939z" fill="#f2d98d"/><path d="m293.937 373.009c0-23.422-16.985-42.41-37.937-42.41s-37.937 18.988-37.937 42.41 14.194 40.35 37.937 40.35 37.937-16.927 37.937-40.35z" fill="#4e5660"/><path d="m328.444 252.258h-144.888c3.12 10.416 5.027 22.172 5.027 36.056h134.835c-.001-13.884 1.906-25.641 5.026-36.056z" fill="#eec076"/><path d="m299.866 374.641h-87.733c-25.809 0-46.731-20.922-46.731-46.731v-19.78c0-10.944 8.872-19.817 19.816-19.817h141.562c10.944 0 19.816 8.872 19.816 19.817v19.78c.002 25.809-20.921 46.731-46.73 46.731z" fill="#b2ecde"/><path d="m185.219 288.313c-10.944 0-19.816 8.872-19.816 19.817v19.78c0 25.809 20.922 46.731 46.731 46.731h44.232c-34.986-10.631-35.456-64.469-31.218-86.328z" fill="#8ee2cf"/><path d="m282.332 167.926c-2.748 0-5.276-1.503-6.589-3.917l-19.743-36.309-19.744 36.309c-1.313 2.414-3.841 3.917-6.589 3.917-2.748 0-5.276-1.503-6.589-3.917l-26.332-48.426c-1.979-3.64-.633-8.193 3.006-10.172 3.64-1.98 8.193-.633 10.172 3.006l19.743 36.309 19.744-36.309c1.313-2.414 3.841-3.917 6.589-3.917s5.276 1.503 6.589 3.917l19.744 36.309 19.743-36.309c1.978-3.639 6.531-4.986 10.172-3.006 3.639 1.979 4.985 6.532 3.006 10.172l-26.332 48.426c-1.313 2.414-3.841 3.917-6.59 3.917z" fill="#eec076"/></g></g></svg>