<svg id="Capa_1" enable-background="new 0 0 512 512" height="512" viewBox="0 0 512 512" width="512" xmlns="http://www.w3.org/2000/svg"><g><path d="m377.574 512c15.202 0 26.729-13.861 23.793-28.776-13.395-68.053-73.387-119.384-145.367-119.384s-131.972 51.33-145.367 119.384c-2.936 14.915 8.591 28.776 23.793 28.776z" fill="#a3defe"/><g fill="#7acefa"><ellipse cx="73.56" cy="266.789" rx="63.851" ry="57.688"/><ellipse cx="438.44" cy="266.789" rx="63.851" ry="57.688"/><path d="m256 462.297c46.141 0 89.53-10.017 125.756-28.663-26.171-41.909-72.706-69.794-125.756-69.794s-99.585 27.885-125.756 69.794c36.226 18.646 79.615 28.663 125.756 28.663z"/></g><path d="m449.83 266.789c0-99.667-66.959-180.462-193.83-180.462s-193.83 80.795-193.83 180.462c0 99.666 86.78 159.452 193.83 159.452s193.83-59.786 193.83-159.452z" fill="#a3defe"/><path d="m376.741 267.939c9.276-11.626 12.699-26.61 9.395-41.112l-2.354-10.33c-3.644-15.982-14.008-28.833-27.742-35.878-3.004-12.161-5.697-24.817-7.758-35.662 9.879-7.501 17.384-17.961 21.216-30.04-29.83-18.092-67.771-28.591-113.498-28.591s-83.668 10.498-113.499 28.59c3.833 12.08 11.338 22.539 21.217 30.04-2.062 10.845-4.755 23.501-7.759 35.662-13.733 7.046-24.1 19.898-27.742 35.882l-2.354 10.327c-3.304 14.501.121 29.485 9.395 41.111 9.275 11.626 23.124 18.294 37.996 18.294h165.491c14.873 0 28.722-6.668 37.996-18.293z" fill="#7acefa"/><g><path d="m326.855 210.76c-9.048-30.193-17.625-74.825-18.632-89.529h-104.446c-1.008 14.705-9.584 59.336-18.632 89.529z" fill="#daa985"/><path d="m338.746 250.176h-165.492c-8.056 0-14.026-7.483-12.236-15.338l2.353-10.326c1.833-8.044 8.987-13.752 17.238-13.752h150.781c8.251 0 15.405 5.707 17.238 13.752l2.353 10.326c1.791 7.855-4.179 15.338-12.235 15.338z" fill="#f2d98d"/><ellipse cx="256" cy="55.374" fill="#daa985" rx="55.374" ry="55.374" transform="matrix(.707 -.707 .707 .707 35.826 197.238)"/><path d="m311.654 71.975h-111.308c-13.602 0-24.628 11.026-24.628 24.628 0 13.602 11.026 24.628 24.628 24.628h111.308c13.602 0 24.628-11.026 24.628-24.628 0-13.602-11.027-24.628-24.628-24.628z" fill="#f2d98d"/></g><g><g><ellipse cx="174.042" cy="339.364" fill="#fff" rx="30.241" ry="24.082"/><ellipse cx="337.958" cy="339.364" fill="#fff" rx="30.241" ry="24.082"/><path d="m256 313.777c-11.997 0-22.681-8.062-29.401 1.88-6.816 10.085 8.45 25.723 29.401 25.723s36.217-15.638 29.401-25.723c-6.72-9.942-17.404-1.88-29.401-1.88z" fill="#4e5660"/></g><g fill="#4e5660"><path d="m191.666 322.017c-7.283 0-14.208-3.153-19.001-8.652-2.721-3.123-2.396-7.86.727-10.582 3.124-2.721 7.86-2.396 10.582.727 1.942 2.23 4.747 3.508 7.692 3.508 2.946 0 5.75-1.278 7.693-3.508 2.722-3.123 7.459-3.448 10.581-.726 3.123 2.721 3.448 7.459.726 10.581-4.791 5.498-11.717 8.652-19 8.652z"/><path d="m320.334 322.017c-7.284 0-14.21-3.153-19.002-8.652-2.722-3.123-2.396-7.86.727-10.582 3.122-2.721 7.859-2.396 10.582.727 1.942 2.23 4.747 3.508 7.693 3.508 2.945 0 5.75-1.278 7.693-3.509 2.721-3.123 7.458-3.447 10.582-.725 3.122 2.722 3.446 7.459.725 10.582-4.793 5.497-11.719 8.651-19 8.651z"/></g></g></g></svg>