<svg id="Capa_1" enable-background="new 0 0 512 512" height="512" viewBox="0 0 512 512" width="512" xmlns="http://www.w3.org/2000/svg"><g><path d="m87.428 307.728v-170.128c0-28.037 22.728-50.765 50.765-50.765h259.459c28.037 0 50.765 22.728 50.765 50.765v170.127c0 28.037-22.728 50.765-50.765 50.765h-259.459c-28.036.001-50.765-22.728-50.765-50.764z" fill="#4e5660"/><path d="m397.652 358.493c28.037 0 50.765-22.728 50.765-50.765v-112.936c-9.816-4.578-20.749-7.15-32.275-7.15-39.814 0-72.633 30.52-76.287 69.395-12.669 9.337-20.903 24.36-20.903 41.271 0 16.392 7.738 31.012 19.754 40.398-1.173 6.124-2.587 12.92-4.153 19.786h63.099z" fill="#404656"/><path d="m395.446 317.849h-255.046c-6.808 0-12.327-5.519-12.327-12.327v-165.716c0-6.808 5.519-12.327 12.327-12.327h255.046c6.808 0 12.327 5.519 12.327 12.327v165.716c0 6.808-5.519 12.327-12.327 12.327z" fill="#b2ecde"/><path d="m407.773 305.522v-117.409c-35.957 3.926-64.523 32.812-67.917 68.924-12.669 9.337-20.903 24.36-20.903 41.271 0 6.918 1.392 13.514 3.889 19.541h72.605c6.807 0 12.326-5.519 12.326-12.327z" fill="#8ee2cf"/><g><g fill="#fff"><ellipse cx="184.593" cy="233.995" rx="30.654" ry="24.411"/><path d="m320.092 234.112c-.012 13.482 13.703 24.423 30.632 24.437 16.93.015 30.663-10.903 30.675-24.384s-13.703-24.423-30.633-24.438c-16.928-.014-30.662 10.903-30.674 24.385z"/></g><g fill="#4e5660"><path d="m202.479 217.856c-.002 0-.003 0-.006 0-4.142-.003-7.497-3.363-7.494-7.506l.009-12.235c.003-4.14 3.36-7.494 7.5-7.494h.006c4.142.003 7.497 3.363 7.494 7.506l-.009 12.235c-.003 4.14-3.36 7.494-7.5 7.494z"/><path d="m332.902 217.983c-.002 0-.003 0-.006 0-4.142-.003-7.497-3.363-7.494-7.506l.009-12.234c.003-4.14 3.36-7.494 7.5-7.494h.006c4.142.003 7.497 3.363 7.494 7.506l-.009 12.234c-.003 4.14-3.36 7.494-7.5 7.494z"/><path d="m284.878 223.366c-.002 0-.004 0-.007 0l-34.386-.029c-4.142-.004-7.497-3.364-7.493-7.507.004-4.14 3.36-7.493 7.5-7.493h.007l34.386.029c4.142.004 7.497 3.364 7.493 7.507-.004 4.14-3.361 7.493-7.5 7.493z"/></g></g><path d="m416.092 512h-296.338c-17.853 0-32.325-14.473-32.325-32.325v-41.435c0-17.853 14.473-32.325 32.325-32.325h296.338c17.853 0 32.325 14.473 32.325 32.325v41.435c0 17.852-14.473 32.325-32.325 32.325z" fill="#4e5660"/><path d="m448.417 438.24c0-17.853-14.473-32.325-32.325-32.325h-108.571c-2.677 12.206.241 24.785 8.043 34.566 7.874 9.87 19.633 15.531 32.26 15.531h100.594v-17.772z" fill="#404656"/><path d="m160.136 358.493h215.573v47.422h-215.573z" fill="#404656"/><path d="m375.709 466.457h-79.114c-4.143 0-7.5-3.357-7.5-7.5 0-4.142 3.357-7.5 7.5-7.5h79.114c4.143 0 7.5 3.358 7.5 7.5 0 4.143-3.358 7.5-7.5 7.5z" fill="#8ee2cf"/><circle cx="188.224" cy="458.957" fill="#e7889d" r="19.283"/><path d="m158.96 165.866c-1.919 0-3.839-.732-5.304-2.196l-107.214-107.214c-2.929-2.93-2.929-7.678 0-10.608 2.93-2.928 7.678-2.928 10.608 0l107.214 107.214c2.929 2.93 2.929 7.678 0 10.607-1.465 1.465-3.385 2.197-5.304 2.197z" fill="#e7889d"/><ellipse cx="51.746" cy="51.152" fill="#a3defe" rx="32.736" ry="32.736" transform="matrix(.23 -.973 .973 .23 -9.927 89.761)"/><path d="m154.606 41.886h-34.298c-4.143 0-7.5-3.357-7.5-7.5 0-4.142 3.357-7.5 7.5-7.5h34.298c4.143 0 7.5 3.358 7.5 7.5s-3.357 7.5-7.5 7.5z" fill="#b0ade2"/><path d="m51.746 134.979h-27.073c-4.143 0-7.5-3.357-7.5-7.5s3.357-7.5 7.5-7.5h27.073c4.143 0 7.5 3.357 7.5 7.5 0 4.142-3.357 7.5-7.5 7.5z" fill="#b0ade2"/><path d="m229.706 0h-27.152c-5.382 0-9.745 4.363-9.745 9.745v27.152c0 5.382 4.363 9.745 9.745 9.745h27.152c5.382 0 9.745-4.363 9.745-9.745v-27.152c0-5.382-4.363-9.745-9.745-9.745z" fill="#8ee2cf"/><g><path d="m474.643 392.562c-7.47-24.929-14.552-61.779-15.384-73.92h-86.236c-.832 12.141-7.913 48.991-15.384 73.92z" fill="#daa985"/><path d="m484.461 425.106h-136.638c-6.652 0-11.581-6.178-10.103-12.664l1.943-8.525c1.514-6.642 7.42-11.354 14.233-11.354h124.493c6.812 0 12.719 4.712 14.233 11.354l1.943 8.525c1.477 6.486-3.452 12.664-10.104 12.664z" fill="#f2d98d"/><path d="m403.878 392.562h-49.982c-6.813 0-12.719 4.712-14.233 11.354l-1.943 8.526c-1.478 6.486 3.451 12.664 10.103 12.664h64.262c-7.025-6.469-10.941-19.222-8.207-32.544z" fill="#eec076"/><circle cx="416.142" cy="264.267" fill="#daa985" r="45.719"/><path d="m462.093 277.974h-91.901c-11.23 0-20.334 9.104-20.334 20.334 0 11.23 9.104 20.334 20.334 20.334h91.901c11.23 0 20.334-9.104 20.334-20.334 0-11.23-9.104-20.334-20.334-20.334z" fill="#f2d98d"/><path d="m407.543 277.974h-37.352c-11.23 0-20.334 9.104-20.334 20.334s9.104 20.334 20.334 20.334h45.951c-7.736-8.582-11.586-30.444-8.599-40.668z" fill="#eec076"/></g></g></svg>