<svg id="Capa_1" enable-background="new 0 0 512 512" height="512" viewBox="0 0 512 512" width="512" xmlns="http://www.w3.org/2000/svg"><g><path d="m187.915 200.522c-1.077-44.122-37.947-79.564-82.079-78.998-48.806.626-85.375 43.851-79.346 91.12.767 6.01-.951 12.124-5.061 16.576-24.903 26.97-28.334 67.252-9.068 97.898 4.237 6.74 4.174 15.237-.052 21.984-8.184 13.065-12.748 28.627-12.274 45.288 1.217 42.832 36.224 77.652 79.063 78.65 45.635 1.063 82.962-35.613 82.962-81.007 0-20.733-7.797-39.639-20.606-53.969 18.135-20.29 24.706-47.984 18.115-73.958 17.831-15.268 28.967-38.128 28.346-63.584z" fill="#b2ecde"/><path d="m162.06 392.033c0-20.733-7.797-39.639-20.606-53.969 18.135-20.29 24.706-47.984 18.115-73.958 17.831-15.267 28.967-38.127 28.346-63.583-1.077-44.122-37.947-79.564-82.078-78.998-2.332.03-4.636.159-6.909.379-.934 7.603-.333 15.397 1.881 22.876.728 2.459 1.46 5 2.182 7.578-16.197 10.17-26.986 28.194-26.986 48.693l.001 12.087c0 14.467 5.398 28.291 15.2 38.925 2.639 2.863 5.534 5.428 8.638 7.669-1.157 38.674-5.123 93.21-14.597 127.889-12.373 8.67-21.587 21.233-26.135 36.063l-6.456 21.056c-2.255 7.357-2.986 14.883-2.293 22.234 8.914 3.68 18.6 5.829 28.735 6.065 45.634 1.063 82.962-35.612 82.962-81.006z" fill="#8ee2cf"/><path d="m324.085 200.522c1.077-44.122 37.947-79.564 82.079-78.998 48.806.626 85.375 43.851 79.346 91.12-.766 6.01.951 12.124 5.061 16.576 24.903 26.97 28.334 67.252 9.068 97.898-4.237 6.74-4.174 15.237.052 21.984 8.184 13.065 12.748 28.627 12.275 45.288-1.217 42.832-36.224 77.652-79.063 78.65-45.635 1.063-82.962-35.613-82.962-81.007 0-20.733 7.797-39.639 20.606-53.969-18.135-20.29-24.706-47.984-18.115-73.958-17.832-15.268-28.968-38.128-28.347-63.584z" fill="#b2ecde"/><g fill="#8ee2cf"><path d="m461.638 466.975c.693-7.351-.039-14.877-2.295-22.233l-6.455-21.057c-4.547-14.83-13.761-27.392-26.134-36.063-9.475-34.678-13.441-89.215-14.598-127.888 3.104-2.242 5.999-4.807 8.638-7.669 9.803-10.634 15.201-24.458 15.201-38.926v-12.09c0-20.497-10.789-38.52-26.986-48.69.722-2.577 1.454-5.119 2.181-7.576 2.215-7.48 2.816-15.274 1.882-22.878-2.273-.22-4.577-.349-6.909-.379-44.131-.566-81.001 34.876-82.079 78.998-.622 25.456 10.515 48.316 28.346 63.583-6.591 25.974-.02 53.668 18.115 73.958-12.809 14.331-20.606 33.236-20.606 53.969 0 45.394 37.327 82.069 82.962 81.007 10.136-.237 19.822-2.386 28.737-6.066z"/><path d="m156.549 90.109c26.47 26.47 38.551 62.05 44.058 89.809 4.6 23.187-15.828 43.614-39.014 39.014-27.759-5.507-63.339-17.589-89.809-44.058-26.47-26.47-38.551-62.05-44.058-89.809-4.6-23.186 15.828-43.614 39.014-39.014 27.759 5.506 63.339 17.588 89.809 44.058z"/><path d="m156.549 90.109c26.47 26.47 38.551 62.05 44.058 89.809 4.6 23.187-15.828 43.614-39.014 39.014-27.759-5.507-63.339-17.589-89.809-44.058-26.47-26.47-38.551-62.05-44.058-89.809-4.6-23.186 15.828-43.614 39.014-39.014 27.759 5.506 63.339 17.588 89.809 44.058z"/></g><path d="m200.607 179.918c-5.507-27.759-17.589-63.339-44.058-89.809-5.718-5.718-11.863-10.762-18.26-15.216-13.172 4.072-24.526 12.878-31.699 24.769-8.16 13.523-10.267 29.969-5.782 45.118.728 2.459 1.46 5 2.182 7.578-10.871 6.826-19.299 17.193-23.671 29.469 25.425 21.685 57.072 32.106 82.274 37.105 23.186 4.6 43.614-15.827 39.014-39.014z" fill="#6ad7be"/><path d="m159.004 310.158c37.434 0 71.136 16.616 94.658 32.351 19.648 13.143 19.648 42.032 0 55.174-23.523 15.735-57.225 32.351-94.658 32.351-37.434 0-71.136-16.616-94.659-32.351-19.648-13.143-19.648-42.032 0-55.174 23.523-15.735 57.225-32.351 94.659-32.351z" fill="#8ee2cf"/><path d="m152.676 429.87c5.979-11.297 9.384-24.166 9.384-37.837 0-20.733-7.797-39.639-20.606-53.969 7.393-8.272 12.863-17.774 16.304-27.888-22.551.222-43.713 6.423-62.071 14.766-2.321 22.884-5.687 45.281-10.44 62.68-5.61 3.931-10.562 8.669-14.733 14.049 21.64 13.537 50.387 26.629 82.162 28.199z" fill="#6ad7be"/><path d="m155.041 180.866c-1.919 0-3.839-.732-5.304-2.196l-68.437-68.437c-2.929-2.93-2.929-7.678 0-10.607 2.93-2.928 7.678-2.928 10.607 0l68.438 68.438c2.929 2.93 2.929 7.678 0 10.607-1.465 1.463-3.385 2.195-5.304 2.195z" fill="#6ad7be"/><path d="m460.413 318.365c-26.47 26.47-62.05 38.551-89.809 44.058-23.187 4.6-43.614-15.828-39.014-39.014 5.507-27.759 17.589-63.339 44.058-89.809 26.47-26.47 62.05-38.551 89.809-44.058 23.187-4.6 43.614 15.828 39.014 39.014-5.507 27.759-17.588 63.339-44.058 89.809z" fill="#8ee2cf"/><path d="m412.157 259.733c3.104-2.242 5.999-4.807 8.638-7.669 9.803-10.634 15.201-24.458 15.201-38.926v-12.09c0-1.199-.04-2.389-.113-3.57-20.778 7.169-42.541 18.428-60.235 36.122-26.47 26.47-38.552 62.05-44.058 89.809-4.6 23.187 15.828 43.614 39.014 39.014 14.744-2.925 31.694-7.705 48.313-15.51-4.001-29.113-5.995-61.612-6.76-87.18z" fill="#6ad7be"/><path d="m377.156 324.357c-1.919 0-3.839-.732-5.304-2.196-2.929-2.93-2.929-7.678 0-10.608l68.437-68.436c2.93-2.928 7.678-2.928 10.607 0 2.929 2.93 2.929 7.678 0 10.607l-68.436 68.436c-1.465 1.464-3.385 2.197-5.304 2.197z" fill="#6ad7be"/><path d="m402.579 412.926c-18.718-46.816-21.713-144.461-21.713-176.632h-249.733c0 32.172-2.995 129.816-21.713 176.633h293.159z" fill="#daa985"/><path d="m387.206 406.028h-262.411c-16.606 0-31.267 10.84-36.134 26.716l-6.457 21.056c-5.188 16.922 7.468 34.039 25.167 34.039h297.258c17.699 0 30.354-17.117 25.167-34.039l-6.455-21.056c-4.869-15.877-19.529-26.716-36.135-26.716z" fill="#e7c7af"/><path d="m268.398 45.029h-4.898v-13.368c0-4.142-3.357-7.5-7.5-7.5s-7.5 3.358-7.5 7.5v13.368h-4.898c-4.143 0-7.5 3.357-7.5 7.5s3.357 7.5 7.5 7.5h4.898v34.85c0 4.143 3.357 7.5 7.5 7.5s7.5-3.357 7.5-7.5v-34.85h4.898c4.143 0 7.5-3.357 7.5-7.5s-3.357-7.5-7.5-7.5z" fill="#e7c7af"/><path d="m131.682 140.264s29.542 22.998 124.317 22.998c94.772 0 124.315-22.996 124.318-22.998.413-1.437.826-2.86 1.24-4.257 4.261-14.393-4.768-29.288-19.488-32.229-37.639-7.52-83.441-8.899-106.07-8.899s-68.43 1.379-106.07 8.899c-14.72 2.941-23.749 17.837-19.488 32.229.415 1.397.829 2.821 1.241 4.257z" fill="#daa985"/><path d="m140.46 174.504h231.08c2.139-9.74 5.413-22.525 8.778-34.24h-248.635c3.364 11.715 6.638 24.5 8.777 34.24z" fill="#d2896f"/><path d="m131.134 236.294c0 8.602-.215 21.888-.886 37.628h251.505c-.671-15.741-.886-29.026-.886-37.628z" fill="#d2896f"/><path d="m378.546 174.504h-159.986c-31.786 8.789-30.621 58.642 16.578 65.179h143.408c14.66 0 26.544-11.884 26.544-26.544v-12.091c0-14.66-11.884-26.544-26.544-26.544z" fill="#f2d98d"/><path d="m133.454 174.504c-14.66 0-26.544 11.884-26.544 26.544v12.091c0 14.66 11.884 26.544 26.544 26.544h101.685c-18.951-15.296-22.119-47.5-16.578-65.179z" fill="#eec076"/><g><g fill="#fff"><ellipse cx="169.913" cy="342.207" rx="31.765" ry="25.296"/><ellipse cx="342.087" cy="342.207" rx="31.765" ry="25.296"/></g><g fill="#4e5660"><path d="m188.425 325.045c-4.143 0-7.5-3.357-7.5-7.5v-12.362c0-4.143 3.357-7.5 7.5-7.5s7.5 3.357 7.5 7.5v12.362c0 4.143-3.358 7.5-7.5 7.5z"/><path d="m256 333.086c-8.995 0-17.55-3.896-23.47-10.688-2.722-3.123-2.395-7.86.727-10.582 3.122-2.721 7.859-2.395 10.582.727 3.07 3.523 7.503 5.544 12.161 5.544 4.659 0 9.092-2.021 12.161-5.543 2.721-3.124 7.458-3.449 10.581-.728s3.449 7.458.728 10.581c-5.919 6.793-14.474 10.689-23.47 10.689z"/><path d="m340.287 324.7c-4.143 0-7.5-3.357-7.5-7.5 0-3.764-3.061-6.826-6.825-6.826s-6.826 3.063-6.826 6.826c0 4.143-3.357 7.5-7.5 7.5-4.142 0-7.5-3.357-7.5-7.5 0-12.035 9.791-21.826 21.826-21.826 12.034 0 21.825 9.791 21.825 21.826 0 4.143-3.357 7.5-7.5 7.5z"/></g></g></g></svg>