<svg id="Capa_1" enable-background="new 0 0 512 512" height="512" viewBox="0 0 512 512" width="512" xmlns="http://www.w3.org/2000/svg"><g><path d="m436.584 191.063h-418.567v-54.165c0-32.212 26.113-58.325 58.325-58.325h301.917c32.212 0 58.325 26.113 58.325 58.325z" fill="#e7c7af"/><path d="m76.342 78.573c-32.212 0-58.325 26.113-58.325 58.325v54.165h81.905c.11-34.724.632-72.253.687-112.49z" fill="#daa985"/><path d="m436.584 191.063h-418.567v187.211c0 52.481 42.545 95.026 95.026 95.026h228.516c52.481 0 95.026-42.544 95.026-95.026v-187.211z" fill="#fbf1cf"/><path d="m253.534 473.3h88.025c52.481 0 95.026-42.544 95.026-95.026v-168.78h-14.067c-15.158 0-28.517 7.861-36.21 19.72-7.694-11.859-21.052-19.72-36.21-19.72h-42.496c-23.782 0-43.131 19.348-43.131 43.131v19.771c0 9.392 1.705 18.527 5.075 27.217-4.659 6.935-7.381 15.276-7.381 24.24v4.845c0 16.02 7.991 30.207 20.197 38.786-3.553 22.357-8.937 40.131-12.38 50.093-4.071 11.78-4.831 24.225-2.339 36.177-6.022 5.298-10.886 11.943-14.109 19.546z" fill="#fae0bd"/><path d="m18.017 191.063v187.211c0 52.481 42.545 95.026 95.026 95.026h72.943c-79.672-40.208-86.527-136.564-86.064-282.237z" fill="#fae0bd"/><path d="m227.301 433.377c-55.799 0-101.195-45.397-101.195-101.195 0-55.799 45.396-101.194 101.195-101.194s101.195 45.396 101.195 101.194-45.396 101.195-101.195 101.195zm0-187.39c-47.528 0-86.195 38.667-86.195 86.194 0 47.528 38.667 86.195 86.195 86.195s86.195-38.667 86.195-86.195c0-47.527-38.667-86.194-86.195-86.194z" fill="#e7889d"/><path d="m80.467 78.573c0-43.326 35.248-78.573 78.574-78.573s78.574 35.247 78.574 78.573-35.248 78.574-78.574 78.574c-10.215 0-18.495-8.281-18.495-18.495s8.28-18.495 18.495-18.495c22.929 0 41.584-18.655 41.584-41.584s-18.655-41.583-41.584-41.583-41.584 18.654-41.584 41.583z" fill="#4e5660"/><path d="m269.203 78.573c0-43.326 35.248-78.573 78.573-78.573 43.326 0 78.573 35.247 78.573 78.573s-35.248 78.574-78.573 78.574c-10.215 0-18.495-8.281-18.495-18.495s8.28-18.495 18.495-18.495c22.929 0 41.584-18.655 41.584-41.584s-18.654-41.583-41.584-41.583c-22.929 0-41.584 18.654-41.584 41.583z" fill="#4e5660"/><g><path d="m464.85 471.114 7.165-15.516c4.054-8.78 4.567-18.785 1.407-27.926-5.634-16.3-14.176-46.024-16.856-82.501h-140.518c-2.68 36.477-11.222 66.202-16.856 82.501-3.159 9.141-2.647 19.146 1.408 27.926l7.165 15.516z" fill="#daa985"/><path d="m463.921 311.185 9.266-20.222c2.669-5.826 4.051-12.159 4.051-18.567v-19.77c0-6.752-5.473-12.225-12.225-12.225h-42.496c-6.752 0-12.225 5.473-12.225 12.225v12.491c0 5.536-4.487 10.023-10.023 10.023h-27.924c-5.536 0-10.023-4.487-10.023-10.023v-12.491c0-6.752-5.474-12.225-12.225-12.225h-42.497c-6.752 0-12.225 5.473-12.225 12.225v19.77c0 6.408 1.382 12.741 4.051 18.567l9.266 20.222z" fill="#daa985"/><path d="m456.566 345.171h-140.518c-.812 11.047-2.163 21.47-3.806 31.093h148.132c-1.645-9.623-2.996-20.046-3.808-31.093z" fill="#d2896f"/><path d="m466.876 311.185h-113.057c-14.19 7.241-12.731 27.114 9.464 33.985h99.79c9.097 0 16.471-7.374 16.471-16.471v-4.845c.001-6.997-5.671-12.669-12.668-12.669z" fill="#f2d98d"/><path d="m305.738 311.185c-6.997 0-12.669 5.672-12.669 12.669v4.845c0 9.097 7.375 16.471 16.471 16.471h53.743c-9.25-7.655-13.738-23.205-9.464-33.985z" fill="#eec076"/><path d="m480.763 512c8.672 0 14.993-8.214 12.772-16.597l-1.83-6.909c-2.715-10.246-11.986-17.38-22.585-17.38h-165.625c-10.599 0-19.87 7.135-22.585 17.38l-1.83 6.909c-2.221 8.383 4.099 16.597 12.772 16.597z" fill="#e7c7af"/></g><g><path d="m238.507 389.978c-.022 0-.044 0-.066 0-4.142-.036-7.471-3.423-7.435-7.564.058-6.716.117-14.282.173-22.124h-42.754c-2.653 0-5.109-1.402-6.459-3.687-1.349-2.285-1.39-5.113-.108-7.437 5.639-10.222 34.057-61.565 39.717-68.509 6.112-7.499 12.57-6.515 15.064-5.742 5.29 1.638 9.055 6.866 9.593 13.32.302 3.627.2 32.17.048 57.054h5.313c4.142 0 7.5 3.357 7.5 7.5s-3.358 7.5-7.5 7.5h-5.413c-.079 11.021-.151 19.625-.174 22.253-.036 4.12-3.387 7.436-7.499 7.436zm-37.348-44.689h30.119c.136-22.415.211-44.174.098-52.509-5.44 8.462-19.187 32.703-30.217 52.509z" fill="#4e5660"/></g></g></svg>