<svg id="Capa_1" enable-background="new 0 0 512 512" height="512" viewBox="0 0 512 512" width="512" xmlns="http://www.w3.org/2000/svg"><g><path d="m336.031 347.948c-10.524-2.627-16.926-13.288-14.299-23.812 2.628-10.524 13.288-16.931 23.812-14.299 36.84 9.195 64.879 4.488 85.725-14.39 8.04-7.282 20.46-6.667 27.741 1.373s6.667 20.46-1.373 27.741c-34.118 30.901-77.322 34.442-121.606 23.387z" fill="#d2896f"/><path d="m461.173 336.494-44.894-44.895c-6.633-6.633-6.633-17.388 0-24.021 6.633-6.634 17.387-6.634 24.022 0l44.894 44.895c6.633 6.633 6.633 17.388 0 24.021-6.631 6.632-17.387 6.635-24.022 0z" fill="#4e5660"/><path d="m395.227 303.163c-7.67-7.67-7.67-20.105 0-27.775l28.863-28.862c7.67-7.67 20.105-7.671 27.775.001 7.67 7.67 7.67 20.106-.001 27.775l-28.863 28.862c-7.668 7.668-20.103 7.671-27.774-.001z" fill="#b2ecde"/><path d="m449.61 357.546c-7.67-7.67-7.67-20.104 0-27.774l28.863-28.863c7.67-7.67 20.105-7.67 27.775 0s7.67 20.104 0 27.774l-28.863 28.863c-7.671 7.671-20.105 7.67-27.775 0z" fill="#b2ecde"/><path d="m175.969 347.948c10.524-2.627 16.926-13.288 14.299-23.812-2.628-10.524-13.288-16.931-23.812-14.299-36.84 9.195-64.879 4.488-85.724-14.39-8.04-7.282-20.461-6.667-27.741 1.373-7.282 8.04-6.667 20.46 1.373 27.741 34.117 30.901 77.321 34.442 121.605 23.387z" fill="#d2896f"/><path d="m50.826 336.494 44.894-44.895c6.633-6.633 6.633-17.388-.001-24.021-6.632-6.634-17.387-6.634-24.022 0l-44.894 44.895c-6.633 6.633-6.633 17.388.001 24.021 6.632 6.632 17.388 6.635 24.022 0z" fill="#4e5660"/><path d="m116.773 303.163c7.67-7.67 7.67-20.105-.001-27.775l-28.863-28.862c-7.67-7.67-20.105-7.671-27.775.001-7.67 7.67-7.67 20.106 0 27.775l28.863 28.862c7.669 7.668 20.105 7.671 27.776-.001z" fill="#b2ecde"/><path d="m62.39 357.546c7.67-7.67 7.67-20.104 0-27.774l-28.863-28.863c-7.67-7.67-20.105-7.67-27.775 0-7.67 7.67-7.67 20.104 0 27.774l28.863 28.863c7.671 7.671 20.105 7.67 27.775 0z" fill="#b2ecde"/><g><path d="m381.186 407.366c-15.986-53.345-31.139-132.2-32.919-158.181h-184.534c-1.78 25.981-16.933 104.836-32.919 158.181z" fill="#daa985"/><path d="m402.195 477.006h-292.39c-14.234 0-24.781-13.221-21.619-27.1l4.157-18.243c3.239-14.213 15.878-24.296 30.456-24.296h266.4c14.578 0 27.217 10.083 30.456 24.296l4.157 18.243c3.164 13.878-7.383 27.1-21.617 27.1z" fill="#f2d98d"/><path d="m229.756 407.366h-106.956c-14.578 0-27.217 10.083-30.456 24.296l-4.157 18.244c-3.163 13.878 7.385 27.1 21.619 27.1h137.513c-15.034-13.844-23.413-41.134-17.563-69.64z" fill="#eec076"/><ellipse cx="256" cy="132.829" fill="#daa985" rx="97.834" ry="97.834" transform="matrix(.707 -.707 .707 .707 -18.943 219.924)"/><path d="m352.361 280.09c-2.169-13.107-3.615-23.919-4.094-30.905h-184.534c-.479 6.986-1.925 17.798-4.094 30.905z" fill="#d2896f"/><path d="m354.329 162.159h-196.658c-24.031 0-43.513 19.481-43.513 43.513 0 24.032 19.481 43.513 43.513 43.513h196.658c24.031 0 43.513-19.481 43.513-43.513 0-24.031-19.481-43.513-43.513-43.513z" fill="#f2d98d"/><path d="m237.6 162.159h-79.929c-24.032 0-43.513 19.481-43.513 43.513s19.481 43.513 43.513 43.513h98.329c-16.555-18.366-24.793-65.147-18.4-87.026z" fill="#eec076"/></g><g fill="#4e5660"><path d="m189.704 338.353c-4.142 0-7.5-3.357-7.5-7.5v-12.739c0-4.143 3.358-7.5 7.5-7.5s7.5 3.357 7.5 7.5v12.739c0 4.143-3.358 7.5-7.5 7.5z"/><path d="m322.296 338.353c-4.142 0-7.5-3.357-7.5-7.5v-12.739c0-4.143 3.358-7.5 7.5-7.5s7.5 3.357 7.5 7.5v12.739c0 4.143-3.358 7.5-7.5 7.5z"/><path d="m256 345.937c-8.866 0-17.297-3.84-23.133-10.535-2.722-3.122-2.396-7.86.726-10.581 3.123-2.723 7.859-2.398 10.582.726 2.986 3.426 7.296 5.391 11.825 5.391s8.838-1.965 11.825-5.391c2.722-3.123 7.46-3.449 10.582-.726 3.122 2.721 3.448 7.459.726 10.581-5.836 6.696-14.268 10.535-23.133 10.535z"/></g></g></svg>