<svg id="Capa_1" enable-background="new 0 0 512 512" height="512" viewBox="0 0 512 512" width="512" xmlns="http://www.w3.org/2000/svg"><g><path d="m512 105.499h-512v-28.362c0-32.131 26.047-58.179 58.179-58.179h395.643c32.131 0 58.179 26.048 58.179 58.179v28.362z" fill="#4e5660"/><path d="m131.667 18.958h-73.488c-32.132 0-58.179 26.048-58.179 58.179v28.362h146.061c-16.619-19.492-19.142-62.148-14.394-86.541z" fill="#404656"/><path d="m512 105.499h-512v275.383c0 32.131 26.047 58.179 58.179 58.179h395.643c32.131 0 58.179-26.048 58.179-58.179v-275.383z" fill="#fbf1cf"/><path d="m40.439 436.296c5.594 1.789 11.552 2.764 17.739 2.764h280.773c-5.78-17.071-18.647-30.296-34.876-36.646-3.615-19.376-5.924-49.109-6.793-77.543 10.982-6.082 19.468-16.303 23.298-29.058 4.763-15.854 1.828-32.564-8.051-45.847-1.822-2.45-3.823-4.706-5.981-6.758 2.276-6.382 4.185-13.054 5.723-20 3.125-14.109-.26-28.648-9.286-39.891-9.114-11.353-22.627-17.864-37.075-17.864-5.222 0-10.361.857-15.316 2.553-6.634-27.754-31.648-48.448-61.405-48.448s-54.771 20.694-61.405 48.448c-4.955-1.696-10.094-2.553-15.316-2.553-14.449 0-27.962 6.511-37.075 17.863-9.026 11.243-12.41 25.784-9.286 39.891 1.538 6.946 3.449 13.619 5.723 20.001-2.157 2.052-4.158 4.309-5.981 6.758-9.879 13.283-12.814 29.994-8.052 45.846 3.831 12.756 12.316 22.977 23.298 29.059-.869 28.437-3.177 58.165-6.793 77.543-15.34 6.002-27.674 18.152-33.863 33.882z" fill="#fae0bd"/><g><circle cx="189.189" cy="182.686" fill="#eec076" r="32.223"/><path d="m263.391 259.971c9.862-13.654 15.58-29.332 18.706-43.447 2.888-13.041-10.173-23.983-22.521-18.892-26.473 10.916-46.74 4.713-60.392-5.55-5.944-4.468-14.046-4.468-19.99 0-13.652 10.263-33.919 16.466-60.392 5.55-12.348-5.091-25.409 5.851-22.521 18.892 3.126 14.115 8.844 29.794 18.706 43.447z" fill="#daa985"/><path d="m279.342 429.176c-11.512-29.078-13.354-103.385-13.354-129.037h-153.597c0 25.652-1.842 99.959-13.354 129.037z" fill="#daa985"/><path d="m266.405 325.413c-.313-10.331-.417-19.178-.417-25.274h-153.597c0 6.096-.104 14.943-.417 25.274z" fill="#d2896f"/><path d="m270.936 234.697h-163.493c-1.912 0-3.802.119-5.665.343 3.228 8.525 7.528 17.063 13.21 24.93h148.403c5.682-7.867 9.982-16.405 13.21-24.93-1.863-.223-3.753-.343-5.665-.343z" fill="#d2896f"/><path d="m273.213 300.139h-168.047c-8.191 0-15.413-5.371-17.769-13.216-4.034-13.431 6.022-26.952 20.046-26.952h163.494c14.023 0 24.08 13.521 20.046 26.952-2.357 7.844-9.579 13.216-17.77 13.216z" fill="#f2d98d"/><path d="m167.4 259.971h-59.958c-14.024 0-24.08 13.521-20.046 26.952 2.356 7.845 9.578 13.216 17.769 13.216h73.852c-14.657-8.079-16.309-28.895-11.617-40.168z" fill="#eec076"/><path d="m281.96 429.176h-185.541c-13.678 0-25.54 9.454-28.591 22.788l-5.181 22.641c-2.16 9.439 5.012 18.437 14.695 18.437h223.697c9.683 0 16.855-8.998 14.695-18.437l-5.181-22.641c-3.053-13.334-14.915-22.788-28.593-22.788z" fill="#e7c7af"/></g><g><path d="m450.869 377.002c-1.919 0-3.839-.733-5.304-2.196l-45.035-45.034c-2.929-2.93-2.929-7.678 0-10.607 2.93-2.928 7.678-2.928 10.607 0l45.035 45.034c2.929 2.93 2.929 7.678 0 10.607-1.464 1.464-3.383 2.196-5.303 2.196z" fill="#404656"/><path d="m439.912 318.999-22.78 11.463c-2.291 1.153-4.15 3.012-5.302 5.302l-11.463 22.78c-6.869 13.651-26.963 11.602-30.936-3.154l-16.92-62.837c-3.502-13.004 8.407-24.913 21.411-21.411l62.837 16.92c14.755 3.974 16.803 24.068 3.153 30.937z" fill="#4e5660"/></g><path d="m448.697 208.921h-93.514c-10.788 0-19.534-8.746-19.534-19.534v-11.517c0-10.788 8.746-19.534 19.534-19.534h93.514c10.788 0 19.534 8.746 19.534 19.534v11.517c0 10.789-8.746 19.534-19.534 19.534z" fill="#e7889d"/><g><ellipse cx="71.143" cy="62.228" fill="#e7889d" rx="7.75" ry="7.75" transform="matrix(.973 -.229 .229 .973 -12.359 17.945)"/><ellipse cx="108.372" cy="62.228" fill="#f2d98d" rx="7.75" ry="7.75" transform="matrix(.707 -.707 .707 .707 -12.261 94.857)"/><ellipse cx="145.6" cy="62.228" fill="#8ee2cf" rx="7.75" ry="7.75" transform="matrix(.991 -.134 .134 .991 -7.002 19.987)"/></g></g></svg>