<svg id="Capa_1" enable-background="new 0 0 512 512" height="512" viewBox="0 0 512 512" width="512" xmlns="http://www.w3.org/2000/svg"><g><path d="m384.168 481.594c35.18-12.159 50.039-19.634 63.916-33.51 13.876-13.876 21.351-28.736 33.51-63.916l-216.737-182.541-63.23 63.23z" fill="#daa985"/><path d="m493.414 394.123-11.82-9.955c-23.553 7.636-45.741 23.933-59.617 37.809s-30.174 36.064-37.809 59.617l9.955 11.82c19.716 23.41 55.245 24.929 76.887 3.286l25.69-25.69c21.643-21.642 20.124-57.17-3.286-76.887z" fill="#f2d98d"/><ellipse cx="208.223" cy="208.223" fill="#4e5660" rx="208.223" ry="208.223" transform="matrix(.707 -.707 .707 .707 -86.249 208.223)"/><ellipse cx="208.223" cy="208.223" fill="#b2ecde" rx="158.319" ry="158.319" transform="matrix(.707 -.707 .707 .707 -86.249 208.223)"/><g><path d="m115.622 336.639c26.04 18.81 58.023 29.903 92.6 29.903s66.561-11.093 92.601-29.903c-5.826-18.906-12.727-47.134-15.178-80.498h-154.844c-2.452 33.363-9.353 61.591-15.179 80.498z" fill="#daa985"/><path d="m293.75 218.69 10.211-22.284c2.942-6.42 4.465-13.399 4.465-20.46v-21.786c0-7.44-6.032-13.472-13.472-13.472h-46.829c-7.44 0-13.472 6.031-13.472 13.472v13.764c0 6.1-4.945 11.045-11.045 11.045h-30.771c-6.1 0-11.045-4.945-11.045-11.045v-13.764c0-7.44-6.031-13.472-13.472-13.472h-46.829c-7.44 0-13.471 6.031-13.471 13.472v21.786c0 7.062 1.523 14.04 4.464 20.46l10.211 22.284z" fill="#daa985"/><path d="m285.645 256.14h-154.845c-.894 12.174-2.384 23.659-4.194 34.263h163.234c-1.811-10.604-3.3-22.089-4.195-34.263z" fill="#d2896f"/><path d="m119.44 218.69c-7.71 0-13.96 6.25-13.96 13.96v5.339c0 10.024 8.126 18.15 18.151 18.15h169.185c10.024 0 18.151-8.126 18.151-18.15v-5.339c0-7.71-6.25-13.96-13.96-13.96z" fill="#f2d98d"/><path d="m119.44 218.69c-7.71 0-13.96 6.25-13.96 13.96v5.339c0 10.024 8.126 18.151 18.151 18.151h59.222c-10.193-8.435-15.139-25.571-10.429-37.45z" fill="#eec076"/></g></g></svg>