<svg id="Capa_1" enable-background="new 0 0 512 512" height="512" viewBox="0 0 512 512" width="512" xmlns="http://www.w3.org/2000/svg"><g><path d="m408.86 448.927c41.881-52.999-42.147-148.094-12.683-211.091h-280.354c29.464 62.997-54.563 158.092-12.683 211.091z" fill="#e7c7af"/><ellipse cx="256" cy="32.018" fill="#e7c7af" rx="35.222" ry="32.018"/><path d="m256 51.469c-16.06 0-31.251 3.907-44.793 10.58-5.543 2.731-6.684 10.161-2.314 14.53l11.294 11.294c9.795 9.795 10.098 26.129.123 35.739-9.675 9.321-25.075 9.212-34.617-.329l-10.842-10.842c-4.557-4.556-12.265-3.045-14.799 2.88-4.53 10.594-7.023 21.76-7.023 32.881 0 47.914 46.102 76.781 102.971 76.781s102.971-28.866 102.971-76.781-46.101-96.733-102.971-96.733z" fill="#daa985"/><path d="m389.993 276.121c-.87-13.563.666-26.487 6.184-38.285h-280.354c5.518 11.798 7.055 24.722 6.184 38.285z" fill="#daa985"/><path d="m153.152 152.415c2.624 45.388 47.665 72.568 102.848 72.568s100.223-27.18 102.847-72.568z" fill="#d2896f"/><path d="m388.912 245.216h-265.824c-13.401 0-24.265-10.864-24.265-24.265v-13.365c0-13.401 10.864-24.265 24.265-24.265h265.824c13.401 0 24.266 10.864 24.266 24.265v13.365c-.001 13.401-10.864 24.265-24.266 24.265z" fill="#f2d98d"/><path d="m238.419 183.32h-115.331c-13.401 0-24.265 10.864-24.265 24.265v13.365c0 13.401 10.864 24.265 24.265 24.265h131.098c-18.364-12.637-21.023-45.322-15.767-61.895z" fill="#eec076"/><path d="m408.221 441.547h-304.442c-18.264 0-34.24 12.294-38.918 29.949l-3.154 11.905c-3.827 14.446 7.064 28.599 22.008 28.599h344.57c14.944 0 25.835-14.153 22.008-28.599l-3.154-11.905c-4.678-17.655-20.654-29.949-38.918-29.949z" fill="#daa985"/><g><path d="m220.385 346.151c-26.068 12.727-60.502 59.201-73.477 97.712-1.474 4.376 2.013 8.834 6.618 8.486l21.52-1.626c1.896-.143 3.759.556 5.091 1.912l14.344 14.591c3.629 3.691 9.938 1.835 10.931-3.245 7.087-36.264 35.124-86.102 50.587-98.802z" fill="#e7889d"/><path d="m180.885 382.52c8.462 10.011 20.434 17.048 34.329 19.239 4.489.708 9.01 1.288 13.546 1.762 9.507-17.594 19.819-32.248 27.239-38.342l-35.615-19.027c-12.346 6.027-26.567 19.63-39.499 36.368z" fill="#e26e7e"/><path d="m291.615 346.151c26.068 12.727 60.502 59.201 73.477 97.712 1.474 4.376-2.013 8.834-6.618 8.486l-21.52-1.626c-1.896-.143-3.759.556-5.091 1.912l-14.344 14.591c-3.629 3.691-9.938 1.835-10.931-3.245-7.087-36.264-35.125-86.102-50.587-98.802z" fill="#e7889d"/><path d="m331.115 382.52c-12.931-16.737-27.152-30.341-39.499-36.369l-35.616 19.027c7.42 6.094 17.733 20.748 27.239 38.342 4.536-.474 9.056-1.054 13.545-1.762 13.896-2.19 25.868-9.227 34.331-19.238z" fill="#e26e7e"/><path d="m382.447 228.263c-15.458-15.458-42.178-19.727-65.527-.775-36.595 29.704-50.108 85.495-34.65 100.953s77.746-.333 107.449-36.928c18.952-23.349 8.186-47.792-7.272-63.25z" fill="#e7889d"/><path d="m344.376 324.401v-2.757c0-27.915-20.014-51.334-47.592-55.684-3.05-.481-6.116-.901-9.191-1.274-13.137 26.107-15.467 53.612-5.325 63.754 9.379 9.379 35.991 7.253 62.108-4.039z" fill="#e26e7e"/><path d="m294.802 325.218c-1.919 0-3.839-.732-5.304-2.196-2.929-2.93-2.929-7.678 0-10.607l49.574-49.575c2.93-2.928 7.678-2.928 10.607 0 2.929 2.93 2.929 7.678 0 10.607l-49.574 49.575c-1.464 1.463-3.384 2.196-5.303 2.196z" fill="#e26e7e"/><path d="m129.553 228.263c15.458-15.458 42.178-19.727 65.527-.775 36.595 29.704 50.108 85.495 34.65 100.953s-77.746-.333-107.449-36.928c-18.952-23.349-8.186-47.792 7.272-63.25z" fill="#e7889d"/><path d="m167.624 321.645v2.757c26.117 11.292 52.729 13.417 62.107 4.039 10.142-10.142 7.813-37.647-5.325-63.754-3.075.373-6.141.793-9.192 1.274-27.576 4.35-47.59 27.768-47.59 55.684z" fill="#e26e7e"/><path d="m217.198 325.218c-1.92 0-3.839-.732-5.304-2.196l-49.574-49.575c-2.929-2.93-2.929-7.678 0-10.607 2.93-2.928 7.678-2.928 10.607 0l49.574 49.575c2.929 2.93 2.929 7.678 0 10.607-1.464 1.463-3.384 2.196-5.303 2.196z" fill="#e26e7e"/><path d="m291.971 371.231c-23.833 3.758-48.108 3.758-71.941 0-12.38-1.952-21.5-12.622-21.5-25.156v-24.43c0-12.533 9.119-23.203 21.5-25.156 23.833-3.758 48.108-3.758 71.941 0 12.38 1.952 21.5 12.622 21.5 25.156v24.43c-.001 12.533-9.12 23.204-21.5 25.156z" fill="#e7889d"/></g></g></svg>