<svg id="Capa_1" enable-background="new 0 0 512 512" height="512" viewBox="0 0 512 512" width="512" xmlns="http://www.w3.org/2000/svg"><g><path d="m61.145 255.012c0 8.92-8.971 27.374-22.119 47.055-33.708 50.457-7.762 119.3 51.174 133.748 48.427 11.872 103.86 16.223 155.859 16.223s107.432-4.351 155.859-16.223c58.936-14.448 84.882-83.291 51.174-133.748-13.148-19.681-22.119-38.135-22.119-47.055z" fill="#e7889d"/><path d="m389.625 255.012h-287.131c-30.602 44.538-50.26 158.203 33.731 189.657 21.951 3.214 44.584 5.243 67.112 6.34h85.445c22.529-1.097 45.161-3.125 67.112-6.34 83.99-31.454 64.332-145.119 33.731-189.657z" fill="#e26e7e"/><path d="m382.627 465.284c12.837 0 22.657-11.436 20.726-24.127-11.626-76.426-77.621-134.985-157.294-134.985s-145.669 58.559-157.294 134.985c-1.931 12.691 7.889 24.127 20.726 24.127z" fill="#fbf1cf"/><path d="m403.353 441.157c-11.626-76.426-77.621-134.985-157.294-134.985-47.967 0-90.97 21.232-120.142 54.803 8.445 30.274 9.258 76.074-.312 104.309h257.021c12.838 0 22.658-11.437 20.727-24.127z" fill="#b2ecde"/><path d="m292.531 463.578-.389 1.705h90.485c12.837 0 22.657-11.436 20.726-24.127-7.801-51.279-40.079-94.512-84.542-117.413-5.191 8.734-9.859 17.26-14.063 25.566 2.239 16.047 11.324 29.934 24.216 38.578-2.3 12.469-5.515 27.754-9.13 42.12-13.515 6.112-23.813 18.257-27.303 33.571z" fill="#8ee2cf"/><ellipse cx="435.385" cy="193.894" fill="#ffbe9d" rx="56.733" ry="50.609"/><ellipse cx="56.733" cy="193.894" fill="#ffbe9d" rx="56.733" ry="50.609"/><path d="m441.556 205.003c0 97.814-87.527 168.033-195.497 168.033s-195.497-70.22-195.497-168.033 81.585-177.108 195.497-177.108 195.497 79.294 195.497 177.108z" fill="#ffd3bd"/><path d="m441.093 217.058c-7.951-2.41-16.38-3.711-25.107-3.711-46.096 0-83.904 36.16-86.545 81.606-15.19 9.963-25.242 27.143-25.242 46.626 0 8.199 1.795 15.983 4.989 23 72.965-20.316 126.503-75.575 131.905-147.521z" fill="#ffbe9d"/><g><path d="m487.371 456.59c-9.116-30.419-17.756-75.384-18.771-90.199h-105.227c-1.015 14.815-9.656 59.78-18.772 90.199z" fill="#daa985"/><path d="m499.351 496.3h-166.729c-8.117 0-14.131-7.539-12.328-15.453l2.371-10.403c1.847-8.105 9.054-13.854 17.367-13.854h151.909c8.313 0 15.52 5.75 17.367 13.854l2.371 10.403c1.803 7.914-4.211 15.453-12.328 15.453z" fill="#f2d98d"/><ellipse cx="415.986" cy="300.04" fill="#daa985" rx="55.788" ry="55.788" transform="matrix(.891 -.455 .455 .891 -90.938 221.959)"/><path d="m473.309 397.296c-2.544-13.369-4.287-24.746-4.709-30.905h-105.227c-.422 6.159-2.165 17.536-4.709 30.905z" fill="#d2896f"/><path d="m472.056 316.766h-112.14c-13.704 0-24.812 11.109-24.812 24.812 0 13.704 11.109 24.812 24.812 24.812h112.14c13.703 0 24.812-11.109 24.812-24.812.001-13.704-11.108-24.812-24.812-24.812z" fill="#f2d98d"/></g><g><g fill="#eda1ab"><ellipse cx="165.317" cy="223.912" rx="29.792" ry="23.725"/><ellipse cx="326.801" cy="223.912" rx="29.792" ry="23.725"/></g><g fill="#4e5660"><path d="m196.86 205.596c-4.142 0-7.5-3.357-7.5-7.5 0-3.684-2.997-6.681-6.681-6.681s-6.68 2.997-6.68 6.681c0 4.143-3.358 7.5-7.5 7.5s-7.5-3.357-7.5-7.5c0-11.955 9.726-21.681 21.68-21.681 11.955 0 21.681 9.726 21.681 21.681 0 4.142-3.358 7.5-7.5 7.5z"/><path d="m323.619 205.596c-4.142 0-7.5-3.357-7.5-7.5 0-3.684-2.997-6.681-6.68-6.681s-6.681 2.997-6.681 6.681c0 4.143-3.358 7.5-7.5 7.5s-7.5-3.357-7.5-7.5c0-11.955 9.726-21.681 21.681-21.681s21.68 9.726 21.68 21.681c0 4.142-3.358 7.5-7.5 7.5z"/><path d="m246.059 229.022c-7.933 0-15.476-3.436-20.696-9.426-2.721-3.123-2.396-7.86.727-10.582 3.122-2.722 7.86-2.395 10.582.727 2.371 2.721 5.792 4.281 9.388 4.281s7.017-1.561 9.388-4.281c2.721-3.123 7.459-3.448 10.581-.727 3.123 2.722 3.448 7.459.727 10.582-5.221 5.991-12.764 9.426-20.697 9.426z"/></g></g><path d="m252.615 108.095c41.127 29.199 107.712 58.554 167.04 58.485 17.143-.02 28.924-17.148 22.877-33.189-32.903-87.281-121.865-117.691-196.49-117.691s-163.587 30.41-196.491 117.691c-6.047 16.041 5.733 33.169 22.877 33.189 59.328.068 125.913-29.286 167.04-58.485 3.942-2.799 9.205-2.799 13.147 0z" fill="#e7889d"/><path d="m49.551 133.391c-6.047 16.041 5.733 33.169 22.877 33.189 47.055.054 98.663-18.405 138.525-40.61-35.544-6.39-62.826-65.445-52.264-95.662-46.747 16.691-88.728 48.943-109.138 103.083z" fill="#e26e7e"/><g fill="#b2ecde"><path d="m351.684 81.073 8.148 8.148c5.04 5.04 13.212 5.04 18.252 0l22.329-22.33c5.04-5.04 5.04-13.212 0-18.252l-8.148-8.148c-5.04-5.04-13.212-5.04-18.252 0l-22.33 22.33c-5.039 5.041-5.039 13.212.001 18.252z"/><path d="m140.4 81.073-8.148 8.148c-5.04 5.04-13.212 5.04-18.252 0l-22.329-22.33c-5.04-5.04-5.04-13.212 0-18.252l8.148-8.148c5.04-5.04 13.212-5.04 18.252 0l22.33 22.33c5.039 5.041 5.039 13.212-.001 18.252z"/></g></g></svg>