<svg id="Capa_1" enable-background="new 0 0 512 512" height="512" viewBox="0 0 512 512" width="512" xmlns="http://www.w3.org/2000/svg"><g><path d="m290.373 340.933c-12.232-.087-22.077-10.074-21.99-22.306.086-12.178 9.987-21.991 22.145-21.991.15 0 .299.002.452.002 14.611 0 50.688-7.704 84.755-37.05 9.267-7.986 23.254-6.944 31.236 2.325 7.984 9.268 6.943 23.252-2.325 31.236-37.916 32.664-83.492 48.085-114.273 47.784z" fill="#d2896f"/><circle cx="187.766" cy="47.072" fill="#f2d98d" r="47.072"/><path d="m296.161 159.971c14.407-19.946 22.76-42.849 27.327-63.468 4.219-19.05-14.86-35.035-32.899-27.598-38.673 15.946-68.279 6.885-88.222-8.108-8.683-6.527-20.519-6.527-29.201 0-19.944 14.992-49.549 24.053-88.222 8.108-18.038-7.438-37.117 8.548-32.898 27.598 4.566 20.619 12.92 43.523 27.326 63.468z" fill="#daa985"/><path d="m302.973 305.035c-2.415-35.022-3.019-68.659-3.019-86.387h-224.376c0 37.472-2.691 146.021-19.508 188.498h263.393c-26.26-17.497-35.455-51.055-16.49-102.111z" fill="#e7c7af"/><path d="m220.939 372.353v34.793h98.524c-8.861-22.382-13.799-63.105-16.489-102.111-10.714 1.572-21.377 3.458-31.961 5.674-29.016 6.075-50.074 31.999-50.074 61.644z" fill="#daa985"/><path d="m300.564 255.569c-.457-15.092-.61-28.016-.61-36.92h-224.376c0 8.905-.153 21.828-.61 36.92z" fill="#daa985"/><g><g><ellipse cx="187.766" cy="299.854" fill="#4e5660" rx="16.918" ry="18.931"/></g><g fill="#4e5660"><path d="m106.717 296.228c-4.142 0-7.5-3.357-7.5-7.5v-12.361c0-4.143 3.358-7.5 7.5-7.5s7.5 3.357 7.5 7.5v12.361c0 4.142-3.358 7.5-7.5 7.5z"/><path d="m268.815 296.228c-4.143 0-7.5-3.357-7.5-7.5v-12.361c0-4.143 3.357-7.5 7.5-7.5s7.5 3.357 7.5 7.5v12.361c0 4.142-3.357 7.5-7.5 7.5z"/></g></g><path d="m307.183 123.051h-238.833c-2.793 0-5.554.174-8.276.502 4.715 12.453 10.997 24.926 19.297 36.418h216.789c8.301-11.492 14.582-23.965 19.297-36.418-2.72-.328-5.481-.502-8.274-.502z" fill="#d2896f"/><path d="m310.509 218.648h-245.485c-11.965 0-22.515-7.846-25.957-19.306-5.893-19.62 8.797-39.372 29.283-39.372h238.833c20.486 0 35.176 19.752 29.283 39.372-3.442 11.46-13.991 19.306-25.957 19.306z" fill="#f2d98d"/><path d="m155.936 159.971h-87.586c-20.486 0-35.177 19.751-29.283 39.371 3.442 11.46 13.992 19.306 25.957 19.306h107.884c-21.412-11.802-23.826-42.209-16.972-58.677z" fill="#eec076"/><path d="m323.287 407.146h-271.041c-19.981 0-37.309 13.811-41.766 33.289l-7.57 33.075c-3.155 13.789 7.321 26.934 21.466 26.934h326.779c14.145 0 24.622-13.145 21.466-26.934l-7.569-33.075c-4.456-19.478-21.784-33.289-41.765-33.289z" fill="#daa985"/><path d="m365.053 440.435c-4.457-19.477-21.785-33.289-41.766-33.289h-102.348v62.749c0 10.965 2.888 21.417 7.987 30.548h122.231c14.145 0 24.621-13.145 21.466-26.934z" fill="#d2896f"/><path d="m165.811 415.055c-38.767-13.112-87.614-50.438-103.165-63.713-9.303-7.943-10.406-21.923-2.464-31.226s21.922-10.406 31.226-2.464c16.124 13.766 58.995 45.43 88.595 55.44 11.587 3.919 17.804 16.49 13.885 28.078-3.931 11.623-16.525 17.792-28.077 13.885z" fill="#d2896f"/><path d="m484.152 501.29c-68.196 14.28-138.611 14.28-206.807 0-14.859-3.111-25.501-16.213-25.501-31.395v-97.543c0-15.181 10.643-28.283 25.501-31.395 68.196-14.28 138.611-14.28 206.807 0 14.859 3.111 25.502 16.213 25.502 31.395v97.543c0 15.182-10.643 28.284-25.502 31.395z" fill="#fbf1cf"/><path d="m415.395 404.953-37.963-21.918c-12.449-7.188-28.01 1.797-28.01 16.172v43.836c0 14.375 15.561 23.359 28.01 16.172l37.963-21.918c12.449-7.189 12.449-25.157 0-32.344z" fill="#e7889d"/><path d="m334.422 332.385c-19.133 1.764-38.19 4.619-57.076 8.574-14.859 3.111-25.502 16.214-25.502 31.395v97.542c0 15.181 10.643 28.283 25.502 31.395 46.038 9.64 93.086 12.762 139.781 9.387-89.922-15.714-98.395-134.071-82.705-178.293z" fill="#fae0bd"/></g></svg>