<svg id="Capa_1" enable-background="new 0 0 512 512" height="512" viewBox="0 0 512 512" width="512" xmlns="http://www.w3.org/2000/svg"><g><g><path d="m329.364 449.657c14.939 17.855 51.322 50.836 107.71 61.941 16.628 3.275 30.038-14.087 22.538-29.284-12.296-24.916-16.696-60.843-.041-106.809z" fill="#fae0bd"/><ellipse cx="256" cy="307.327" fill="#fbf1cf" rx="227.79" ry="173.389"/><path d="m256 480.716c28.232 0 55.257-2.804 80.206-8.47-222.496-1.529-183.266-257.876-125.432-335.769-104.138 12.07-182.564 67.457-182.564 170.85 0 117.906 101.985 173.389 227.79 173.389z" fill="#fae0bd"/></g><g><path d="m359.309 276.216c-13.192-32.996-15.303-101.817-15.303-124.491h-176.012c0 22.675-2.111 91.495-15.303 124.491z" fill="#daa985"/><path d="m344.928 184.567c-.709-13.84-.922-25.658-.922-32.841h-176.012c0 7.183-.213 19.001-.922 32.841z" fill="#d2896f"/><path d="m348.474 271.354h-184.948c-11.704 0-22.037 7.64-25.468 18.83l-4.55 14.841c-3.656 11.926 5.263 23.99 17.738 23.99h209.508c12.474 0 21.394-12.064 17.737-23.991l-4.55-14.841c-3.43-11.189-13.763-18.829-25.467-18.829z" fill="#e7c7af"/><path d="m264.738 14.708h-1.238v-7.208c0-4.143-3.357-7.5-7.5-7.5s-7.5 3.357-7.5 7.5v7.208h-1.238c-4.143 0-7.5 3.357-7.5 7.5s3.357 7.5 7.5 7.5h1.238v22.348c0 4.143 3.357 7.5 7.5 7.5s7.5-3.357 7.5-7.5v-22.348h1.238c4.143 0 7.5-3.357 7.5-7.5s-3.357-7.5-7.5-7.5z" fill="#e7c7af"/><path d="m174.567 108.176h162.866c1.693-7.706 4.392-18.12 7.06-27.132 3.003-10.144-3.361-20.642-13.735-22.715-26.528-5.3-58.809-6.272-74.758-6.272s-48.23.972-74.758 6.272c-10.374 2.073-16.738 12.571-13.735 22.715 2.668 9.011 5.368 19.425 7.06 27.132z" fill="#daa985"/><path d="m166.871 77.723c.112 1.104.308 2.214.636 3.321 2.668 9.012 5.368 19.426 7.061 27.132h162.866c1.693-7.706 4.393-18.12 7.061-27.132.328-1.107.524-2.217.636-3.321z" fill="#d2896f"/><path d="m342.371 154.114h-172.742c-10.332 0-18.708-8.376-18.708-18.708v-8.522c0-10.332 8.376-18.708 18.708-18.708h172.742c10.332 0 18.708 8.376 18.708 18.708v8.522c0 10.332-8.376 18.708-18.708 18.708z" fill="#f2d98d"/><path d="m169.629 108.176c-10.332 0-18.708 8.376-18.708 18.708v8.522c0 10.332 8.376 18.708 18.708 18.708h71.668c-13.356-10.781-15.589-33.478-11.684-45.938z" fill="#eec076"/></g><g><g fill="#eda1ab"><ellipse cx="171.174" cy="417.815" rx="31.299" ry="24.925"/><ellipse cx="340.826" cy="417.815" rx="31.299" ry="24.925"/></g><g fill="#4e5660"><path d="m189.415 401.015c-4.143 0-7.5-3.357-7.5-7.5v-12.181c0-4.143 3.357-7.5 7.5-7.5s7.5 3.357 7.5 7.5v12.181c0 4.142-3.357 7.5-7.5 7.5z"/><path d="m256 408.939c-8.895 0-17.355-3.853-23.209-10.57-2.722-3.123-2.396-7.861.727-10.582 3.122-2.721 7.859-2.396 10.582.727 3.005 3.448 7.342 5.426 11.9 5.426 4.559 0 8.896-1.978 11.9-5.426 2.721-3.123 7.457-3.448 10.582-.727 3.122 2.721 3.448 7.459.727 10.582-5.854 6.717-14.313 10.57-23.209 10.57z"/><path d="m339.053 400.675c-4.142 0-7.5-3.357-7.5-7.5 0-3.648-2.968-6.616-6.616-6.616s-6.616 2.968-6.616 6.616c0 4.143-3.357 7.5-7.5 7.5s-7.5-3.357-7.5-7.5c0-11.919 9.697-21.616 21.616-21.616s21.616 9.697 21.616 21.616c0 4.142-3.358 7.5-7.5 7.5z"/></g></g></g></svg>