<svg id="Capa_1" enable-background="new 0 0 512 512" height="512" viewBox="0 0 512 512" width="512" xmlns="http://www.w3.org/2000/svg"><g><path d="m494.791 155.15-32.762-32.762-48.52-23.898-23.898-48.52-32.761-32.761c-22.946-22.946-60.149-22.946-83.095 0l-248.899 248.899 79.909 141.127 141.127 79.908 248.899-248.899c22.945-22.945 22.945-60.148 0-83.094z" fill="#a3defe"/><path d="m318.683 285.026c8.343-10.458 11.423-23.937 8.451-36.979l-2.403-10.545c-3.524-15.466-13.956-27.714-27.637-33.825-3.748-14.817-7.039-30.453-9.371-43.166 15.159-10.044 25.173-27.255 25.173-46.762 0-19.677-10.192-37.018-25.572-47.024-.964-17.306-6.988-33.281-16.606-46.477l-163.004 163.003c-1.472 6.743-3.084 13.669-4.794 20.426-13.681 6.111-24.112 18.359-27.638 33.825l-2.402 10.544c-2.972 13.043.108 26.522 8.45 36.98s20.8 16.456 34.178 16.456h168.997c13.378 0 25.835-5.998 34.178-16.456z" fill="#7acefa"/><path d="m24.856 266.108-7.647 7.647c-22.946 22.946-22.946 60.149 0 83.095l137.941 137.941c22.946 22.946 60.149 22.946 83.095 0l7.646-7.647z" fill="#4e5660"/><path d="m462.029 122.389-72.418-72.418-8.914 17.737c-4.8 9.551-2.938 21.104 4.621 28.663l30.311 30.311c7.559 7.559 19.112 9.421 28.663 4.621z" fill="#4e5660"/><path d="m74.568 372.515c-1.92 0-3.839-.732-5.303-2.196l-16.878-16.879c-2.929-2.93-2.929-7.678 0-10.607 2.929-2.928 7.678-2.928 10.607 0l16.878 16.878c2.929 2.93 2.929 7.678 0 10.607-1.465 1.464-3.385 2.197-5.304 2.197z" fill="#fbf1cf"/><path d="m163.864 461.81c-1.92 0-3.839-.733-5.303-2.196l-16.878-16.878c-2.929-2.93-2.929-7.678 0-10.608 2.929-2.928 7.678-2.928 10.607 0l16.878 16.878c2.929 2.93 2.929 7.678 0 10.607-1.465 1.464-3.385 2.197-5.304 2.197z" fill="#fbf1cf"/><g><path d="m376.277 244.829-109.106-109.106c-6.17-6.17-16.172-6.17-22.342 0l-109.106 109.106c-6.169 6.17-6.169 16.172 0 22.342l109.106 109.106c6.17 6.169 16.172 6.169 22.342 0l109.106-109.106c6.17-6.17 6.17-16.173 0-22.342z" fill="#fbf1cf"/><path d="m267.171 135.723c-6.17-6.169-16.172-6.169-22.342 0l-109.106 109.106c-6.169 6.17-6.169 16.173 0 22.342l34.311 34.311h114.471c13.378 0 25.835-5.998 34.178-16.456s11.423-23.937 8.451-36.979l-2.403-10.545c-3.524-15.466-13.956-27.714-27.637-33.825-3.748-14.817-7.039-30.453-9.371-43.166.846-.561 1.673-1.147 2.486-1.751z" fill="#fae0bd"/><path d="m376.277 244.829-54.553-54.553-65.724 65.724 65.724 65.724 54.553-54.553c6.17-6.17 6.17-16.173 0-22.342z" fill="#4e5660"/><path d="m327.133 248.047-2.403-10.545c-2.872-12.607-10.337-23.074-20.409-29.823l-48.321 48.321 43.023 43.023c7.639-2.678 14.451-7.468 19.659-13.997 8.343-10.458 11.423-23.937 8.451-36.979z" fill="#404656"/><path d="m135.723 267.171 54.553 54.553 65.724-65.724-65.724-65.724-54.553 54.553c-6.17 6.169-6.17 16.172 0 22.342z" fill="#4e5660"/><path d="m256 256-65.724-65.724-54.553 54.553c-6.169 6.17-6.169 16.173 0 22.342l34.311 34.311h40.484z" fill="#404656"/></g><g><path d="m272.362 230.326c-9.24-30.832-17.998-76.41-19.027-91.426h-106.658c-1.029 15.016-9.787 60.594-19.027 91.426z" fill="#daa985"/><path d="m284.505 270.576h-168.997c-8.227 0-14.323-7.642-12.495-15.663l2.403-10.544c1.872-8.215 9.177-14.043 17.603-14.043h153.975c8.426 0 15.731 5.828 17.603 14.043l2.403 10.544c1.828 8.022-4.268 15.663-12.495 15.663z" fill="#f2d98d"/><path d="m184.838 230.326h-61.819c-8.426 0-15.731 5.828-17.603 14.043l-2.403 10.545c-1.828 8.021 4.268 15.663 12.495 15.663h79.48c-8.688-8.002-13.531-23.775-10.15-40.251z" fill="#eec076"/><ellipse cx="200.006" cy="71.647" fill="#daa985" rx="56.547" ry="56.547" transform="matrix(.23 -.973 .973 .23 84.324 249.842)"/><path d="m258.028 169.805c-2.536-13.37-4.269-24.727-4.693-30.905h-106.658c-.423 6.179-2.157 17.535-4.693 30.905z" fill="#d2896f"/><path d="m256.839 88.6h-113.665c-13.89 0-25.15 11.26-25.15 25.15 0 13.89 11.26 25.15 25.15 25.15h113.665c13.89 0 25.15-11.26 25.15-25.15 0-13.89-11.26-25.15-25.15-25.15z" fill="#f2d98d"/><path d="m189.371 88.6h-46.197c-13.89 0-25.15 11.26-25.15 25.15s11.26 25.15 25.15 25.15h56.833c-9.569-10.615-14.331-37.655-10.636-50.3z" fill="#eec076"/></g><path d="m402.09 161.368-51.458-51.459c-5.127-5.127-13.441-5.127-18.568 0l-11.956 11.956c-5.127 5.128-5.127 13.441 0 18.568l51.459 51.458c5.127 5.127 13.441 5.127 18.568 0l11.956-11.956c5.127-5.126 5.127-13.439-.001-18.567z" fill="#e7889d"/></g></svg>