<svg id="Capa_1" enable-background="new 0 0 512 512" height="512" viewBox="0 0 512 512" width="512" xmlns="http://www.w3.org/2000/svg"><g><path d="m256 102.821c34.132 0 86.009 6.231 96.988 38.391 6.934 20.313-.594 52.373-22.642 84.262v106.087l17.466 21.575c39.657-30.642 71.935-69.394 90.888-110.981 21.16-46.43 25.278-94.074 11.597-134.156-11.759-34.451-35.991-62.475-70.076-81.044-32.832-17.886-74.626-26.955-124.221-26.955s-91.389 9.069-124.22 26.954c-34.085 18.569-58.317 46.593-70.076 81.044-13.682 40.082-9.563 87.726 11.597 134.156 18.953 41.587 51.231 80.339 90.888 110.981l17.466-21.575v-106.086c-22.048-31.888-29.576-63.948-22.642-84.262 10.978-32.16 62.855-38.391 96.987-38.391z" fill="#b0ade2"/><g fill="#a78cd6"><path d="m395.746 287.541 13.278-43.03c4.006-12.981 1.582-27.258-6.485-38.189-8.066-10.931-20.993-17.457-34.578-17.457h-18.476c-4.185 11.762-10.557 24.196-19.139 36.609v106.087l17.466 21.575c20.966-16.2 39.867-34.668 55.829-54.622-2.066-4.057-4.73-7.759-7.895-10.973z"/><path d="m181.654 331.561v-106.087c-8.582-12.412-14.953-24.847-19.139-36.609h-18.476c-13.585 0-26.511 6.526-34.578 17.457-8.067 10.932-10.492 25.208-6.486 38.189l13.278 43.03c-3.164 3.214-5.829 6.916-7.894 10.973 15.962 19.954 34.863 38.422 55.829 54.622z"/></g><path d="m168.262 202.587h.004c-11.437-23.752-14.519-45.951-9.254-61.375 10.979-32.16 62.855-38.391 96.988-38.391s86.009 6.231 96.988 38.391c5.265 15.424 2.183 37.623-9.254 61.375h.004c50.189-101.293 31.697-202.587-87.738-202.587s-137.927 101.294-87.738 202.587z" fill="#a78cd6"/><circle cx="256" cy="395.47" fill="#f2d98d" r="116.53"/><circle cx="256" cy="395.47" fill="#eec076" r="75.356"/><g><path d="m259.441 436.544c-4.142 0-7.5-3.357-7.5-7.5v-43.98h-3.503c-4.142 0-7.5-3.357-7.5-7.5s3.358-7.5 7.5-7.5h11.003c4.142 0 7.5 3.357 7.5 7.5v51.48c0 4.142-3.358 7.5-7.5 7.5z" fill="#f2d98d"/></g><path d="m324.58 228.281-8.955 29.021c-.958 3.106-3.83 5.225-7.081 5.225h-16.58c-4.092 0-7.41-3.318-7.41-7.41v-23.277c0-6.665-5.403-12.069-12.069-12.069h-32.972c-6.665 0-12.069 5.403-12.069 12.069v23.278c0 4.092-3.318 7.41-7.41 7.41h-16.58c-3.251 0-6.122-2.119-7.08-5.225l-8.955-29.021c-1.561-5.059-6.237-8.51-11.532-8.51h-31.849c-8.124 0-13.927 7.865-11.532 15.627l21.565 69.885h203.856l21.565-69.885c2.395-7.763-3.408-15.627-11.532-15.627h-31.849c-5.293-.001-9.97 3.45-11.531 8.509z" fill="#f2d98d"/><path d="m226.509 258.718c-1.266 2.271-3.689 3.809-6.474 3.809h-16.58c-3.251 0-6.122-2.119-7.08-5.225l-8.955-29.021c-1.561-5.059-6.238-8.51-11.532-8.51h-31.849c-8.124 0-13.928 7.865-11.532 15.627l21.565 69.886h95.548c-14.481-10.512-21.573-30.018-23.111-46.566z" fill="#eec076"/><path d="m364.371 305.284h-216.742c-7.257 0-13.14 5.883-13.14 13.14v5.85c0 10.828 8.778 19.606 19.606 19.606h203.81c10.828 0 19.606-8.778 19.606-19.606v-5.85c0-7.257-5.883-13.14-13.14-13.14z" fill="#daa985"/><path d="m147.629 305.284c-7.257 0-13.14 5.883-13.14 13.139v5.85c0 10.828 8.778 19.606 19.606 19.606h92.615c-11.407-7.891-11.665-29.482-8.091-38.595z" fill="#d2896f"/></g></svg>