<svg id="Capa_1" enable-background="new 0 0 512 512" height="512" viewBox="0 0 512 512" width="512" xmlns="http://www.w3.org/2000/svg"><g><path d="m465.316 512h-309.399c-24.182 0-43.785-19.603-43.785-43.785v-424.43c0-24.182 19.603-43.785 43.785-43.785h309.398c24.182 0 43.785 19.603 43.785 43.785v424.429c.001 24.183-19.603 43.786-43.784 43.786z" fill="#fbf1cf"/><path d="m279.204 339.665c-4.54-19.84-18.366-35.353-36.318-42.425-3.559-19.157-5.835-48.471-6.697-76.537 10.878-6.072 19.282-16.229 23.084-28.888 4.746-15.799 1.821-32.453-8.024-45.689-1.781-2.395-3.733-4.604-5.836-6.618 2.234-6.29 4.112-12.862 5.627-19.701 3.115-14.065-.26-28.562-9.26-39.773-9.086-11.319-22.559-17.81-36.964-17.81-5.111 0-10.141.824-14.997 2.453-6.708-27.49-31.544-47.957-61.07-47.957-2.574 0-5.109.165-7.603.467-5.649 7.374-9.013 16.591-9.013 26.598v374.409h127.513c14.038 0 27.107-6.296 35.856-17.273 8.749-10.978 11.972-25.122 8.84-38.808z" fill="#fae0bd"/><g fill="#4e5660"><path d="m422.67 177.639h-113.484c-4.142 0-7.5-3.357-7.5-7.5s3.358-7.5 7.5-7.5h113.484c4.143 0 7.5 3.357 7.5 7.5 0 4.142-3.357 7.5-7.5 7.5z"/><path d="m273.505 177.639h-88.579c-4.142 0-7.5-3.357-7.5-7.5s3.358-7.5 7.5-7.5h88.579c4.143 0 7.5 3.357 7.5 7.5 0 4.142-3.358 7.5-7.5 7.5z"/><path d="m436.307 243.236h-64.935c-4.143 0-7.5-3.357-7.5-7.5s3.357-7.5 7.5-7.5h64.935c4.143 0 7.5 3.357 7.5 7.5s-3.358 7.5-7.5 7.5z"/><path d="m334.39 243.236h-149.464c-4.142 0-7.5-3.357-7.5-7.5s3.358-7.5 7.5-7.5h149.464c4.143 0 7.5 3.357 7.5 7.5s-3.358 7.5-7.5 7.5z"/><path d="m404.065 308.834h-87.922c-4.143 0-7.5-3.357-7.5-7.5s3.357-7.5 7.5-7.5h87.922c4.142 0 7.5 3.357 7.5 7.5s-3.358 7.5-7.5 7.5z"/><path d="m280.462 308.834h-95.536c-4.142 0-7.5-3.357-7.5-7.5s3.358-7.5 7.5-7.5h95.536c4.143 0 7.5 3.357 7.5 7.5s-3.358 7.5-7.5 7.5z"/><path d="m348.087 374.432h-163.161c-4.142 0-7.5-3.357-7.5-7.5s3.358-7.5 7.5-7.5h163.161c4.143 0 7.5 3.357 7.5 7.5 0 4.142-3.357 7.5-7.5 7.5z"/></g><g><ellipse cx="128.748" cy="79.575" fill="#eec076" rx="31.949" ry="31.949" transform="matrix(.987 -.159 .159 .987 -10.991 21.427)"/><path d="m202.318 156.202c9.779-13.538 15.448-29.083 18.547-43.077 2.863-12.93-10.086-23.779-22.329-18.731-26.248 10.823-46.342 4.673-59.878-5.503-5.893-4.43-13.926-4.43-19.82 0-13.536 10.176-33.63 16.326-59.878 5.503-12.243-5.048-25.193 5.801-22.329 18.731 3.099 13.995 8.769 29.54 18.547 43.077z" fill="#daa985"/><path d="m218.134 323.966c-11.414-28.831-13.241-102.505-13.241-127.938h-152.289c0 25.433-1.826 99.108-13.241 127.938z" fill="#daa985"/><path d="m205.502 226.934c-.464-12.743-.609-23.74-.609-30.906h-152.289c0 7.166-.145 18.162-.609 30.906z" fill="#d2896f"/><path d="m212.057 196.028h-166.617c-8.121 0-15.282-5.326-17.618-13.104-4-13.316 5.971-26.722 19.875-26.722h162.102c13.904 0 23.875 13.406 19.875 26.722-2.336 7.778-9.496 13.104-17.617 13.104z" fill="#f2d98d"/><path d="m107.145 156.202h-59.447c-13.904 0-23.875 13.406-19.875 26.722 2.336 7.778 9.497 13.104 17.618 13.104h73.223c-14.533-8.01-16.172-28.649-11.519-39.826z" fill="#eec076"/><path d="m220.729 323.966h-183.962c-13.562 0-25.323 9.374-28.348 22.594l-5.137 22.449c-2.142 9.359 4.969 18.28 14.57 18.28h221.793c9.6 0 16.711-8.922 14.57-18.28l-5.137-22.449c-3.026-13.22-14.787-22.594-28.349-22.594z" fill="#e7c7af"/></g><path d="m362.278 39.206h-103.323c-9.009 0-16.311 7.303-16.311 16.311v12.063c0 9.008 7.303 16.311 16.311 16.311h103.323c9.009 0 16.311-7.303 16.311-16.311v-12.062c0-9.009-7.302-16.312-16.311-16.312z" fill="#e7889d"/><g><g fill="#eda1ab"><ellipse cx="224.529" cy="468.824" rx="31.765" ry="25.296"/><ellipse cx="396.704" cy="468.824" rx="31.765" ry="25.296"/></g><g fill="#4e5660"><path d="m243.041 451.662c-4.142 0-7.5-3.357-7.5-7.5v-12.361c0-4.143 3.358-7.5 7.5-7.5s7.5 3.357 7.5 7.5v12.361c0 4.143-3.357 7.5-7.5 7.5z"/><path d="m310.616 459.704c-8.995 0-17.549-3.897-23.47-10.69-2.722-3.123-2.395-7.86.727-10.582 3.122-2.721 7.859-2.396 10.582.727 3.071 3.523 7.504 5.545 12.161 5.545 4.658 0 9.091-2.022 12.162-5.545 2.722-3.123 7.46-3.448 10.582-.727 3.122 2.722 3.448 7.459.727 10.582-5.921 6.794-14.476 10.69-23.471 10.69z"/><path d="m394.904 451.317c-4.143 0-7.5-3.357-7.5-7.5 0-3.764-3.063-6.825-6.826-6.825-3.764 0-6.826 3.062-6.826 6.825 0 4.143-3.358 7.5-7.5 7.5-4.143 0-7.5-3.357-7.5-7.5 0-12.034 9.791-21.825 21.826-21.825s21.826 9.791 21.826 21.825c0 4.143-3.357 7.5-7.5 7.5z"/></g></g></g></svg>