<svg id="Capa_1" enable-background="new 0 0 512 512" height="512" viewBox="0 0 512 512" width="512" xmlns="http://www.w3.org/2000/svg"><g><path d="m444.114 360.892c2.936-13.369 4.498-27.253 4.498-41.504 0-12.031-1.114-23.801-3.224-35.222-33.443-12.194-57.286-40.674-46.957-94.44-35.229-38.676-85.994-62.95-142.431-62.95-54.774 0-104.206 22.865-139.277 59.568-5.205 48.781-17.921 81.441-17.921 133.044 0 70.864 25.963 118.958 59.86 166.228 28.564 16.762 61.825 26.384 97.338 26.384 39.32 0 75.88-11.792 106.359-32.018 9.317-59.653 48.526-85.614 81.755-119.09z" fill="#bae7ff"/><path d="m221.314 129.897c-40.791 7.419-77.102 27.685-104.591 56.452-5.205 48.778-17.92 81.437-17.92 133.038 0 70.864 25.963 118.958 59.86 166.228 28.563 16.763 61.824 26.385 97.337 26.385 37.117 0 71.775-10.509 101.181-28.699-213.624-9.451-176.398-260.264-135.867-353.404z" fill="#a3defe"/><path d="m116.724 186.344c-33.041 34.579-53.336 81.441-53.336 133.044 0 70.864 38.276 132.779 95.275 166.228 32.328-20.719 67.622-68.762 26.896-94.364-107.633-67.664-2.56-63.212 9.343-124.043 7.766-39.693-27.03-62.241-78.178-80.865z" fill="#6ad7be"/><path d="m361.61 363.201c-24.992 11.052-44.307 32.323-38.355 61.229 4.052 19.684 19.149 35.43 39.104 55.552 40.932-27.163 70.875-69.552 81.756-119.09-32.375 7.855-64.994-5.435-82.505 2.309z" fill="#8ee2cf"/><path d="m445.388 284.166c-6.65-35.984-23.294-68.462-46.956-94.44-21.366 4.424-50.317 9.152-68.666 44.143-21.531 41.058 53.585 86.258 115.622 50.297z" fill="#8ee2cf"/><g><path d="m338.554 242.493 7.531-16.308c4.261-9.229 4.8-19.744 1.479-29.352-5.922-17.132-14.9-48.374-17.717-86.714h-147.694c-2.817 38.34-11.795 69.582-17.717 86.714-3.321 9.607-2.782 20.123 1.479 29.352l7.531 16.308z" fill="#daa985"/><path d="m337.577 74.399 9.739-21.255c2.806-6.123 4.258-12.78 4.258-19.515v-20.78c.001-7.096-5.752-12.849-12.849-12.849h-44.666c-7.096 0-12.849 5.753-12.849 12.849v13.128c0 5.818-4.717 10.535-10.535 10.535h-29.35c-5.818 0-10.535-4.717-10.535-10.535v-13.128c0-7.096-5.753-12.849-12.85-12.849h-44.666c-7.096 0-12.849 5.753-12.849 12.849v20.78c0 6.736 1.452 13.392 4.258 19.515l9.739 21.255z" fill="#daa985"/><path d="m329.847 110.119h-147.694c-.82 11.161-2.164 21.716-3.801 31.501h155.296c-1.637-9.785-2.981-20.339-3.801-31.501z" fill="#d2896f"/><path d="m171.318 74.399c-7.354 0-13.316 5.962-13.316 13.316v5.093c0 9.561 7.751 17.312 17.312 17.312h161.371c9.561 0 17.312-7.751 17.312-17.312v-5.093c0-7.354-5.961-13.316-13.315-13.316z" fill="#f2d98d"/><path d="m171.318 74.399c-7.354 0-13.316 5.961-13.316 13.316v5.092c0 9.561 7.751 17.312 17.313 17.312h56.487c-9.723-8.046-14.44-24.39-9.947-35.72z" fill="#eec076"/><path d="m355.279 285.467c9.115 0 15.759-8.633 13.424-17.444l-1.924-7.262c-2.853-10.769-12.598-18.268-23.738-18.268h-174.081c-11.141 0-20.885 7.499-23.738 18.268l-1.924 7.262c-2.335 8.811 4.309 17.444 13.424 17.444z" fill="#e7c7af"/></g><g fill="#4e5660"><path d="m191.666 358.242c-4.143 0-7.5-3.357-7.5-7.5v-12.362c0-4.143 3.357-7.5 7.5-7.5s7.5 3.357 7.5 7.5v12.362c0 4.143-3.357 7.5-7.5 7.5z"/><path d="m320.333 358.242c-4.143 0-7.5-3.357-7.5-7.5v-12.362c0-4.143 3.357-7.5 7.5-7.5s7.5 3.357 7.5 7.5v12.362c0 4.143-3.357 7.5-7.5 7.5z"/><path d="m256 365.601c-8.669 0-16.911-3.754-22.615-10.299-2.722-3.123-2.395-7.86.727-10.582 3.122-2.721 7.859-2.396 10.582.727 2.854 3.275 6.975 5.154 11.307 5.154 4.331 0 8.452-1.879 11.307-5.154 2.723-3.123 7.457-3.448 10.582-.727 3.122 2.722 3.448 7.459.727 10.582-5.706 6.545-13.948 10.299-22.617 10.299z"/></g></g></svg>