<svg id="Capa_1" enable-background="new 0 0 512 512" height="512" viewBox="0 0 512 512" width="512" xmlns="http://www.w3.org/2000/svg"><g><path d="m1.99 127.294c2.605-17.042 20.193-27.196 36.255-20.932 38.404 14.98 60.322 37.803 78.376 69.073 16.631 28.805 9.07 64.305-16.887 79.292-25.957 14.986-60.482 3.784-77.112-25.021-18.054-31.269-26.861-61.663-20.632-102.412z" fill="#8ee2cf"/><path d="m86.848 239.898c-2.592 0-5.113-1.345-6.502-3.751l-35.039-60.688c-2.071-3.587-.842-8.174 2.745-10.245 3.587-2.07 8.174-.843 10.245 2.745l35.039 60.688c2.071 3.587.842 8.174-2.745 10.245-1.181.682-2.47 1.006-3.743 1.006z" fill="#6ad7be"/><path d="m57.49 243.781c-1.894-17.135 12.466-31.496 29.602-29.602 40.973 4.53 68.051 20.903 93.583 46.434 23.519 23.519 25.405 59.767 4.211 80.961s-57.441 19.309-80.961-4.211c-25.533-25.531-41.906-52.609-46.435-93.582z" fill="#b2ecde"/><path d="m166.652 330.842c-1.919 0-3.839-.732-5.303-2.196l-52.943-52.942c-2.929-2.93-2.929-7.678 0-10.607 2.929-2.928 7.678-2.928 10.606 0l52.943 52.942c2.929 2.93 2.929 7.678 0 10.607-1.464 1.463-3.383 2.196-5.303 2.196z" fill="#8ee2cf"/><path d="m510.01 127.294c-2.605-17.042-20.193-27.196-36.254-20.932-38.404 14.98-60.322 37.803-78.376 69.073-16.631 28.805-9.07 64.305 16.887 79.292 25.957 14.986 60.481 3.784 77.112-25.021 18.053-31.269 26.86-61.663 20.631-102.412z" fill="#8ee2cf"/><path d="m425.152 239.898c-1.272 0-2.562-.324-3.743-1.006-3.587-2.071-4.816-6.658-2.745-10.245l35.039-60.688c2.071-3.588 6.658-4.816 10.245-2.745s4.816 6.658 2.745 10.245l-35.039 60.688c-1.389 2.407-3.91 3.751-6.502 3.751z" fill="#6ad7be"/><path d="m454.51 243.781c1.894-17.135-12.466-31.496-29.602-29.602-40.973 4.53-68.051 20.903-93.583 46.434-23.519 23.519-25.405 59.767-4.211 80.961s57.441 19.309 80.961-4.211c25.533-25.531 41.906-52.609 46.435-93.582z" fill="#b2ecde"/><path d="m345.348 330.842c-1.919 0-3.839-.732-5.303-2.196-2.929-2.93-2.929-7.678 0-10.607l52.943-52.942c2.929-2.929 7.678-2.927 10.607 0 2.929 2.93 2.929 7.678 0 10.607l-52.943 52.942c-1.465 1.463-3.385 2.196-5.304 2.196z" fill="#8ee2cf"/><g><ellipse cx="256" cy="77.446" fill="#f2d98d" rx="31.524" ry="31.524" transform="matrix(.383 -.924 .924 .383 86.483 284.322)"/><path d="m328.592 153.054c9.648-13.358 15.242-28.696 18.301-42.505 2.825-12.758-9.952-23.463-22.032-18.482-25.899 10.679-45.726 4.611-59.083-5.43-5.815-4.371-13.741-4.371-19.556 0-13.356 10.04-33.183 16.109-59.083 5.43-12.08-4.981-24.858 5.724-22.032 18.482 3.058 13.809 8.652 29.147 18.301 42.505z" fill="#daa985"/><path d="m344.198 318.589c-11.263-28.448-13.065-101.143-13.065-126.238h-150.266c0 25.095-1.802 97.791-13.065 126.238z" fill="#daa985"/><path d="m335.781 278.586c-.209-.065-.411-.142-.621-.204l-26.022-7.671-15.337-22.378c-8.548-12.473-22.68-19.92-37.801-19.92s-29.253 7.447-37.801 19.92l-15.337 22.378-26.023 7.671c-.21.062-.412.139-.62.204-1.937 15.996-4.646 30.48-8.417 40.004h176.395c-3.77-9.525-6.479-24.009-8.416-40.004z" fill="#d2896f"/><path d="m338.201 192.351h-164.402c-8.013 0-15.078-5.255-17.384-12.929-3.947-13.14 5.892-26.367 19.611-26.367h159.948c13.719 0 23.558 13.228 19.611 26.367-2.305 7.674-9.37 12.929-17.384 12.929z" fill="#f2d98d"/><path d="m234.683 153.054h-58.657c-13.719 0-23.558 13.228-19.611 26.367 2.305 7.675 9.37 12.929 17.384 12.929h72.25c-14.339-7.903-15.956-28.267-11.366-39.296z" fill="#eec076"/><path d="m346.759 318.589h-181.518c-13.381 0-24.986 9.249-27.971 22.293l-5.069 22.15c-2.113 9.234 4.903 18.038 14.376 18.038h218.845c9.473 0 16.489-8.803 14.376-18.038l-5.069-22.15c-2.984-13.044-14.589-22.293-27.97-22.293z" fill="#e7c7af"/></g><path d="m74.668 448.893 1.7-15.31c.459-4.134-1.879-8.071-5.728-9.646l-22.396-9.167c-9.846-4.03-11.372-17.328-2.703-23.495 23.734-16.883 50.781-32.574 86.534-44.409l24.357 73.581c3.139 9.482-1.835 19.762-11.236 23.133-17.012 6.1-33.491 12.871-47.639 20.563-11.041 6.003-24.276-2.761-22.889-15.25z" fill="#e26e7e"/><path d="m437.332 448.893-1.7-15.31c-.459-4.134 1.879-8.071 5.728-9.646l22.396-9.167c9.845-4.03 11.372-17.328 2.703-23.495-23.734-16.883-50.781-32.574-86.534-44.409l-24.357 73.581c-3.139 9.482 1.835 19.762 11.236 23.133 17.012 6.1 33.491 12.871 47.639 20.563 11.041 6.003 24.276-2.761 22.889-15.25z" fill="#e26e7e"/><path d="m397.099 401.679c-2.998 9.922-13.37 15.68-23.355 12.898-31.244-8.706-59.48-13.503-117.743-13.503-58.423 0-86.971 4.93-117.733 13.499-9.989 2.783-20.366-2.968-23.366-12.894l-16.635-55.054c-3.1-10.258 2.847-21.049 13.167-23.938 39.426-11.038 75.733-17.345 144.567-17.345 69.464 0 106 6.524 144.645 17.362 10.288 2.885 16.181 13.688 13.09 23.916z" fill="#e7889d"/><path d="m144.655 314.55c-2.163 12.527.948 25.499 8.822 35.733l16.544 21.502-.746 27.118c-.077 2.813.109 5.588.524 8.306 21.832-3.963 47.439-6.136 86.2-6.136 38.8 0 64.279 2.13 86.202 6.123.413-2.714.6-5.484.522-8.292l-.746-27.12 16.544-21.502c7.874-10.234 10.985-23.207 8.821-35.734-28.816-5.868-61.654-9.207-111.344-9.207-49.527 0-82.215 3.266-111.343 9.209z" fill="#e26e7e"/><path d="m251.001 403.229-30.916 10.994c-9.878 3.513-20.204-3.989-19.915-14.469l.902-32.8c.094-3.431-.997-6.789-3.09-9.509l-20.009-26.006c-6.393-8.309-2.449-20.448 7.607-23.412l31.474-9.278c3.292-.97 6.149-3.046 8.089-5.877l18.55-27.066c5.927-8.648 18.69-8.648 24.617 0l18.55 27.066c1.94 2.831 4.797 4.907 8.089 5.877l31.474 9.278c10.056 2.965 14 15.103 7.607 23.412l-20.009 26.006c-2.093 2.72-3.184 6.079-3.09 9.509l.902 32.8c.288 10.48-10.037 17.982-19.915 14.469l-30.916-10.994c-3.236-1.15-6.768-1.15-10.001 0z" fill="#f2d98d"/><path d="m274.421 344.708h-36.84c-4.142 0-7.5-3.357-7.5-7.5s3.358-7.5 7.5-7.5h36.84c4.142 0 7.5 3.357 7.5 7.5s-3.357 7.5-7.5 7.5z" fill="#eec076"/></g></svg>