<svg id="Capa_1" enable-background="new 0 0 512 512" height="512" viewBox="0 0 512 512" width="512" xmlns="http://www.w3.org/2000/svg"><g><path d="m461.762 241.194-25.774-60.097 25.774-60.097v-88.872c0-17.744-14.384-32.128-32.128-32.128h-347.268c-17.744 0-32.128 14.384-32.128 32.128v447.743c0 17.744 14.384 32.128 32.128 32.128h289.803c49.481 0 89.593-40.112 89.593-89.593z" fill="#bae7ff"/><path d="m82.366 0c-17.744 0-32.128 14.384-32.128 32.128v447.743c0 17.744 14.384 32.128 32.128 32.128h189.527c-162.1-91.84-154.962-272.975-147.481-512h-42.046z" fill="#a3defe"/><path d="m435.988 181.097 25.774-60.097v-88.872c0-17.744-14.384-32.128-32.128-32.128h-347.268c-17.744 0-32.128 14.384-32.128 32.128v176.899c68.502-2.332 131.09 39.739 205.762 39.739 69.65 0 128.787-36.596 192.015-39.627z" fill="#b0ade2"/><path d="m123.381 219.912c-3.949-65.992-1.479-139.692 1.032-219.912h-42.047c-17.744 0-32.128 14.384-32.128 32.128v176.899c24.873-.846 48.967 4.163 73.143 10.885z" fill="#a78cd6"/><g><path d="m353.719 335.823 8.914-19.304c5.044-10.924 5.682-23.371 1.751-34.743-7.009-20.279-17.637-57.26-20.971-102.643h-174.825c-3.334 45.382-13.962 82.364-20.971 102.643-3.931 11.372-3.293 23.82 1.751 34.743l8.914 19.304z" fill="#daa985"/><path d="m352.563 136.851 11.528-25.159c3.321-7.248 5.04-15.127 5.04-23.1v-24.598c0-8.4-6.81-15.21-15.21-15.21h-52.871c-8.4 0-15.21 6.81-15.21 15.21v15.54c0 6.887-5.583 12.47-12.47 12.47h-34.74c-6.887 0-12.47-5.583-12.47-12.47v-15.54c0-8.4-6.81-15.21-15.21-15.21h-52.871c-8.4 0-15.21 6.81-15.21 15.21v24.597c0 7.973 1.719 15.852 5.04 23.1l11.529 25.159h193.125z" fill="#daa985"/><path d="m343.412 179.133h-174.824c-.971 13.212-2.562 25.705-4.5 37.287h183.824c-1.938-11.583-3.529-24.075-4.5-37.287z" fill="#d2896f"/><path d="m155.761 136.85c-8.705 0-15.762 7.057-15.761 15.762v6.028c0 11.318 9.175 20.492 20.493 20.492h191.015c11.318 0 20.492-9.175 20.492-20.492v-6.028c0-8.705-7.057-15.762-15.762-15.762z" fill="#f2d98d"/><path d="m155.762 136.851c-8.705 0-15.762 7.057-15.762 15.762v6.028c0 11.318 9.175 20.493 20.493 20.493h66.863c-11.509-9.524-17.092-28.87-11.774-42.282h-59.82z" fill="#eec076"/><path d="m373.516 386.691c10.79 0 18.654-10.219 15.89-20.648l-2.277-8.596c-3.377-12.747-14.912-21.624-28.099-21.624h-206.06c-13.187 0-24.722 8.877-28.099 21.624l-2.277 8.596c-2.764 10.43 5.1 20.648 15.89 20.648z" fill="#e7c7af"/></g><path d="m461.762 386.691c0 30.594-28.863 42.907-52.656 47.366-12.799 2.398-22.888 12.487-25.287 25.287-4.458 23.793-16.771 52.656-47.366 52.656h35.716c49.481 0 89.593-40.112 89.593-89.593z" fill="#7acefa"/><g fill="#4e5660"><path d="m299.574 434.744h-87.148c-4.142 0-7.5-3.357-7.5-7.5s3.358-7.5 7.5-7.5h87.148c4.143 0 7.5 3.357 7.5 7.5s-3.357 7.5-7.5 7.5z"/><path d="m281.491 476.84h-50.982c-4.142 0-7.5-3.357-7.5-7.5s3.358-7.5 7.5-7.5h50.982c4.143 0 7.5 3.357 7.5 7.5 0 4.142-3.357 7.5-7.5 7.5z"/></g><path d="m461.762 241.194v-120.194c-14.333-12.914-33.303-20.78-54.114-20.78-44.667 0-80.877 36.21-80.877 80.877s36.21 80.877 80.877 80.877c20.811 0 39.782-7.866 54.114-20.78z" fill="#8ee2cf"/><path d="m420.792 188.597h-26.288c-4.143 0-7.5-3.357-7.5-7.5s3.357-7.5 7.5-7.5h26.288c4.143 0 7.5 3.357 7.5 7.5 0 4.142-3.357 7.5-7.5 7.5z" fill="#4e5660"/><path d="m124.871 357.447-2.277 8.596c-2.763 10.43 5.1 20.649 15.89 20.649h19.279c-6.699-15.279-12.24-31.377-16.801-48.26-7.759 3.524-13.802 10.375-16.091 19.015z" fill="#daa985"/></g></svg>