<svg id="Capa_1" enable-background="new 0 0 512 512" height="512" viewBox="0 0 512 512" width="512" xmlns="http://www.w3.org/2000/svg"><g><path d="m127.529 226.949h-98.848c-15.84 0-28.681-12.841-28.681-28.681v-93.855c0-15.84 12.841-28.681 28.681-28.681h115.463v134.603c0 9.175-7.439 16.614-16.615 16.614z" fill="#6ad7be"/><path d="m230.51 189.058h-150.357c-15.84 0-28.681-12.841-28.681-28.681v-93.855c0-15.84 12.841-28.681 28.681-28.681h103.005z" fill="#8ee2cf"/><path d="m183.158 37.841h-47.541c.503 5.137 1.649 10.245 3.461 15.222l49.498 135.995h41.935z" fill="#6ad7be"/><path d="m236.461 230.263h65.777l-76.037-208.911c-5.838-16.04-23.574-24.31-39.612-18.471-16.039 5.837-24.309 23.572-18.471 39.612z" fill="#404656"/><path d="m384.471 226.949h98.848c15.84 0 28.681-12.841 28.681-28.681v-93.855c0-15.84-12.841-28.681-28.681-28.681h-115.463v134.603c0 9.175 7.439 16.614 16.615 16.614z" fill="#e26e7e"/><path d="m281.49 189.058h150.357c15.84 0 28.681-12.841 28.681-28.681v-93.855c0-15.84-12.841-28.681-28.681-28.681h-103.005z" fill="#e7889d"/><path d="m328.842 37.841-47.352 151.217h41.935l49.498-135.995c1.812-4.977 2.958-10.085 3.461-15.222z" fill="#e26e7e"/><path d="m275.539 230.263 68.343-187.771c5.838-16.039-2.432-33.775-18.471-39.612-16.037-5.839-33.774 2.431-39.612 18.471l-76.037 208.911h65.777z" fill="#4e5660"/><g><path d="m357.225 458.298 9.234-19.997c5.225-11.316 5.886-24.21 1.814-35.99-7.261-21.007-18.27-59.315-21.724-106.327h-181.098c-3.454 47.011-14.463 85.32-21.724 106.327-4.072 11.78-3.411 24.674 1.814 35.99l9.234 19.997z" fill="#daa985"/><path d="m356.028 252.185 11.942-26.062c3.44-7.508 5.221-15.67 5.221-23.929v-25.48c0-8.702-7.054-15.756-15.756-15.756h-54.769c-8.702 0-15.756 7.054-15.756 15.756v16.098c0 7.134-5.783 12.918-12.918 12.918h-35.988c-7.134 0-12.918-5.784-12.918-12.918v-16.098c0-8.702-7.054-15.756-15.756-15.756h-54.769c-8.702 0-15.756 7.054-15.756 15.756v25.48c0 8.259 1.781 16.421 5.221 23.929l11.942 26.062z" fill="#daa985"/><path d="m346.549 295.985h-181.098c-1.005 13.686-2.654 26.627-4.661 38.626h190.421c-2.008-11.999-3.656-24.941-4.662-38.626z" fill="#d2896f"/><path d="m152.164 252.185c-9.017 0-16.327 7.31-16.327 16.327v6.245c0 11.724 9.504 21.228 21.228 21.228h197.87c11.724 0 21.228-9.504 21.228-21.228v-6.245c0-9.017-7.31-16.327-16.327-16.327z" fill="#f2d98d"/><path d="m152.164 252.185c-9.017 0-16.327 7.31-16.327 16.327v6.244c0 11.724 9.504 21.228 21.228 21.228h69.263c-11.922-9.866-17.706-29.906-12.197-43.8h-61.967z" fill="#eec076"/><path d="m377.733 510.992c11.177 0 19.323-10.585 16.46-21.39l-2.359-8.904c-3.499-13.204-15.447-22.4-29.108-22.4h-213.453c-13.66 0-25.609 9.195-29.108 22.4l-2.359 8.904c-2.863 10.804 5.283 21.39 16.46 21.39z" fill="#e7c7af"/></g><g><g fill="#fff"><ellipse cx="174.042" cy="419.91" rx="30.241" ry="24.082"/><ellipse cx="337.958" cy="419.91" rx="30.241" ry="24.082"/></g><g fill="#4e5660"><path d="m191.666 404.227c-4.143 0-7.5-3.357-7.5-7.5v-12.362c0-4.143 3.357-7.5 7.5-7.5s7.5 3.357 7.5 7.5v12.362c0 4.143-3.357 7.5-7.5 7.5z"/><path d="m320.333 404.227c-4.143 0-7.5-3.357-7.5-7.5v-12.362c0-4.143 3.357-7.5 7.5-7.5s7.5 3.357 7.5 7.5v12.362c0 4.143-3.357 7.5-7.5 7.5z"/><path d="m256 411.586c-8.669 0-16.911-3.754-22.615-10.299-2.722-3.123-2.395-7.86.727-10.582 3.122-2.721 7.859-2.395 10.582.727 2.854 3.275 6.975 5.154 11.307 5.154 4.331 0 8.452-1.879 11.307-5.154 2.723-3.123 7.457-3.448 10.582-.727 3.122 2.722 3.448 7.459.727 10.582-5.706 6.545-13.948 10.299-22.617 10.299z"/></g></g></g></svg>