<?xml version="1.0" encoding="iso-8859-1"?>
<!-- Generator: Adobe Illustrator 19.0.0, SVG Export Plug-In . SVG Version: 6.00 Build 0)  -->
<svg version="1.1" id="Capa_1" xmlns="http://www.w3.org/2000/svg" xmlns:xlink="http://www.w3.org/1999/xlink" x="0px" y="0px"
	 viewBox="0 0 496 496" style="enable-background:new 0 0 496 496;" xml:space="preserve">
<g>
	<path style="fill:#FFA64D;" d="M143.06,488h8.944c-3.44,0-6.688-0.68-9.792-1.688L143.06,488z"/>
	<path style="fill:#FFA64D;" d="M353.796,486.312c-3.104,1.008-6.352,1.688-9.792,1.688h8.944L353.796,486.312z"/>
	<path style="fill:#FFA64D;" d="M344.092,367.4l-24.088-3.712V416H305.94c-21.448,0-41.744,7.456-57.936,21.144
		C231.812,423.456,211.508,416,190.068,416h-14.064v-52.312l-24.088,3.704c-27.952,4.296-51.728,21.416-65.192,45.504l4.792,1.92
		l29.912,29.92l0.448,0.888C126.196,433.08,137.98,424,152.004,424c17.672,0,32,14.328,32,32s-14.328,32-32,32h96h96
		c-17.672,0-32-14.328-32-32s14.328-32,32-32c14.024,0,25.808,9.08,30.136,21.632l0.448-0.888l31.08-31.088l2.376-2.968
		C394.364,387.768,371.188,371.568,344.092,367.4z"/>
</g>
<g>
	<path style="fill:#333333;" d="M280.004,288h-16c0,8.816-7.184,16-16,16s-16-7.184-16-16h-16c0,17.648,14.352,32,32,32
		C265.652,320,280.004,305.648,280.004,288z"/>
	<path style="fill:#333333;" d="M424.508,427.608c-11.152-35.696-42.24-62.432-79.192-68.12l-41.312-6.352v-8.288
		c26.92-15.624,46.784-42.072,53.488-73.4c19.44-2.712,34.512-19.272,34.512-39.448v-24c0-50.328-26.784-96.712-68.672-122.6
		c3.016-6.84,4.672-14.08,4.672-21.4c0-35.288-35.888-64-80-64s-80,28.712-80,64c0,7.456,1.552,14.672,4.616,21.544
		c-41.088,25.392-68.616,70.712-68.616,122.456v24c0,20.176,15.072,36.736,34.512,39.448c6.704,31.328,26.568,57.776,53.488,73.4
		v8.288l-41.312,6.352c-36.952,5.688-68.048,32.424-78.992,67.536L44.196,496h407.608L424.508,427.608z M208.004,352.488
		c12.44,4.784,25.896,7.512,40,7.512s27.56-2.728,40-7.512v6.344C286.628,363,278.22,384,248.004,384
		c-30.208,0-38.6-20.904-40-25.168V352.488z M359.668,254.632c0.128-2.208,0.336-4.392,0.336-6.632v-38.528
		c9.288,3.312,16,12.112,16,22.528C376.004,242.536,369.132,251.416,359.668,254.632z M120.004,232c0-10.416,6.712-19.216,16-22.528
		V248c0,2.24,0.208,4.424,0.336,6.632C126.876,251.416,120.004,242.536,120.004,232z M136.004,176v16.808
		c-5.768,1.176-11.008,3.688-15.584,7.056C124.644,133.08,180.172,80,248.004,80c10.168,0,20.288,1.192,30.104,3.56L281.852,68
		c-11.032-2.656-22.424-4-33.848-4c-21.904,0-42.592,5.056-61.2,13.848c-1.816-4.472-2.8-9.096-2.8-13.848c0-26.472,28.712-48,64-48
		s64,21.528,64,48c0,4.696-0.992,9.248-2.752,13.648c-3.384-1.6-6.848-3.072-10.384-4.408l-5.656,14.968
		c47,17.744,79.304,62.008,82.48,111.736c-4.6-3.408-9.872-5.952-15.688-7.136V176h-15.432c-34.344,0-66.632-13.376-90.912-37.656
		l-5.656-5.656l-5.656,5.656C218.068,162.624,185.78,176,151.436,176H136.004z M152.004,248v-56c35.8-0.144,69.576-13.2,96-36.976
		c26.424,23.776,60.2,36.832,96,36.976v56c0,52.936-43.064,96-96,96S152.004,300.936,152.004,248z M86.764,432.376
		c9.352-29.896,35.4-52.304,66.368-57.072l41.64-6.408C201.06,382.336,217.188,400,248.004,400s46.944-17.664,53.232-31.104
		l41.64,6.408c30.968,4.768,57.016,27.168,66.568,57.648L428.196,480h-52.4c5.08-6.704,8.208-14.96,8.208-24
		c0-22.056-17.944-40-40-40s-40,17.944-40,40c0,9.04,3.128,17.296,8.208,24H183.796c5.08-6.704,8.208-14.96,8.208-24
		c0-22.056-17.944-40-40-40s-40,17.944-40,40c0,9.04,3.128,17.296,8.208,24H67.804L86.764,432.376z M320.004,456
		c0-13.232,10.768-24,24-24s24,10.768,24,24s-10.768,24-24,24S320.004,469.232,320.004,456z M128.004,456c0-13.232,10.768-24,24-24
		s24,10.768,24,24s-10.768,24-24,24S128.004,469.232,128.004,456z"/>
	<rect x="144.004" y="448" style="fill:#333333;" width="16" height="16"/>
	<rect x="336.004" y="448" style="fill:#333333;" width="16" height="16"/>
	<path style="fill:#333333;" d="M188.004,208c-11.032,0-20,8.968-20,20s8.968,20,20,20c11.032,0,20-8.968,20-20
		S199.036,208,188.004,208z M188.004,232c-2.2,0-4-1.8-4-4s1.8-4,4-4c2.2,0,4,1.8,4,4S190.204,232,188.004,232z"/>
	<path style="fill:#333333;" d="M308.004,248c11.032,0,20-8.968,20-20s-8.968-20-20-20s-20,8.968-20,20S296.972,248,308.004,248z
		 M308.004,224c2.2,0,4,1.8,4,4s-1.8,4-4,4s-4-1.8-4-4S305.804,224,308.004,224z"/>
</g>
<g>
</g>
<g>
</g>
<g>
</g>
<g>
</g>
<g>
</g>
<g>
</g>
<g>
</g>
<g>
</g>
<g>
</g>
<g>
</g>
<g>
</g>
<g>
</g>
<g>
</g>
<g>
</g>
<g>
</g>
</svg>
