<?xml version="1.0" encoding="iso-8859-1"?>
<!-- Generator: Adobe Illustrator 19.0.0, SVG Export Plug-In . SVG Version: 6.00 Build 0)  -->
<svg version="1.1" id="Capa_1" xmlns="http://www.w3.org/2000/svg" xmlns:xlink="http://www.w3.org/1999/xlink" x="0px" y="0px"
	 viewBox="0 0 496 496" style="enable-background:new 0 0 496 496;" xml:space="preserve">
<g>
	<path style="fill:#FFA64D;" d="M29.224,479.288c12.424-20.704,21.192-43.392,25.928-67.064
		c5.584-27.904,23.728-51.664,49.176-64.384c4.776-2.384,9.76-4.32,14.864-5.848c4.632,9.592,12.216,18.84,24.8,23.184V368
		c0,0,8,32,48,32c5.528,0,10.288-1,14.464-2.576l-0.048,2.592C202.336,407.072,200,415.264,200,424c0,2.32,0.224,4.584,0.536,6.816
		L200,432l-24,56H24L29.224,479.288z"/>
	<path style="fill:#FFA64D;" d="M466.776,479.288c-12.424-20.704-21.192-43.392-25.928-67.064
		c-5.576-27.904-23.728-51.664-49.176-64.384c-4.776-2.384-9.76-4.32-14.864-5.848c-4.632,9.592-12.216,18.84-24.8,23.184V368
		c0,0-8,32-48,32c-5.528,0-10.288-1-14.464-2.576l0.048,2.592C293.664,407.072,296,415.264,296,424c0,2.32-0.224,4.584-0.536,6.816
		L296,432l24,56h152L466.776,479.288z"/>
</g>
<g>
	<path style="fill:#333333;" d="M473.632,475.168c-11.984-19.976-20.376-41.688-24.944-64.52
		c-5.4-27.024-21.296-50.056-44.168-64.656c17.144-11.768,27.48-31.12,27.48-52.352c0-26.16-15.688-49.336-39.968-59.048L392,222.48
		c0-42.096-18.544-81.688-50.872-108.632l-10.248,12.296c27.728,23.104,43.872,56.72,44.92,92.664
		c-4.144-4.656-9.584-8.064-15.8-9.68V200h-34.744c-27.048,0-52.472-10.528-71.6-29.656L248,164.688l-5.656,5.656
		C223.216,189.472,197.792,200,170.744,200H136v9.136c-6.216,1.616-11.648,5.024-15.8,9.68c1.048-35.944,17.192-69.56,44.92-92.664
		l-10.248-12.296C122.544,140.8,104,180.392,104,222.48v12.104l-0.024,0.008C79.688,244.304,64,267.48,64,293.64
		c0,21.224,10.336,40.576,27.48,52.352c-22.872,14.6-38.76,37.64-44.16,64.656c-4.568,22.832-12.96,44.544-24.944,64.52L9.864,496
		H160h21.272h133.456H336h150.136L473.632,475.168z M382.816,248.144l3.264,1.304C404.256,256.72,416,274.064,416,293.64
		c0,18.144-10.08,34.456-26.288,42.56l-1.272,0.632l0.52,1.048c-0.432-0.176-0.84-0.392-1.272-0.568
		C390.776,328.2,392,319.088,392,312c0-3.664-2.52-6.808-6.072-7.704c-3.584-0.872-7.296,0.8-9.032,4.024
		C376.64,308.8,370.392,320,352,320c-4.104,0-7.56-1.696-11.096-4.856c8.232-13.4,13.92-28.288,16.816-43.728
		C369.944,269.2,379.672,260.024,382.816,248.144z M336,360c-22.4,0-23.92-13.424-24-16.112L304,344h-8c0,11.072,8.36,32,40,32
		c1.144,0,2.168-0.144,3.272-0.2C333.976,383.168,323.584,392,304,392c-25.192,0-31.968-24.912-32.24-25.936l-15.512,3.872
		c2.176,8.72,9.2,22.568,22.464,30.936C275.464,406.216,266.96,416,248,416c-18.904,0-27.424-9.784-30.688-15.136
		c13.256-8.368,20.264-22.2,22.448-30.92l-15.504-3.912C223.968,367.088,217.192,392,192,392c-19.608,0-29.992-8.824-35.28-16.2
		c1.104,0.056,2.136,0.2,3.28,0.2c31.64,0,40-20.928,40-32h-16c0,0.656-0.272,16-24,16c-22.344,0-32.2-14.856-36.56-28.056
		c5.416,2.384,12.2,4.056,20.56,4.056c16.8,0,26.168-12.496,36.096-25.728C193.544,292.336,208.8,272,248,272
		s54.456,20.336,67.904,38.272C325.832,323.504,335.2,336,352,336c8.36,0,15.136-1.672,20.552-4.056
		C368.2,345.144,358.336,360,336,360z M288,424c0,22.056-17.944,40-40,40s-40-17.944-40-40c0-2.672,0.352-5.304,0.872-7.896
		c6,6.64,15.784,13.552,31.128,15.384V440h16v-8.512c15.344-1.84,25.128-8.744,31.128-15.384C287.648,418.696,288,421.328,288,424z
		 M368,240c0,5.992-3.352,11.16-8.24,13.904c0.088-1.968,0.24-3.928,0.24-5.904v-21.776C364.76,229,368,234.104,368,240z M152,216
		h18.744c28.728,0,55.872-10.256,77.256-29.04c21.384,18.784,48.528,29.04,77.256,29.04H344v32c0,18.928-4.984,37.696-14.112,54.24
		c-0.4-0.528-0.768-1.016-1.184-1.568C314.56,281.816,295.2,256,248,256s-66.56,25.816-80.704,44.672
		c-0.416,0.552-0.784,1.032-1.184,1.568C156.984,285.696,152,266.928,152,248V216z M136,226.224V248c0,1.976,0.152,3.936,0.24,5.904
		C131.352,251.16,128,245.992,128,240C128,234.104,131.24,229,136,226.224z M80,293.64c0-19.576,11.744-36.92,29.92-44.184
		l3.256-1.304c3.144,11.88,12.872,21.056,25.096,23.272c2.904,15.44,8.584,30.328,16.816,43.728C151.56,318.304,148.104,320,144,320
		c-18.392,0-24.64-11.2-24.848-11.576c-1.664-3.328-5.416-5.056-8.992-4.208c-3.608,0.856-6.16,4.072-6.16,7.784
		c0,7.088,1.224,16.208,4.312,25.32c-0.432,0.176-0.848,0.384-1.28,0.568l0.52-1.056l-1.256-0.624
		C90.08,328.096,80,311.784,80,293.64z M160,480H38.088C49.952,459.392,58.336,437.136,63,413.792
		c5.136-25.672,21.504-47.104,44.92-58.8c2.336-1.168,4.744-2.232,7.184-3.176c4.984,7.96,11.992,14.896,21.48,19.288
		c2.44,8.4,9.632,20.72,23.416,28.792V416h16v-9.832c4.84,1.136,10.128,1.832,16,1.832c0.848,0,1.632-0.088,2.456-0.128
		C192.888,413.088,192,418.504,192,424c0,1.92,0.096,3.824,0.288,5.696L170.728,480H160z M248,480h-59.872l11.768-27.472
		C209.68,468.944,227.552,480,248,480s38.32-11.056,48.096-27.472L307.872,480H248z M336,480h-10.728l-21.56-50.304
		C303.904,427.824,304,425.92,304,424c0-5.496-0.888-10.912-2.456-16.128c0.824,0.04,1.608,0.128,2.456,0.128
		c5.872,0,11.16-0.696,16-1.832V416h16v-16.104c13.784-8.072,20.976-20.392,23.416-28.792c9.488-4.392,16.496-11.336,21.48-19.296
		c2.448,0.952,4.856,2.008,7.192,3.184c23.416,11.696,39.784,33.128,44.912,58.8c4.664,23.344,13.048,45.6,24.912,66.208H336z"/>
	<rect x="368" y="368" style="fill:#333333;" width="16" height="32"/>
	<rect x="408" y="424" style="fill:#333333;" width="16" height="32"/>
	<rect x="352" y="432" style="fill:#333333;" width="16" height="32"/>
	<rect x="112" y="368" style="fill:#333333;" width="16" height="32"/>
	<rect x="72" y="424" style="fill:#333333;" width="16" height="32"/>
	<rect x="128" y="432" style="fill:#333333;" width="16" height="32"/>
</g>
<path style="fill:#FFA64D;" d="M344,128H152V16l48,24l48-40l48,40l48-24V128z"/>
<g>
	<path style="fill:#333333;" d="M275.312,72L248,44.688L220.688,72L248,99.312L275.312,72z M248,67.312L252.688,72L248,76.688
		L243.312,72L248,67.312z"/>
	<rect x="296" y="80" style="fill:#333333;" width="16" height="16"/>
	<rect x="184" y="80" style="fill:#333333;" width="16" height="16"/>
	<path style="fill:#333333;" d="M264,280h-32c-13.232,0-24,10.768-24,24s10.768,24,24,24h32c13.232,0,24-10.768,24-24
		S277.232,280,264,280z M264,312h-32c-4.416,0-8-3.584-8-8s3.584-8,8-8h32c4.416,0,8,3.584,8,8S268.416,312,264,312z"/>
	<path style="fill:#333333;" d="M188,264c11.032,0,20-8.968,20-20s-8.968-20-20-20s-20,8.968-20,20C168,255.032,176.968,264,188,264
		z M188,240c2.2,0,4,1.8,4,4s-1.8,4-4,4s-4-1.8-4-4S185.8,240,188,240z"/>
	<path style="fill:#333333;" d="M308,264c11.032,0,20-8.968,20-20s-8.968-20-20-20s-20,8.968-20,20C288,255.032,296.968,264,308,264
		z M308,240c2.2,0,4,1.8,4,4s-1.8,4-4,4s-4-1.8-4-4S305.8,240,308,240z"/>
</g>
<g>
</g>
<g>
</g>
<g>
</g>
<g>
</g>
<g>
</g>
<g>
</g>
<g>
</g>
<g>
</g>
<g>
</g>
<g>
</g>
<g>
</g>
<g>
</g>
<g>
</g>
<g>
</g>
<g>
</g>
</svg>
