<?xml version="1.0" encoding="iso-8859-1"?>
<!-- Generator: Adobe Illustrator 19.0.0, SVG Export Plug-In . SVG Version: 6.00 Build 0)  -->
<svg version="1.1" id="Capa_1" xmlns="http://www.w3.org/2000/svg" xmlns:xlink="http://www.w3.org/1999/xlink" x="0px" y="0px"
	 viewBox="0 0 500.496 500.496" style="enable-background:new 0 0 500.496 500.496;" xml:space="preserve">
<polygon style="fill:#FFA64D;" points="298.248,66.248 266.248,66.248 266.248,34.248 234.248,34.248 234.248,66.248 
	202.248,66.248 202.248,98.248 234.248,98.248 234.248,146.248 266.248,146.248 266.248,98.248 298.248,98.248 "/>
<g>
	<path style="fill:#333333;" d="M161.48,325.096c-2.216,9.072-9.512,16.256-19.064,17.944l-23.352,4.128l2.784,15.752l18.4-3.248
		c4.984,7.2,33.304,42.576,110,42.576s105.016-35.376,109.992-42.584l18.4,3.248l2.784-15.752l-23.352-4.128
		c-9.552-1.688-16.848-8.872-19.064-17.944c42.256-11.584,72.96-26.76,74.816-27.688l6.088-3.048l-2.032-6.496
		c-0.392-1.264-39.632-128.552-39.632-277.608v-8h-256v8c0,148.928-39.24,276.344-39.632,277.616l-2.032,6.496l6.088,3.04
		C88.52,298.328,119.224,313.504,161.48,325.096z M250.248,386.248c-58.488,0-84.648-21.736-93.48-31.512
		c5.664-2.96,10.432-7.208,14.056-12.336c11.272,10.328,36.64,27.848,79.424,27.848c15.152,0,29.472-2.232,42.552-6.648
		l-5.112-15.152c-11.432,3.848-24.032,5.8-37.44,5.8c-39.12,0-60.992-16.288-69.472-24.384c14.216,3.192,29.272,5.8,44.744,7.216
		l8.728,0.8V194.248h-45.576l-18.424-12.28v-19.72h160v19.72l-18.424,12.28h-45.576v143.624l8.728-0.8
		c15.424-1.408,30.448-4.008,44.632-7.192c-3.48,3.28-9.088,7.864-17.144,12.192l7.56,14.096c8.776-4.712,15.256-9.784,19.64-13.784
		c3.624,5.128,8.384,9.376,14.04,12.336C334.888,364.424,308.616,386.248,250.248,386.248z M354.248,303.752v-35.616
		c0-3.056,1.696-5.8,4.424-7.152l31.576-15.792c4.392,18.976,8.2,33.032,10.392,40.728
		C392.232,289.728,375.568,296.832,354.248,303.752z M138.208,18.248h224.08c0.768,83.704,13.432,160.048,24.368,210.848
		l-35.144,17.568c-8.176,4.104-13.264,12.328-13.264,21.472v40.488c-7.624,2.168-15.68,4.208-24,6.04v-56.416h-16v59.56
		c-5.272,0.912-10.6,1.744-16,2.4v-109.96h34.424l29.576-19.72v-44.28h-192v44.28l29.576,19.72h34.424v109.96
		c-5.4-0.656-10.728-1.488-16-2.4v-59.56h-16v56.416c-8.32-1.832-16.368-3.872-24-6.048v-40.48c0-9.144-5.088-17.376-13.264-21.472
		l-35.144-17.568C124.776,178.304,137.44,101.952,138.208,18.248z M110.248,245.192l31.584,15.792
		c2.72,1.36,4.416,4.096,4.416,7.152v35.6c-21.312-6.92-37.976-14.024-46.392-17.832
		C102.048,278.216,105.856,264.168,110.248,245.192z"/>
	<rect x="322.248" y="82.248" style="fill:#333333;" width="16" height="16"/>
	<rect x="162.248" y="82.248" style="fill:#333333;" width="16" height="16"/>
	<polygon style="fill:#333333;" points="482.008,424.312 466.488,428.184 480,482.248 402.248,482.248 402.248,442.248 
		386.248,442.248 386.248,482.248 250.248,482.248 114.248,482.248 114.248,442.248 98.248,442.248 98.248,482.248 20.496,482.248 
		34.008,428.184 18.488,424.312 0,498.248 250.248,498.248 500.496,498.248 	"/>
</g>
<g>
	<path style="fill:#FFA64D;" d="M498.088,424.68c-10.008-50.08-54.352-86.432-105.424-86.432h-22.416v8
		c0,30.456-10.032,55.992-18.456,72.064l9.448,31.672c60.84-2.056,129.888-15.752,130.576-15.888l7.84-1.568L498.088,424.68z"/>
	<path style="fill:#FFA64D;" d="M130.248,346.248v-8h-22.416c-51.072,0-95.408,36.352-105.424,86.432l-1.568,7.84l7.84,1.568
		c0.688,0.144,69.736,13.832,130.576,15.888l9.448-31.672C140.28,402.24,130.248,376.704,130.248,346.248z"/>
</g>
<g>
	<rect x="298.248" y="226.248" style="fill:#333333;" width="16" height="16"/>
	<path style="fill:#333333;" d="M162.248,402.248c-17.648,0-32,14.352-32,32s14.352,32,32,32c10.816,0,20.352-5.424,26.152-13.664
		c10.176,5.104,31.72,13.664,61.848,13.664c30.128,0,51.672-8.56,61.848-13.664c5.8,8.24,15.336,13.664,26.152,13.664
		c17.648,0,32-14.352,32-32s-14.352-32-32-32s-32,14.352-32,32c0,1.096,0.216,2.128,0.32,3.2c-7.384,3.928-27.24,12.8-56.32,12.8
		c-28.84,0-48.864-8.888-56.32-12.824c0.104-1.056,0.32-2.088,0.32-3.176C194.248,416.6,179.896,402.248,162.248,402.248z
		 M338.248,418.248c8.816,0,16,7.176,16,16c0,8.816-7.184,16-16,16s-16-7.184-16-16
		C322.248,425.424,329.432,418.248,338.248,418.248z M162.248,450.248c-8.816,0-16-7.184-16-16c0-8.824,7.184-16,16-16
		s16,7.176,16,16C178.248,443.064,171.064,450.248,162.248,450.248z"/>
	<rect x="186.248" y="226.248" style="fill:#333333;" width="16" height="16"/>
</g>
<g>
</g>
<g>
</g>
<g>
</g>
<g>
</g>
<g>
</g>
<g>
</g>
<g>
</g>
<g>
</g>
<g>
</g>
<g>
</g>
<g>
</g>
<g>
</g>
<g>
</g>
<g>
</g>
<g>
</g>
</svg>
