<?xml version="1.0" encoding="iso-8859-1"?>
<!-- Generator: Adobe Illustrator 19.0.0, SVG Export Plug-In . SVG Version: 6.00 Build 0)  -->
<svg version="1.1" id="Capa_1" xmlns="http://www.w3.org/2000/svg" xmlns:xlink="http://www.w3.org/1999/xlink" x="0px" y="0px"
	 viewBox="0 0 499.52 499.52" style="enable-background:new 0 0 499.52 499.52;" xml:space="preserve">
<g>
	<polygon style="fill:#FFA64D;" points="385.76,169.76 249.76,89.76 113.76,169.76 113.76,217.76 249.76,257.76 385.76,217.76 	"/>
	<rect x="217.76" y="393.76" style="fill:#FFA64D;" width="64" height="96"/>
</g>
<g>
	<rect x="305.76" y="425.76" style="fill:#333333;" width="16" height="16"/>
	<rect x="337.76" y="401.76" style="fill:#333333;" width="16" height="16"/>
	<rect x="177.76" y="417.76" style="fill:#333333;" width="16" height="16"/>
	<rect x="145.76" y="401.76" style="fill:#333333;" width="16" height="16"/>
	<path style="fill:#333333;" d="M491.52,457.76c3.84-4.256,6.24-9.832,6.24-16c0-57.344-46.656-104-104-104
		c-7.08,0-13.392,3.144-17.784,8.04l-18.384-3.248c-11.496-2.032-19.832-11.976-19.832-23.64v-11.288
		c16.408-12.664,30.128-28.904,39.936-47.88l24.568-7.368c9.272-2.8,15.496-11.176,15.496-20.856c0-12-9.76-21.76-22.128-21.76
		c-0.976,0-1.944,0.264-2.92,0.392c0.624-5.44,1.048-10.92,1.048-16.392v-48c0-79.4-64.6-144-144-144s-144,64.6-144,144v48
		c0,5.416,0.416,10.824,1.016,16.2c-1.024-0.128-2.096-0.2-3.256-0.2c-12,0-21.76,9.76-21.76,21.76
		c0,9.68,6.224,18.064,15.504,20.856l24.552,7.36c9.808,18.984,23.528,35.224,39.944,47.888v11.288
		c0,11.672-8.336,21.608-19.832,23.64l-18.384,3.248c-4.392-4.896-10.704-8.04-17.784-8.04c-57.344,0-104,46.656-104,104
		c0,6.168,2.4,11.744,6.24,16l-8,40h249.76h249.76L491.52,457.76z M385.76,361.76c0-4.416,3.584-8,8-8c48.52,0,88,39.48,88,88
		c0,4.416-3.584,8-8,8h-32c-30.872,0-56-25.128-56-56v-24V361.76z M369.76,361.76v8v24v88h-80v-83.704
		c46.968-9.256,66-33.096,69.992-38.888l10.088,1.784C369.832,361.232,369.76,361.488,369.76,361.76z M241.76,433.76v48h-16v-81.352
		c5.056,0.552,10.4,0.912,16,1.096v16.256h16v-16.256c5.6-0.192,10.944-0.552,16-1.096v81.352h-16v-48H241.76z M337.76,209.76
		v15.248l-16,4.448v-88.064l16,9.416v42.952h16v-33.544l24,14.12v19.424c0,6.904-0.632,13.816-1.72,20.616l-22.28,6.192V209.76
		H337.76z M209.76,153.76v84.584l-16-4.448v-101.92l16-9.416v15.2h16v-24.6l16-9.416v143.488l-16-4.44V153.76H209.76z
		 M123.48,214.384c-1.088-6.8-1.72-13.72-1.72-20.624v-19.424l24-14.12v60.352L123.48,214.384z M121.76,145.76
		c0-3.976,0.24-7.888,0.6-11.776l127.4-74.944l127.4,74.944c0.36,3.888,0.6,7.8,0.6,11.776v10.008l-128-75.288l-128,75.296V145.76z
		 M161.76,150.808l16-9.416v88.064l-16-4.44V150.808z M257.76,103.744l16,9.416v129.632l-16,4.448V103.744z M289.76,122.568
		l16,9.416v101.912l-16,4.448V122.568z M249.76,17.76c59.312,0,109.192,40.616,123.648,95.448L249.76,40.48l-123.648,72.728
		C140.568,58.376,190.448,17.76,249.76,17.76z M97.76,231.52c0-3.168,2.584-5.76,6.128-5.76c0.52,0,1.048,0.072,1.536,0.208
		l144.336,40.096l144.312-40.096c0.52-0.136,1.048-0.208,1.928-0.208c3.168,0,5.76,2.584,5.76,5.76c0,2.568-1.648,4.792-4.104,5.52
		L249.76,281.408L101.872,237.04C99.408,236.304,97.76,234.088,97.76,231.52z M144.56,266.552l105.2,31.56l105.192-31.552
		c-23.648,34.08-62.824,55.2-105.192,55.2C207.384,321.76,168.2,300.64,144.56,266.552z M249.76,337.76c25.784,0,50.496-7,72-19.432
		v0.584c0,2.448,0.224,4.848,0.648,7.184c-4.632,5.248-27.032,27.664-72.648,27.664c-45.792,0-67.968-22.304-72.648-27.672
		c0.424-2.336,0.648-4.736,0.648-7.176v-0.576C199.264,330.76,223.976,337.76,249.76,337.76z M170.336,341.904
		c11.264,10.328,36.64,27.856,79.424,27.856s68.16-17.528,79.424-27.856c3.624,5.128,8.376,9.368,14.032,12.336
		c-8.816,9.696-35.088,31.52-93.456,31.52c-58.488,0-84.648-21.736-93.48-31.512C161.944,351.28,166.712,347.04,170.336,341.904z
		 M139.768,359.176c4,5.784,23.032,29.632,69.992,38.888v83.696h-80v-88v-24v-8c0-0.272-0.072-0.528-0.08-0.808L139.768,359.176z
		 M105.76,353.76c4.416,0,8,3.584,8,8v8v24c0,30.872-25.128,56-56,56h-32c-4.416,0-8-3.584-8-8
		C17.76,393.24,57.24,353.76,105.76,353.76z M22.776,465.456c0.992,0.128,1.96,0.304,2.984,0.304h32
		c22.608,0,42.792-10.496,56-26.84v42.84H19.52L22.776,465.456z M385.76,481.76v-42.84c13.208,16.344,33.392,26.84,56,26.84h32
		c1.024,0,1.992-0.176,2.984-0.304L480,481.76H385.76z"/>
</g>
<g>
</g>
<g>
</g>
<g>
</g>
<g>
</g>
<g>
</g>
<g>
</g>
<g>
</g>
<g>
</g>
<g>
</g>
<g>
</g>
<g>
</g>
<g>
</g>
<g>
</g>
<g>
</g>
<g>
</g>
</svg>
