<?xml version="1.0" encoding="iso-8859-1"?>
<!-- Generator: Adobe Illustrator 19.0.0, SVG Export Plug-In . SVG Version: 6.00 Build 0)  -->
<svg version="1.1" id="Capa_1" xmlns="http://www.w3.org/2000/svg" xmlns:xlink="http://www.w3.org/1999/xlink" x="0px" y="0px"
	 viewBox="0 0 497.464 497.464" style="enable-background:new 0 0 497.464 497.464;" xml:space="preserve">
<g>
	<path style="fill:#FFA64D;" d="M129.412,456.512c-5.72-25.736-16.864-49.96-32.68-71.048l-0.304-0.36
		c10.592-12.832,24.544-22.688,40.512-28.192c2.248,54.168,55.792,92.552,55.792,92.552v40h-56L129.412,456.512z"/>
	<path style="fill:#FFA64D;" d="M368.052,456.512c5.72-25.736,16.864-49.96,32.68-71.048l0.304-0.36
		c-10.592-12.832-24.544-22.688-40.512-28.192c-2.248,54.168-55.792,92.552-55.792,92.552v40h56L368.052,456.512z"/>
	<path style="fill:#FFA64D;" d="M248.732,9.464l-152,96l48,56c0,0,32-48,104-48s104,48,104,48l48-56L248.732,9.464z"/>
</g>
<g>
	<rect x="352.732" y="385.464" style="fill:#333333;" width="16" height="16"/>
	<rect x="328.732" y="417.464" style="fill:#333333;" width="16" height="16"/>
	<rect x="304.732" y="449.464" style="fill:#333333;" width="16" height="16"/>
	<rect x="128.732" y="385.464" style="fill:#333333;" width="16" height="16"/>
	<rect x="152.732" y="417.464" style="fill:#333333;" width="16" height="16"/>
	<rect x="176.732" y="449.464" style="fill:#333333;" width="16" height="16"/>
	<path style="fill:#333333;" d="M248.732,321.464c22.056,0,40-17.944,40-40h-16c0,13.232-10.768,24-24,24s-24-10.768-24-24h-16
		C208.732,303.52,226.676,321.464,248.732,321.464z"/>
	<path style="fill:#333333;" d="M248.732,89.464c13.232,0,24-10.768,24-24s-10.768-24-24-24s-24,10.768-24,24
		S235.5,89.464,248.732,89.464z M248.732,57.464c4.416,0,8,3.584,8,8s-3.584,8-8,8s-8-3.584-8-8S244.316,57.464,248.732,57.464z"/>
	<rect x="296.732" y="81.464" style="fill:#333333;" width="16" height="16"/>
	<rect x="184.732" y="81.464" style="fill:#333333;" width="16" height="16"/>
	<rect x="344.732" y="105.464" style="fill:#333333;" width="16" height="16"/>
	<rect x="136.732" y="105.464" style="fill:#333333;" width="16" height="16"/>
	<path style="fill:#333333;" d="M425.236,413.072c-5.912-18.936-17.472-35.296-32.504-47.384V193.464
		c0-18.728-3.704-36.808-10.648-53.952l30.752-35.872L248.732,0L84.628,103.64l30.752,35.872
		c-6.944,17.152-10.648,35.24-10.648,53.952v172.224C89.7,377.776,78.14,394.144,72.22,413.072l-26.368,84.392h189.936h25.888
		h189.936L425.236,413.072z M429.852,481.464h-59.144l5.16-23.216c4.744-21.352,13.224-41.272,25.224-59.376
		c3.696,5.88,6.768,12.2,8.888,18.968L429.852,481.464z M376.732,193.464V355.16c-9.496-5-19.824-8.536-30.688-10.208l-31.744-4.88
		c28.072-20.368,46.432-53.352,46.432-90.608v-85.048l9.56-11.152C374.564,166.16,376.732,179.632,376.732,193.464z M267.94,398
		c3.32-1.216,6.488-2.736,9.48-4.528l17.368,17.368c-4.944,3.504-10.32,6.432-16.048,8.76L267.94,398z M218.724,419.584
		c-5.728-2.32-11.104-5.256-16.048-8.76l17.368-17.36c2.992,1.792,6.16,3.312,9.48,4.528L218.724,419.584z M344.732,193.464h-32v-32
		h-16v32h-40v-32h-16v32h-40v-32h-16v32h-32v-29.4c6.56-8.52,36.52-42.6,96-42.6s89.44,34.08,96,42.6V193.464z M152.732,209.464h192
		v40c0,52.936-43.064,96-96,96s-96-43.064-96-96V209.464z M195.092,361.464h-24.664c-0.216-1.048-0.464-2.088-0.64-3.144
		l23.768-3.656C193.94,356.976,194.428,359.256,195.092,361.464z M202.844,377.464c1.44,2.056,3.032,4,4.736,5.84l-16.968,16.968
		c-6.28-6.68-11.432-14.384-15.136-22.816h27.368V377.464z M209.804,354.344c12.144,4.528,25.224,7.12,38.928,7.12
		c13.704,0,26.784-2.592,38.928-7.12c-4.064,17.784-19.936,31.12-38.928,31.12S213.868,372.128,209.804,354.344z M306.86,400.28
		l-16.968-16.968c1.696-1.848,3.288-3.784,4.736-5.84h27.376C318.292,385.896,313.14,393.592,306.86,400.28z M327.036,361.464
		h-24.664c0.664-2.208,1.152-4.488,1.536-6.8l23.768,3.656C327.5,359.376,327.252,360.416,327.036,361.464z M248.732,18.928
		l139.896,88.36L352.9,148.984c-13.072-14.52-46.368-43.52-104.168-43.52s-91.096,29-104.168,43.512l-35.728-41.696L248.732,18.928z
		 M120.732,193.464c0-13.832,2.168-27.296,6.44-40.2l9.56,11.152v85.048c0,37.256,18.36,70.24,46.432,90.608l-31.744,4.88
		c-10.864,1.672-21.192,5.208-30.688,10.208V193.464z M87.492,417.84c2.12-6.768,5.192-13.088,8.888-18.976
		c12,18.104,20.48,38.024,25.224,59.376l5.152,23.224H67.612L87.492,417.84z M143.156,481.464l-5.928-26.688
		c-5.56-25.016-15.864-48.216-30.536-69.104c12.432-13.024,28.888-22.096,47.168-24.904l0.128-0.016
		c5.28,32.488,27.144,60.336,57.576,73.16l-3.776,7.552l20,40H143.156z M245.676,481.464l-20-40l20-40h6.112l20,40l-20,40H245.676z
		 M289.676,441.464l-3.776-7.552c30.44-12.824,52.296-40.672,57.576-73.16l0.128,0.016c18.28,2.816,34.736,11.888,47.168,24.904
		c-14.672,20.88-24.976,44.08-30.536,69.104l-5.928,26.688h-84.632L289.676,441.464z"/>
	<path style="fill:#333333;" d="M208.732,245.464c0-11.032-8.968-20-20-20s-20,8.968-20,20c0,11.032,8.968,20,20,20
		S208.732,256.496,208.732,245.464z M184.732,245.464c0-2.2,1.8-4,4-4s4,1.8,4,4s-1.8,4-4,4S184.732,247.664,184.732,245.464z"/>
	<path style="fill:#333333;" d="M308.732,265.464c11.032,0,20-8.968,20-20c0-11.032-8.968-20-20-20s-20,8.968-20,20
		C288.732,256.496,297.7,265.464,308.732,265.464z M308.732,241.464c2.2,0,4,1.8,4,4s-1.8,4-4,4s-4-1.8-4-4
		S306.532,241.464,308.732,241.464z"/>
</g>
<g>
</g>
<g>
</g>
<g>
</g>
<g>
</g>
<g>
</g>
<g>
</g>
<g>
</g>
<g>
</g>
<g>
</g>
<g>
</g>
<g>
</g>
<g>
</g>
<g>
</g>
<g>
</g>
<g>
</g>
</svg>
