<svg id="Capa_1" enable-background="new 0 0 512 512" height="512" viewBox="0 0 512 512" width="512" xmlns="http://www.w3.org/2000/svg"><g><path d="m383.033 425.723c34.805-44.044-35.026-123.073-10.54-175.425h-232.986c24.486 52.353-45.345 131.381-10.54 175.425z" fill="#e7c7af"/><ellipse cx="256" cy="28.609" fill="#e7c7af" rx="31.471" ry="28.609"/><path d="m256 38.56c-17.569 0-33.987 5.215-47.95 13.808-3.717 2.287-4.313 7.455-1.228 10.54l13.311 13.311c6.96 6.958 7.04 18.191.242 25.249-7.01 7.279-18.926 7.058-26.072-.088l-11.428-11.427c-3.271-3.271-8.819-2.38-10.845 1.778-5.163 10.598-8.038 21.957-8.038 33.26 0 42.812 41.193 68.605 92.007 68.605s92.007-25.792 92.007-68.605c.001-42.811-41.192-86.431-92.006-86.431z" fill="#daa985"/><path d="m256 193.597c50.49 0 91.474-25.468 91.994-67.792h-183.989c.52 42.324 41.505 67.792 91.995 67.792z" fill="#d2896f"/><path d="m139.507 250.298c4.462 9.54 5.782 19.967 5.185 30.905h222.616c-.598-10.938.723-21.366 5.185-30.905z" fill="#daa985"/><path d="m392.959 250.298h-273.918c-11.194 0-20.269-9.075-20.269-20.269v-2.635c0-11.194 9.075-20.269 20.269-20.269h273.918c11.194 0 20.269 9.075 20.269 20.269v2.635c0 11.194-9.075 20.269-20.269 20.269z" fill="#f2d98d"/><path d="m119.041 207.124c-11.194 0-20.269 9.075-20.269 20.269v2.635c0 11.195 9.075 20.269 20.269 20.269h120.273c-16.697-7.751-16.161-31.773-10.749-43.174h-109.524z" fill="#eec076"/><path d="m371.323 207.124h-230.646c-11.605 0-20.308-10.619-18.028-21.998 3.31-16.523 17.821-28.415 34.672-28.415h197.357c16.852 0 31.362 11.892 34.672 28.415 2.281 11.379-6.422 21.998-18.027 21.998z" fill="#daa985"/><path d="m405.259 464.84h-298.518l-4.159-17.791c-2.547-10.898 5.724-21.325 16.915-21.325h273.004c11.191 0 19.463 10.427 16.915 21.325z" fill="#f2d98d"/><path d="m417.053 464.84h-322.106c-12.226 0-22.92 8.23-26.051 20.047l-2.111 7.969c-2.563 9.67 4.728 19.144 14.731 19.144h348.968c10.003 0 17.294-9.474 14.732-19.143l-2.111-7.969c-3.132-11.819-13.826-20.048-26.052-20.048z" fill="#e7c7af"/><path d="m229.062 464.84h-134.115c-12.226 0-22.92 8.23-26.051 20.047l-2.111 7.969c-2.563 9.67 4.728 19.144 14.731 19.144h159.437c-14.681-9.236-17.044-31.447-11.891-47.16z" fill="#daa985"/><g><g><ellipse cx="169.623" cy="379.766" fill="#fff" rx="31.872" ry="25.381"/><ellipse cx="342.377" cy="379.766" fill="#fff" rx="31.872" ry="25.381"/><ellipse cx="256" cy="360.264" fill="#4e5660" rx="16.918" ry="18.931"/></g><g fill="#4e5660"><path d="m174.951 356.638c-4.143 0-7.5-3.358-7.5-7.5v-12.362c0-4.142 3.357-7.5 7.5-7.5s7.5 3.358 7.5 7.5v12.362c0 4.142-3.357 7.5-7.5 7.5z"/><path d="m337.049 356.638c-4.142 0-7.5-3.358-7.5-7.5v-12.362c0-4.142 3.358-7.5 7.5-7.5 4.143 0 7.5 3.358 7.5 7.5v12.362c0 4.142-3.358 7.5-7.5 7.5z"/></g></g></g></svg>