<svg id="Capa_1" enable-background="new 0 0 512 512" height="512" viewBox="0 0 512 512" width="512" xmlns="http://www.w3.org/2000/svg"><g><path d="m391.208 402.709c-17.266-48.518-33.632-149.713-33.632-183.054h-203.153c0 33.341-16.366 134.536-33.632 183.054z" fill="#e7c7af"/><circle cx="256" cy="68.187" fill="#daa985" r="68.187"/><path d="m357.576 219.655h-203.153c0 7.398-.807 18.142-2.25 30.905h207.653c-1.442-12.763-2.25-23.507-2.25-30.905z" fill="#daa985"/><path d="m371.248 219.655h-230.496c-10.992 0-21.134-5.913-26.55-15.478-6.403-11.308-4.94-25.432 3.644-35.188 10.108-11.487 24.669-18.071 39.97-18.071h196.367c15.301 0 29.863 6.583 39.97 18.071 8.585 9.756 10.047 23.879 3.644 35.188-5.415 9.565-15.557 15.478-26.549 15.478z" fill="#f2d98d"/><path d="m230.069 150.918h-72.253c-15.301 0-29.863 6.583-39.97 18.071-8.585 9.756-10.047 23.879-3.644 35.188 5.416 9.565 15.558 15.478 26.55 15.478h106.824c-25.016-14.455-23.48-48.58-17.507-68.737z" fill="#eec076"/><path d="m416.459 464.84h-320.918l-5.9-17.611c-8.826-26.344 10.776-53.585 38.559-53.585h255.6c27.783 0 47.385 27.241 38.56 53.585z" fill="#f2d98d"/><path d="m417.053 464.84h-322.106c-12.226 0-22.92 8.23-26.051 20.047l-2.111 7.969c-2.563 9.67 4.728 19.144 14.731 19.144h348.968c10.003 0 17.294-9.474 14.732-19.143l-2.111-7.969c-3.132-11.819-13.826-20.048-26.052-20.048z" fill="#e7c7af"/><g><g fill="#fff"><ellipse cx="174.042" cy="349.134" rx="30.241" ry="24.082"/><ellipse cx="337.958" cy="349.134" rx="30.241" ry="24.082"/></g><g fill="#4e5660"><path d="m191.667 333.452c-4.142 0-7.5-3.358-7.5-7.5v-12.362c0-4.142 3.358-7.5 7.5-7.5s7.5 3.358 7.5 7.5v12.362c0 4.142-3.358 7.5-7.5 7.5z"/><path d="m320.333 333.452c-4.142 0-7.5-3.358-7.5-7.5v-12.362c0-4.142 3.358-7.5 7.5-7.5s7.5 3.358 7.5 7.5v12.362c0 4.142-3.357 7.5-7.5 7.5z"/><path d="m256 340.811c-8.669 0-16.912-3.754-22.616-10.3-2.721-3.122-2.396-7.86.727-10.582 3.123-2.721 7.86-2.396 10.582.727 2.854 3.275 6.976 5.154 11.307 5.154s8.452-1.879 11.307-5.154c2.721-3.124 7.46-3.448 10.582-.727 3.123 2.721 3.448 7.459.727 10.582-5.705 6.546-13.948 10.3-22.616 10.3z"/></g></g><path d="m229.062 464.84h-134.115c-12.226 0-22.92 8.23-26.051 20.047l-2.111 7.969c-2.563 9.67 4.728 19.144 14.731 19.144h159.437c-14.681-9.236-17.044-31.447-11.891-47.16z" fill="#daa985"/><path d="m188.213 75.538c3.667 34.201 32.613 60.837 67.787 60.837s64.12-26.636 67.787-60.837z" fill="#d2896f"/><path d="m338.591 106.443h-165.181c-12.281 0-22.237 9.956-22.237 22.237 0 12.281 9.956 22.237 22.237 22.237h165.181c12.281 0 22.237-9.956 22.237-22.237 0-12.281-9.956-22.237-22.237-22.237z" fill="#e7c7af"/></g></svg>