<svg id="Capa_1" enable-background="new 0 0 512 512" height="512" viewBox="0 0 512 512" width="512" xmlns="http://www.w3.org/2000/svg"><g><circle cx="256" cy="48.878" fill="#f2d98d" r="48.878"/><path d="m368.554 166.109c14.96-20.711 23.633-44.493 28.375-65.903 4.381-19.781-15.43-36.38-34.161-28.657-40.156 16.558-70.898 7.149-91.607-8.419-9.016-6.778-21.306-6.778-30.322 0-20.709 15.568-51.451 24.976-91.607 8.419-18.73-7.723-38.541 8.876-34.161 28.657 4.742 21.411 13.415 45.193 28.375 65.903z" fill="#daa985"/><path d="m392.749 415.123c-17.463-44.108-20.257-156.821-20.257-195.731h-232.985c0 38.91-2.794 151.623-20.257 195.731z" fill="#e7c7af"/><g><g fill="#fff"><ellipse cx="169.913" cy="353.459" rx="31.765" ry="25.296"/><ellipse cx="342.087" cy="353.459" rx="31.765" ry="25.296"/></g><g fill="#4e5660"><path d="m188.425 336.297c-4.142 0-7.5-3.358-7.5-7.5v-12.362c0-4.142 3.358-7.5 7.5-7.5s7.5 3.358 7.5 7.5v12.362c0 4.142-3.358 7.5-7.5 7.5z"/><path d="m256 344.338c-8.996 0-17.55-3.896-23.47-10.688-2.721-3.123-2.396-7.86.727-10.582 3.123-2.721 7.859-2.397 10.582.727 3.07 3.523 7.503 5.544 12.162 5.544s9.091-2.02 12.162-5.544c2.722-3.123 7.458-3.447 10.582-.727 3.122 2.722 3.448 7.459.726 10.582-5.921 6.792-14.475 10.688-23.471 10.688z"/><path d="m340.288 335.952c-4.142 0-7.5-3.358-7.5-7.5 0-3.764-3.062-6.826-6.826-6.826s-6.826 3.062-6.826 6.826c0 4.142-3.358 7.5-7.5 7.5s-7.5-3.358-7.5-7.5c0-12.035 9.791-21.826 21.826-21.826s21.826 9.791 21.826 21.826c0 4.142-3.358 7.5-7.5 7.5z"/></g></g><path d="m372.919 250.298c-.315-12.476-.427-23.157-.427-30.905h-232.985c0 7.748-.111 18.429-.427 30.905z" fill="#daa985"/><path d="m126.191 135.203c4.514 10.605 10.173 21.1 17.256 30.906h225.107c7.083-9.806 12.741-20.301 17.256-30.906z" fill="#d2896f"/><path d="m374.254 219.393h-236.508c-10.866 0-20.446-7.125-23.571-17.532-5.351-17.816 7.989-35.752 26.591-35.752h230.468c18.603 0 31.943 17.936 26.591 35.752-3.125 10.406-12.705 17.532-23.571 17.532z" fill="#f2d98d"/><path d="m417.053 464.84h-322.106c-12.226 0-22.92 8.23-26.051 20.047l-2.111 7.969c-2.563 9.67 4.728 19.144 14.731 19.144h348.968c10.003 0 17.294-9.474 14.732-19.143l-2.111-7.969c-3.132-11.819-13.826-20.048-26.052-20.048z" fill="#e7c7af"/><path d="m229.062 464.84h-134.115c-12.226 0-22.92 8.23-26.051 20.047l-2.112 7.969c-2.562 9.67 4.729 19.144 14.732 19.144h159.437c-14.681-9.236-17.044-31.447-11.891-47.16z" fill="#daa985"/><path d="m414.402 464.84c23.043-5.375 25.033-49.716-19.478-49.716h-277.848c-44.511 0-42.521 44.341-19.478 49.716z" fill="#f2d98d"/><path d="m220.302 166.109h-79.536c-18.603 0-31.943 17.936-26.592 35.752 3.126 10.406 12.706 17.532 23.571 17.532h97.967c-19.442-10.718-21.635-38.33-15.41-53.284z" fill="#eec076"/></g></svg>