<svg id="Capa_1" enable-background="new 0 0 512 512" height="512" viewBox="0 0 512 512" width="512" xmlns="http://www.w3.org/2000/svg"><g><path d="m263.792 450.992 31.34-38.041c2.063-2.504 5.204-3.864 8.442-3.656l92.99 5.997-22.172-136.162 86.474-73.459c6.286-5.34 3.863-15.556-4.151-17.505l-71.982-17.505c-4.958-1.206-8.237-5.922-7.641-10.99l8.914-75.781c1.04-8.84-9.039-14.603-16.13-9.222l-58.43 44.336c-4.944 3.751-12.069 2.196-15.001-3.273l-31.547-58.856c-3.807-7.102-13.99-7.102-17.797 0l-31.547 58.856c-2.932 5.47-10.057 7.024-15.001 3.273l-58.43-44.336c-7.091-5.381-17.17.382-16.13 9.222l8.914 75.781c.596 5.068-2.683 9.784-7.641 10.99l-71.982 17.505c-8.014 1.949-10.437 12.165-4.151 17.505l86.473 73.459-22.172 136.163 92.99-5.997c3.238-.209 6.379 1.151 8.442 3.656l31.34 38.041c4.04 4.901 11.548 4.901 15.586-.001z" fill="#f2d98d"/><path d="m260.152 179.012 58.045-22.556c8.381-3.257 17.077 3.964 15.417 12.8l-12.104 64.416c-.211 1.12-.253 2.265-.125 3.398l8.631 76.745c.417 3.705-.995 7.381-3.784 9.855l-62.624 55.558c-4.34 3.85-10.873 3.85-15.213 0l-62.624-55.558c-2.789-2.474-4.2-6.15-3.784-9.855l8.631-76.745c.127-1.133.085-2.278-.125-3.398l-12.104-64.416c-1.66-8.837 7.036-16.057 15.417-12.8l58.045 22.556c2.668 1.038 5.63 1.038 8.301 0z" fill="#e7889d"/><g><g><path d="m471.936 319.91c-27.823-14.992-65.549-40.556-76.69-50.268l-74.055 74.055c9.712 11.141 35.276 48.867 50.268 76.69z" fill="#daa985"/><path d="m508.313 339.426-117.337 117.338c-5.712 5.712-15.251 4.639-19.551-2.199l-5.653-8.99c-4.404-7.004-3.378-16.122 2.472-21.973l106.908-106.908c5.85-5.85 14.969-6.876 21.973-2.472l8.99 5.653c6.838 4.301 7.911 13.839 2.198 19.551z" fill="#f2d98d"/><path d="m415.531 376.315-47.287 47.287c-5.85 5.85-6.876 14.969-2.472 21.973l5.653 8.99c4.3 6.839 13.839 7.912 19.551 2.199l34.614-34.614c-8.75-8.76-14.113-22.914-10.059-45.835z" fill="#eec076"/><ellipse cx="311.524" cy="259.975" fill="#daa985" rx="55.524" ry="55.524" transform="matrix(.707 -.707 .707 .707 -92.587 296.426)"/><path d="m421.355 288.788c-11.669-7.906-21.334-14.983-26.109-19.146l-74.055 74.055c4.163 4.775 11.24 14.44 19.146 26.109z" fill="#d2896f"/><path d="m362.755 232.285-78.92 78.92c-9.644 9.644-9.644 25.28 0 34.924 9.644 9.644 25.28 9.644 34.924 0l78.92-78.92c9.644-9.644 9.644-25.28 0-34.924-9.644-9.644-25.28-9.644-34.924 0z" fill="#eec076"/></g><g><path d="m140.54 420.386c14.992-27.823 40.556-65.549 50.268-76.69l-74.055-74.055c-11.141 9.712-48.867 35.276-76.69 50.268z" fill="#daa985"/><path d="m121.024 456.764-117.337-117.338c-5.712-5.712-4.639-15.251 2.2-19.551l8.99-5.653c7.004-4.404 16.122-3.378 21.973 2.472l106.908 106.908c5.85 5.85 6.876 14.969 2.472 21.973l-5.653 8.99c-4.302 6.838-13.84 7.911-19.553 2.199z" fill="#f2d98d"/><path d="m70.427 350.273-33.578-33.578c-5.85-5.85-14.969-6.876-21.973-2.472l-8.99 5.653c-6.839 4.3-7.912 13.839-2.2 19.551l61.311 61.311c-6.637-18.622-1.883-41.948 5.43-50.465z" fill="#eec076"/><ellipse cx="200.476" cy="259.975" fill="#daa985" rx="55.524" ry="55.524" transform="matrix(.845 -.535 .535 .845 -107.936 147.459)"/><path d="m171.663 369.806c7.906-11.669 14.983-21.334 19.146-26.109l-74.055-74.055c-4.775 4.163-14.44 11.24-26.109 19.146z" fill="#d2896f"/><path d="m228.165 311.206-78.92-78.92c-9.644-9.644-25.28-9.644-34.924 0-9.644 9.644-9.644 25.28 0 34.924l78.92 78.92c9.644 9.644 25.28 9.644 34.924 0 9.644-9.644 9.644-25.28 0-34.924z" fill="#eec076"/></g></g></g></svg>