<svg id="Capa_1" enable-background="new 0 0 512.02 512.02" height="512" viewBox="0 0 512.02 512.02" width="512" xmlns="http://www.w3.org/2000/svg"><g><path d="m433.415 334.919-60.308 60.308 60.144 60.144c14.601 14.601 38.273 14.601 52.873 0l7.435-7.435c14.601-14.601 14.601-38.273 0-52.873z" fill="#e7889d"/><path d="m412.346 434.466 20.905 20.905c14.601 14.601 38.273 14.601 52.873 0l7.435-7.435c14.601-14.601 14.601-38.273 0-52.873l-20.905-20.905z" fill="#e7c7af"/><g fill="#a3defe"><path d="m64.191 320.505 89.136 89.136c7.434 7.434 19.488 7.434 26.922 0l13.952-13.951c7.434-7.434 7.434-19.488 0-26.922l-89.137-89.137c-7.434-7.434-19.487-7.434-26.922 0l-13.951 13.952c-7.434 7.434-7.434 19.488 0 26.922z"/><path d="m78.605 334.919 60.308 60.308-60.144 60.144c-14.601 14.601-38.273 14.601-52.873 0l-7.435-7.435c-14.601-14.601-14.601-38.273 0-52.873z"/><path d="m99.674 434.466-20.905 20.905c-14.601 14.601-38.273 14.601-52.873 0l-7.435-7.435c-14.601-14.601-14.601-38.273 0-52.873l20.905-20.905z"/><path d="m254.36 132.356 60.749-5.922c18.53-1.806 34.095 13.76 32.289 32.289l-5.922 60.749c-2.587 26.541-17.996 50.137-41.257 63.178l-123.115 69.022-54.945-54.944 69.022-123.115c13.042-23.261 36.638-38.67 63.179-41.257z"/></g><path d="m153.327 409.641-89.136-89.136c-7.434-7.434-7.434-19.488 0-26.922l13.951-13.952c7.434-7.434 19.488-7.434 26.922 0l89.137 89.137c7.434 7.434 7.434 19.487 0 26.922l-13.952 13.951c-7.434 7.435-19.487 7.435-26.922 0z" fill="#f2d98d"/><path d="m138.913 395.227-60.308-60.308-60.144 60.144c-14.601 14.601-14.601 38.273 0 52.873l7.435 7.435c14.6 14.601 38.273 14.601 52.873 0z" fill="#e7889d"/><path d="m39.366 374.158-20.905 20.905c-14.601 14.601-14.601 38.273 0 52.873l7.435 7.435c14.6 14.601 38.273 14.601 52.873 0l20.905-20.905z" fill="#e7c7af"/><path d="m341.476 219.472 5.922-60.749c1.806-18.529-13.76-34.095-32.289-32.289l-60.749 5.922c-26.541 2.587-50.137 17.996-63.178 41.257l-69.022 123.115 54.945 54.944 123.115-69.022c23.26-13.041 38.669-36.637 41.256-63.178z" fill="#a3defe"/><path d="m347.399 158.723c1.806-18.53-13.76-34.095-32.289-32.289l-60.749 5.922c-26.541 2.587-50.137 17.996-63.178 41.257l-43.637 77.834c9.217 24.042 26.604 44.487 49.585 57.37l28.207 15.814 74.882-41.982c23.261-13.041 38.67-36.637 41.257-63.178z" fill="#7acefa"/><path d="m257.66 132.356-60.749-5.922c-18.53-1.806-34.095 13.76-32.289 32.289l5.922 60.749c2.587 26.541 17.996 50.137 41.257 63.178l123.115 69.022 54.945-54.944-69.022-123.115c-13.042-23.261-36.638-38.67-63.179-41.257z" fill="#a3defe"/><path d="m307.73 336.431 27.186 15.241 54.944-54.944-15.241-27.186z" fill="#7acefa"/><path d="m447.829 320.505-89.136 89.136c-7.434 7.434-19.488 7.434-26.922 0l-13.951-13.951c-7.434-7.434-7.434-19.488 0-26.922l89.137-89.137c7.434-7.434 19.488-7.434 26.922 0l13.951 13.952c7.434 7.434 7.434 19.488-.001 26.922z" fill="#f2d98d"/><path d="m366.661 319.927-48.841 48.841c-7.434 7.434-7.434 19.487 0 26.922l13.952 13.951c7.434 7.434 19.487 7.434 26.922 0l29.322-29.322c-11.139-10.402-22.927-37.485-21.355-60.392z" fill="#eec076"/><path d="m134.316 308.883-29.252-29.252c-7.434-7.434-19.487-7.434-26.922 0l-13.951 13.952c-7.434 7.434-7.434 19.487 0 26.922l64.837 64.837c-13.414-23.788-7.363-61.409 5.288-76.459z" fill="#eec076"/><path d="m113.989 192.651c2.929 2.929 7.678 2.929 10.606 0 2.929-2.929 2.929-7.678 0-10.606l-33.659-33.659c-2.929-2.929-7.678-2.929-10.606 0-2.929 2.929-2.929 7.678 0 10.606zm142.021-94.434c4.142 0 7.5-3.358 7.5-7.5v-45.051c0-4.142-3.358-7.5-7.5-7.5s-7.5 3.358-7.5 7.5v45.051c0 4.142 3.358 7.5 7.5 7.5zm142.021 94.434 33.659-33.659c2.929-2.929 2.929-7.678 0-10.606-2.929-2.929-7.678-2.929-10.607 0l-33.659 33.659c-2.929 2.929-2.929 7.678 0 10.606 2.93 2.929 7.678 2.929 10.607 0zm-161.843-5.258c-2.929-2.929-7.678-2.929-10.606 0-2.929 2.929-2.929 7.678 0 10.607l75.766 75.766c2.929 2.929 7.678 2.929 10.606 0 2.929-2.929 2.929-7.678 0-10.606zm262.675 202.367-54.841-54.841 9.111-9.111c10.37-10.369 10.372-27.157 0-37.528l-13.951-13.952c-10.347-10.346-27.183-10.346-37.528.001l-10.094 10.094-41.639-74.27 3.344-34.298c.402-4.123-2.615-7.79-6.737-8.192-4.124-.396-7.79 2.615-8.192 6.737l-1.253 12.853-9.702-17.306c-8.05-14.359-19.8-25.982-33.729-33.884l22.187-2.163c8.399-.826 16.402 3.132 20.884 10.31 2.2 3.523 6.83 4.577 10.334 2.389 3.513-2.194 4.583-6.82 2.389-10.334-7.52-12.042-20.956-18.666-35.062-17.294l-58.374 5.69-58.37-5.69c-23.257-2.266-42.744 17.274-40.482 40.481l4.943 50.702-41.639 74.27-10.094-10.094c-10.369-10.37-27.157-10.372-37.528 0l-13.952 13.95c-10.37 10.369-10.372 27.157 0 37.528l9.111 9.111-54.841 54.841c-17.542 17.541-17.545 45.935-.001 63.48l7.435 7.435c12.111 12.111 29.727 16.259 45.975 10.839 3.929-1.311 6.052-5.559 4.741-9.488s-5.557-6.052-9.488-4.741c-10.826 3.612-22.559.846-30.621-7.216l-7.435-7.435c-11.68-11.68-11.682-30.585 0-42.267l15.602-15.602 49.702 49.702-3.28 3.28c-2.929 2.929-2.929 7.678 0 10.607s7.678 2.929 10.606 0c15.652-15.652 28.086-28.086 42.519-42.52l9.111 9.111c10.371 10.371 27.157 10.372 37.528 0l13.952-13.951c10.346-10.347 10.346-27.182 0-37.528l-10.094-10.094 66.6-37.338 66.6 37.338-10.094 10.094c-10.346 10.346-10.347 27.181 0 37.528l13.951 13.951c10.372 10.372 27.157 10.372 37.529 0l9.111-9.111c20.848 20.848 34.183 34.184 54.841 54.841 17.499 17.5 45.978 17.502 63.48 0l7.434-7.435c17.542-17.541 17.546-45.935.001-63.48zm-399.189 34.1-49.702-49.702 28.632-28.633 49.702 49.702zm89.223-33.473-13.952 13.951c-4.508 4.509-11.806 4.509-16.314 0-.001 0-.001 0-.001 0l-89.137-89.136c-4.498-4.498-4.498-11.817 0-16.315l13.952-13.952c4.498-4.498 11.817-4.498 16.315 0 100.499 100.499-34.074-34.072 89.137 89.137 4.498 4.498 4.498 11.817 0 16.315zm-10.506-48.035-46.912-46.912 34.186-60.977c6.136 23.027 21.338 42.882 42.468 54.728l32.541 18.243zm37.078-66.244c-21.108-11.834-35.112-33.278-37.46-57.363l-5.922-60.749c-1.348-13.822 10.254-25.438 24.097-24.097.117.011 60.862 5.933 60.749 5.922 24.085 2.348 45.529 16.352 57.363 37.46l66.245 118.16-46.912 46.912zm137.921 128.23c-4.509 4.509-11.806 4.51-16.315 0l-13.951-13.951c-4.499-4.498-4.499-11.817 0-16.316 31.098-31.097 58.05-58.05 89.137-89.137 4.5-4.499 11.817-4.497 16.315 0l13.951 13.952c4.498 4.498 4.498 11.817 0 16.315zm30.324-9.111 49.702-49.702 28.632 28.633-49.702 49.702zm104.542 47.406-7.434 7.435c-11.652 11.653-30.614 11.653-42.267 0l-15.602-15.602 49.702-49.702 15.602 15.602c11.679 11.681 11.681 30.586-.001 42.267z"/></g></svg>