<svg id="Capa_1" enable-background="new 0 0 512.009 512.009" height="512" viewBox="0 0 512.009 512.009" width="512" xmlns="http://www.w3.org/2000/svg"><g><path d="m45.279 284.948c-15.506-11.121-19.061-32.706-7.94-48.212 31.382-43.755 119.695-109.706 171.809-128.305 17.973-6.41 37.739 2.957 44.153 20.927 6.414 17.971-2.956 37.74-20.927 44.154-41.122 14.676-117.883 74.217-138.883 103.497-11.152 15.548-32.749 19.031-48.212 7.939z" fill="#ffbe9d"/><g><path d="m335.479 467.456c-8.506-28.383-16.568-70.34-17.515-84.163h-98.185c-.947 13.823-9.009 55.78-17.515 84.163z" fill="#daa985"/><path d="m346.657 504.509h-155.571c-7.574 0-13.186-7.035-11.503-14.419l2.212-9.707c1.723-7.562 8.448-12.927 16.205-12.927h141.743c7.756 0 14.481 5.365 16.205 12.927l2.212 9.707c1.683 7.384-3.929 14.419-11.503 14.419z" fill="#f2d98d"/><path d="m254.908 467.456h-56.908c-7.757 0-14.481 5.365-16.205 12.927l-2.212 9.707c-1.683 7.384 3.929 14.419 11.503 14.419h73.166c-7.998-7.366-12.457-21.886-9.344-37.053z" fill="#eec076"/><ellipse cx="268.871" cy="321.383" fill="#daa985" rx="52.055" ry="52.055" transform="matrix(.707 -.707 .707 .707 -148.501 284.252)"/><path d="m322.58 413.293c-2.495-12.977-4.21-24.076-4.616-30h-98.185c-.406 5.925-2.121 17.024-4.616 30z" fill="#d2896f"/><path d="m321.189 336.989h-104.635c-12.786 0-23.152 10.365-23.152 23.152 0 12.786 10.365 23.152 23.152 23.152h104.636c12.786 0 23.152-10.365 23.152-23.152-.001-12.787-10.366-23.152-23.153-23.152z" fill="#f2d98d"/><path d="m259.081 336.989h-42.528c-12.786 0-23.152 10.365-23.152 23.152s10.365 23.152 23.152 23.152h52.318c-8.808-9.772-13.191-34.664-9.79-46.304z" fill="#eec076"/></g><path d="m438.992 163.019c38.545-18.76 53.503-66.019 32.734-103.565-16.964-31.829-37.599-46.284-63.841-50.192-78.795-11.733-143.512 38.174-197.308 67.634-28.606 15.666-113.152 82.097-113.152 254.792 0 19.081 15.469 34.55 34.55 34.55s34.55-15.469 34.55-34.55c0-32.003 13.284-67.016 35.536-93.658 40.389-48.359 100.648-58.305 141.452-10.977 22.811 26.458 33.75 64.603 28.547 99.547-2.81 18.873 10.212 36.452 29.085 39.262 18.805 2.806 36.443-10.155 39.262-29.086 2.743-18.423 2.691-37.158.075-55.504l.013.01c-5.687-40.784-31.918-104.282-1.503-118.263z" fill="#ffd3bd"/><path d="m363.261 478.716c-2.414-10.59-11.409-18.099-22.132-18.701-6.66-23.61-12.61-53.547-14.834-69.655 14.479-2.439 25.547-15.058 25.547-30.219 0-14.642-10.323-26.912-24.071-29.932 5.392-36.193-22.766-68.38-58.899-68.38-36.16 0-64.287 32.213-58.899 68.38-13.748 3.021-24.071 15.29-24.071 29.932 0 15.162 11.068 27.78 25.547 30.219-2.224 16.107-8.174 46.045-14.834 69.655-10.723.602-19.718 8.111-22.132 18.702l-2.212 9.707c-2.756 12.091 6.44 23.585 18.815 23.585h8.361c4.142 0 7.5-3.357 7.5-7.5s-3.358-7.5-7.5-7.5h-8.361c-2.757 0-4.805-2.554-4.19-5.253l2.212-9.706c.952-4.177 4.609-7.094 8.893-7.094.1 0 151.34.003 141.743 0 4.284 0 7.941 2.917 8.892 7.093l2.212 9.707c.615 2.699-1.433 5.253-4.19 5.253h-111.67c-4.142 0-7.5 3.357-7.5 7.5s3.358 7.5 7.5 7.5h111.669c12.401 0 21.565-11.519 18.815-23.585zm-94.39-201.888c27.601 0 48.887 25.077 43.813 52.661h-87.626c-5.073-27.58 16.209-52.661 43.813-52.661zm-67.969 83.313c0-8.63 7.021-15.651 15.652-15.651 6.743 0 111.182.002 104.636 0 8.63 0 15.652 7.022 15.652 15.651 0 8.631-7.021 15.652-15.652 15.652h-104.636c-8.631 0-15.652-7.022-15.652-15.652zm11.285 99.815c6.319-23.366 12.214-52.683 14.344-69.163h84.679c2.13 16.481 8.025 45.798 14.344 69.163zm266.13-404.083c-3.587-6.725-7.429-12.863-11.417-18.246-2.466-3.328-7.163-4.025-10.491-1.562-3.328 2.466-4.027 7.163-1.561 10.491 4.565 6.162 7.059 10.699 10.316 16.527 18.668 33.75 5.341 76.212-29.386 93.159-36.807 17.039-8.778 83.54-2.721 126.087 2.556 17.924 2.533 35.87-.069 53.341-2.209 14.843-16.016 24.97-30.739 22.772-14.787-2.202-24.974-15.951-22.771-30.739 9.735-65.389-34.126-138.972-98.655-138.972-.226 0-.456.001-.683.003-65.761.514-121.115 75.03-121.115 142.952 0 14.916-12.135 27.051-27.05 27.051s-27.05-12.135-27.05-27.051c0-63.129 11.383-128.157 44.736-182.351 26.299-42.731 56.032-61.215 64.519-65.862 54.25-29.71 116.77-78.083 192.601-66.792 9.063 1.35 16.989 3.987 24.23 8.066 3.609 2.032 8.183.754 10.215-2.854 2.033-3.609.755-8.183-2.854-10.216-8.865-4.992-18.477-8.209-29.382-9.832-81.308-12.118-146.923 38.303-202.016 68.474-11.513 6.305-40.529 25.178-67.233 66.63-46.144 30.372-88.625 67.711-108.497 95.417-13.513 18.842-9.178 45.164 9.663 58.678 15.756 11.301 36.5 10.105 50.74-1.296-1.145 13.552-1.723 27.535-1.723 41.941 0 23.186 18.864 42.051 42.05 42.051s42.05-18.864 42.05-42.051c0-60.027 49.206-127.507 106.233-127.953.185-.001.368-.002.552-.002 55.175 0 92.194 65.592 83.831 121.763-3.422 22.982 12.407 44.362 35.397 47.784 22.918 3.422 44.356-12.358 47.787-35.399 2.924-19.639 2.728-38.581.098-57.634-5.354-38.402-29.228-99.386-5.648-110.482 42.376-20.626 58.91-72.485 36.043-113.893zm-383.688 207.817c-2.852 3.225-5.283 6.23-7.232 8.947-8.737 12.18-25.628 14.909-37.747 6.216-12.121-8.692-14.909-25.626-6.216-37.746 15.039-20.969 45.324-48.982 79.667-74.277-13.755 28.775-23.268 61.147-28.472 96.86z"/></g></svg>