<svg id="Capa_1" enable-background="new 0 0 512 512" height="512" viewBox="0 0 512 512" width="512" xmlns="http://www.w3.org/2000/svg"><g><path d="m195.563 330.185 105.046-225.272-169.366 169.366c10.942 10.942 31.622 32.558 52.824 57.446 3.258 3.823 9.373 3.012 11.496-1.54z" fill="#daa985"/><path d="m124.265 71.338-26.129-26.128 3.898-3.898c2.93-2.929 2.93-7.678.001-10.606-2.929-2.929-7.678-2.93-10.606-.001l-3.899 3.899-10.186-10.186c-2.93-2.928-7.678-2.928-10.607 0-2.929 2.93-2.929 7.678 0 10.607l10.185 10.185-3.898 3.898c-2.93 2.929-2.93 7.678-.001 10.606 2.928 2.928 7.677 2.931 10.606.001l3.899-3.899 26.129 26.128c2.931 2.929 7.678 2.928 10.607 0s2.929-7.676.001-10.606z" fill="#e7c7af"/><path d="m92.305 221.495 171.51-171.51c-6.333-9.898-14.456-23.708-21.137-36.008-7.52-13.845-25.277-18.199-38.385-9.457-33.518 22.355-68.536 55.325-85.331 72.121-16.796 16.796-49.766 51.813-72.121 85.331-8.742 13.108-4.388 30.865 9.457 38.385 12.299 6.682 26.109 14.806 36.007 21.138z" fill="#daa985"/><path d="m263.814 49.985c-4.877-7.622-10.814-17.565-16.339-27.351-.103.101-.211.196-.313.299l-181.912 181.91c-.102.102-.196.21-.298.313 9.787 5.524 19.729 11.462 27.352 16.339z" fill="#d2896f"/><path d="m155.097 299.161 102.929-102.929 42.583-91.32-169.366 169.367c5.725 5.725 14.118 14.375 23.854 24.882z" fill="#d2896f"/><path d="m317.391 93.162-181.91 181.91c-10.881 10.881-28.521 10.881-39.402 0l-8.974-8.974c-10.881-10.881-10.88-28.521 0-39.402l181.91-181.91c10.881-10.88 28.522-10.881 39.402 0l8.974 8.974c10.881 10.88 10.88 28.521 0 39.402z" fill="#f2d98d"/><path d="m87.104 226.696c-10.881 10.881-10.881 28.521 0 39.402l8.974 8.974c10.881 10.881 28.521 10.881 39.402 0l75.472-75.472c-25.418 2.712-51.672-18.838-60.681-36.072z" fill="#eec076"/><g><path d="m132.169 433.369h307.712c-18.213-45.553-22.244-136.953-22.735-176.955-.058-4.686-3.875-8.446-8.562-8.446h-5.266c-5.847 0-11.649 1.023-17.144 3.023l-224.144 81.581c-6.853 2.494-11.661 8.68-12.438 15.931-3.397 31.686-8.831 63.377-17.423 84.866z" fill="#daa985"/></g><path d="m220.675 311.227-58.645 21.345c-6.853 2.495-11.661 8.68-12.438 15.932-3.397 31.685-8.831 63.376-17.423 84.865h105.684c-16.624-28.163-22.835-78.53-17.178-122.142z" fill="#d2896f"/><g><g fill="#fff"><ellipse cx="202.949" cy="392.231" rx="30.654" ry="24.411"/><ellipse cx="369.101" cy="392.375" rx="30.654" ry="24.411"/></g><g fill="#4e5660"><path d="m220.835 376.092c-.002 0-.003 0-.006 0-4.142-.003-7.497-3.363-7.494-7.506l.009-12.234c.003-4.14 3.36-7.494 7.5-7.494h.006c4.142.003 7.497 3.363 7.494 7.506l-.009 12.234c-.003 4.139-3.36 7.494-7.5 7.494z"/><path d="m351.258 376.22c-.002 0-.003 0-.006 0-4.142-.003-7.497-3.363-7.494-7.506l.009-12.234c.003-4.14 3.36-7.494 7.5-7.494h.006c4.142.003 7.497 3.363 7.494 7.506l-.009 12.234c-.003 4.139-3.361 7.494-7.5 7.494z"/><path d="m303.233 381.603c-.002 0-.004 0-.007 0l-34.386-.029c-4.142-.004-7.497-3.364-7.493-7.507.004-4.14 3.36-7.493 7.5-7.493h.007l34.386.029c4.142.004 7.497 3.364 7.493 7.507-.004 4.139-3.36 7.493-7.5 7.493z"/></g></g><path d="m423.745 426.128h-275.439c-17.43 0-32.819 11.378-37.928 28.043l-6.776 22.102c-5.446 17.76 7.838 35.727 26.416 35.727h312.015c18.578 0 31.862-17.967 26.416-35.728l-6.776-22.102c-5.109-16.665-20.498-28.042-37.928-28.042z" fill="#e7c7af"/><path d="m338.083 158.268c-2.929-2.93-2.929-7.678 0-10.607l63.37-63.37c2.93-2.928 7.678-2.928 10.607 0 2.929 2.93 2.929 7.678 0 10.607l-63.37 63.37c-2.93 2.928-7.677 2.927-10.607 0z" fill="#e7889d"/><path d="m452.282 203.314h-68.758c-4.143 0-7.5-3.357-7.5-7.5s3.357-7.5 7.5-7.5h68.758c4.143 0 7.5 3.357 7.5 7.5s-3.357 7.5-7.5 7.5z" fill="#b0ade2"/></g></svg>