<svg id="Capa_1" enable-background="new 0 0 512 512" height="512" viewBox="0 0 512 512" width="512" xmlns="http://www.w3.org/2000/svg"><g><path d="m294.424 340.69h-218.193c-19.636 0-35.555 15.918-35.555 35.555 0 9.244 3.53 17.663 9.313 23.986h-14.434c-19.637 0-35.555 15.919-35.555 35.555 0 19.636 15.918 35.555 35.555 35.555h258.87v-130.651z" fill="#a3defe"/><path d="m347.9 269.897h-218.194c-19.636 0-35.555-15.918-35.555-35.555 0-19.636 15.918-35.555 35.555-35.555h218.194z" fill="#a3defe"/><g fill="#7acefa"><path d="m347.899 269.897v-71.109h-215.044c.314 5.188 1.234 10.394 2.777 15.53 5.551 18.482 18.681 32.839 35.439 40.135-.128 5.128-.289 10.285-.479 15.444z"/><path d="m294.424 471.341v-130.651h-128.624c-1.749 16.639-3.895 31.612-6.431 43.599-9.213 2.942-17.89 7.542-25.516 13.619-14.091 11.231-24.065 27.089-28.085 44.655l-6.585 28.778z"/><path d="m89.073 407.731h-39.084c-4.142 0-7.5-3.358-7.5-7.5s3.358-7.5 7.5-7.5h39.083c4.142 0 7.5 3.358 7.5 7.5.001 4.143-3.357 7.5-7.499 7.5z"/></g><circle cx="322.298" cy="48.159" fill="#f2d98d" r="48.159"/><path d="m433.196 163.665c14.74-20.406 23.286-43.838 27.957-64.934 4.316-19.49-15.203-35.844-33.658-28.235-39.566 16.314-69.855 7.044-90.259-8.295-8.883-6.678-20.992-6.678-29.876 0-20.404 15.339-50.694 24.609-90.259 8.295-18.455-7.609-37.975 8.745-33.658 28.235 4.672 21.096 13.218 44.528 27.957 64.934z" fill="#daa985"/><path d="m457.035 416.549c-17.206-43.459-19.959-154.514-19.959-192.851h-229.557c0 38.337-2.753 149.393-19.959 192.851z" fill="#e7c7af"/><path d="m437.497 254.148c-.311-12.293-.421-22.816-.421-30.451h-229.557c0 7.634-.11 18.158-.421 30.451z" fill="#daa985"/><path d="m194.398 133.214c4.448 10.449 10.023 20.79 17.002 30.451h221.796c6.978-9.661 12.554-20.002 17.002-30.451z" fill="#d2896f"/><path d="m444.472 163.665h-154.74c-31.425 19.574-17.245 53.486 17.363 60.033h140.78c12.242 0 23.035-8.028 26.557-19.752 6.029-20.074-9.001-40.281-29.96-40.281z" fill="#f2d98d"/><path d="m289.733 163.665h-89.609c-20.959 0-35.989 20.208-29.959 40.28 3.522 11.724 14.315 19.752 26.556 19.752h110.375c-21.906-12.074-24.376-43.184-17.363-60.032z" fill="#eec076"/><path d="m460.948 416.549h-277.3c-20.442 0-38.171 14.13-42.731 34.057l-7.743 33.839c-3.229 14.106 7.49 27.555 21.961 27.555h334.325c14.472 0 25.19-13.449 21.962-27.556l-7.743-33.839c-4.56-19.927-22.288-34.056-42.731-34.056z" fill="#daa985"/><g><g><ellipse cx="235.921" cy="365.132" fill="#fff" rx="31.872" ry="25.381"/><ellipse cx="408.675" cy="365.132" fill="#fff" rx="31.872" ry="25.381"/><ellipse cx="322.298" cy="345.63" fill="#4e5660" rx="16.918" ry="18.931"/></g><g fill="#4e5660"><path d="m272.488 341.804c-4.143 0-7.5-3.358-7.5-7.5 0-3.684-2.997-6.681-6.681-6.681s-6.68 2.997-6.68 6.681c0 4.142-3.358 7.5-7.5 7.5s-7.5-3.358-7.5-7.5c0-11.955 9.726-21.681 21.68-21.681 11.955 0 21.681 9.726 21.681 21.681 0 4.142-3.357 7.5-7.5 7.5z"/><path d="m399.247 341.804c-4.143 0-7.5-3.358-7.5-7.5 0-3.684-2.997-6.681-6.681-6.681s-6.681 2.997-6.681 6.681c0 4.142-3.357 7.5-7.5 7.5s-7.5-3.358-7.5-7.5c0-11.955 9.726-21.681 21.681-21.681s21.681 9.726 21.681 21.681c0 4.142-3.357 7.5-7.5 7.5z"/></g></g></g></svg>