<svg id="Capa_1" enable-background="new 0 0 512 512" height="512" viewBox="0 0 512 512" width="512" xmlns="http://www.w3.org/2000/svg"><g><path d="m38.937 285.813c-15.974-11.457-19.636-33.693-8.179-49.667 32.329-45.075 123.308-113.017 176.995-132.178 18.515-6.603 38.878 3.046 45.486 21.559 6.608 18.514-3.045 38.879-21.559 45.487-42.363 15.119-121.441 76.457-143.075 106.621-11.49 16.016-33.739 19.604-49.668 8.178z" fill="#ffbe9d"/><g><path d="m337.895 473.828c-8.762-29.24-17.068-72.462-18.044-86.703h-101.148c-.976 14.241-9.282 57.464-18.044 86.703z" fill="#daa985"/><path d="m349.41 512h-160.266c-7.802 0-13.583-7.247-11.85-14.854l2.279-10c1.775-7.791 8.703-13.318 16.694-13.318h146.021c7.991 0 14.919 5.527 16.694 13.318l2.279 10c1.733 7.607-4.048 14.854-11.851 14.854z" fill="#f2d98d"/><path d="m254.892 473.828h-58.625c-7.991 0-14.918 5.527-16.694 13.318l-2.279 10c-1.734 7.607 4.048 14.854 11.85 14.854h75.374c-8.239-7.588-12.832-22.546-9.626-38.172z" fill="#eec076"/><circle cx="269.277" cy="323.347" fill="#daa985" r="53.626"/><path d="m324.607 418.031c-2.57-13.369-4.337-24.802-4.755-30.906h-101.149c-.418 6.104-2.185 17.537-4.755 30.906z" fill="#d2896f"/><path d="m323.174 339.424h-107.794c-13.172 0-23.851 10.678-23.851 23.85 0 13.172 10.678 23.851 23.851 23.851h107.794c13.172 0 23.851-10.678 23.851-23.851 0-13.172-10.679-23.85-23.851-23.85z" fill="#f2d98d"/><path d="m259.191 339.424h-43.811c-13.173 0-23.851 10.678-23.851 23.851s10.678 23.851 23.851 23.851h53.897c-9.074-10.067-13.59-35.71-10.086-47.702z" fill="#eec076"/></g><path d="m444.533 160.204c39.708-19.326 55.118-68.011 33.722-106.691-17.476-32.789-38.735-47.681-65.768-51.706-81.174-12.088-147.844 39.326-203.264 69.675-29.469 16.138-116.567 84.574-116.567 262.481 0 19.657 15.936 35.593 35.593 35.593s35.593-15.936 35.593-35.593c0-32.969 13.685-69.038 36.608-96.485 41.608-49.818 103.686-60.065 145.721-11.308 23.499 27.257 34.768 66.553 29.408 102.551-2.895 19.443 10.52 37.552 29.963 40.447 19.372 2.891 37.543-10.461 40.447-29.963 2.826-18.979 2.772-38.279.077-57.18l.013.011c-5.857-42.015-32.88-107.429-1.546-121.832z" fill="#ffd3bd"/></g></svg>