<svg id="Capa_1" enable-background="new 0 0 512.009 512.009" height="512" viewBox="0 0 512.009 512.009" width="512" xmlns="http://www.w3.org/2000/svg"><g><path d="m133.108 173.067c-11.716-11.716-11.716-30.71 0-42.426 61.567-61.567 161.228-81.063 245.156-33.715 14.431 8.141 19.529 26.438 11.389 40.869-8.141 14.43-26.44 19.527-40.869 11.389-58.875-33.212-129.405-19.96-173.25 23.883-11.713 11.715-30.711 11.717-42.426 0z" fill="#b2ecde"/><path d="m389.653 137.796c8.141-14.432 3.042-32.728-11.389-40.869-11.753-6.631-23.815-11.949-36.038-16.026-2.112 3.797-3.918 7.82-5.354 12.038-.781 2.292-2.544 4.055-4.834 4.835-17.554 5.979-31.924 18.19-40.141 33.458 19.321 1.847 38.663 7.671 56.887 17.952 14.43 8.139 32.729 3.041 40.869-11.388z" fill="#8ee2cf"/><path d="m341.709 126.172c11.09-3.777 19.784-12.471 23.56-23.561 7.993-23.47 34.797-36.295 51.243-19.849 16.033 16.033 13.663 58.971 8.605 85.546-1.71 8.986-8.726 16.001-17.711 17.711-26.575 5.058-69.513 7.427-85.546-8.605-16.446-16.445-3.622-43.248 19.849-51.242z" fill="#b2ecde"/><path d="m133.743 415.083c-14.431-8.141-19.529-26.438-11.389-40.869 8.142-14.431 26.438-19.53 40.869-11.389 58.936 33.247 129.456 19.909 173.25-23.883 11.715-11.717 30.711-11.717 42.426 0 11.716 11.716 11.716 30.71 0 42.426-61.82 61.82-161.349 80.992-245.156 33.715z" fill="#b0ade2"/><path d="m163.224 362.825c-14.432-8.142-32.728-3.042-40.869 11.389-8.141 14.432-3.042 32.728 11.389 40.869 11.751 6.629 23.812 11.951 36.034 16.033 2.114-3.799 3.921-7.824 5.358-12.045.781-2.292 2.544-4.055 4.834-4.835 17.554-5.979 31.924-18.19 40.14-33.457-19.315-1.847-38.655-7.669-56.886-17.954z" fill="#a78cd6"/><path d="m170.299 385.837c-11.09 3.777-19.784 12.471-23.561 23.56-7.993 23.47-34.797 36.295-51.243 19.849-16.033-16.033-13.663-58.971-8.605-85.546 1.71-8.986 8.726-16.001 17.711-17.711 26.575-5.058 69.514-7.427 85.546 8.605 16.447 16.446 3.622 43.249-19.848 51.243z" fill="#b0ade2"/><g><ellipse cx="108.234" cy="33.076" fill="#f2d98d" rx="25.572" ry="25.572" transform="matrix(.973 -.23 .23 .973 -4.704 25.752)"/><path d="m167.119 94.409c7.827-10.835 12.365-23.278 14.845-34.479 2.292-10.349-8.073-19.033-17.872-14.992-21.009 8.663-37.092 3.74-47.927-4.404-4.717-3.546-11.147-3.546-15.864 0-10.834 8.143-26.917 13.066-47.926 4.403-9.799-4.04-20.164 4.644-17.872 14.992 2.481 11.202 7.019 23.644 14.845 34.479h117.771z" fill="#daa985"/><path d="m179.778 228.687c-9.136-23.076-10.598-82.045-10.598-102.402h-121.893c0 20.357-1.462 79.326-10.598 102.402z" fill="#daa985"/><path d="m169.879 156.286c-.538-12.408-.699-23.301-.699-30h-121.893c0 6.7-.161 17.592-.699 30z" fill="#d2896f"/><path d="m174.914 126.285h-133.361c-6.5 0-12.231-4.262-14.101-10.488-3.201-10.659 4.779-21.389 15.908-21.389h129.746c11.129 0 19.109 10.73 15.908 21.389-1.869 6.226-7.6 10.488-14.1 10.488z" fill="#f2d98d"/><path d="m90.942 94.409h-47.582c-11.129 0-19.11 10.73-15.908 21.388 1.87 6.226 7.601 10.488 14.101 10.488h58.608c-11.631-6.411-12.943-22.93-9.219-31.876z" fill="#eec076"/><path d="m181.855 228.687h-147.243c-10.855 0-20.268 7.503-22.69 18.084l-4.112 17.968c-1.714 7.491 3.977 14.632 11.662 14.632h177.523c7.684 0 13.376-7.141 11.662-14.632l-4.112-17.968c-2.421-10.581-11.835-18.084-22.69-18.084z" fill="#e7c7af"/></g><g><path d="m475.343 463.578 7.172-15.531c4.058-8.789 4.571-18.804 1.409-27.953-5.64-16.316-14.19-46.069-16.873-82.582h-140.657c-2.682 36.513-11.233 66.267-16.873 82.582-3.163 9.15-2.65 19.164 1.409 27.953l7.172 15.531z" fill="#daa985"/><path d="m474.413 303.493 9.275-20.242c2.672-5.832 4.055-12.171 4.055-18.586v-19.79c0-6.758-5.479-12.237-12.237-12.237h-42.538c-6.758 0-12.237 5.479-12.237 12.237v12.503c0 5.541-4.492 10.033-10.033 10.033h-27.951c-5.541 0-10.033-4.492-10.033-10.033v-12.503c0-6.758-5.479-12.237-12.237-12.237h-42.538c-6.758 0-12.237 5.479-12.237 12.237v19.79c0 6.415 1.383 12.754 4.055 18.586l9.275 20.242z" fill="#daa985"/><path d="m467.051 337.511h-140.657c-.781 10.63-2.061 20.681-3.62 30h147.897c-1.559-9.319-2.839-19.37-3.62-30z" fill="#d2896f"/><path d="m316.074 303.493c-7.004 0-12.681 5.678-12.681 12.681v4.85c0 9.106 7.382 16.487 16.488 16.487h153.683c9.106 0 16.487-7.382 16.487-16.487v-4.85c0-7.004-5.678-12.681-12.681-12.681z" fill="#f2d98d"/><path d="m316.074 303.493c-7.004 0-12.681 5.677-12.681 12.681v4.85c0 9.106 7.382 16.488 16.488 16.488h53.795c-9.259-7.662-13.752-23.228-9.473-34.019z" fill="#eec076"/><path d="m491.271 504.505c8.681 0 15.008-8.222 12.784-16.613l-1.832-6.916c-2.717-10.256-11.998-17.398-22.608-17.398h-165.786c-10.61 0-19.89 7.142-22.607 17.398l-1.832 6.916c-2.223 8.391 4.104 16.613 12.785 16.613z" fill="#e7c7af"/></g><path d="m511.306 485.97-1.832-6.915c-2.965-11.19-11.882-19.57-22.793-22.14.817-2.835 11.604-18.227 4.332-39.272-4.635-13.408-12.516-39.901-15.786-72.696 12.454-.858 22.326-11.256 22.326-23.923v-4.851c0-8.296-5.035-15.434-12.208-18.531 3.213-8.254 9.899-17.051 9.899-32.976v-19.79c0-10.883-8.855-19.737-19.737-19.737h-42.538c-10.883 0-19.737 8.855-19.737 19.737v12.503c0 1.397-1.136 2.533-2.532 2.533h-27.951c-1.396 0-2.533-1.137-2.533-2.533v-12.503c0-10.883-8.855-19.737-19.737-19.737h-42.538c-10.883 0-19.737 8.855-19.737 19.737v19.79c0 15.863 6.862 25.138 9.9 32.976-7.173 3.098-12.208 10.235-12.208 18.532v4.851c0 12.667 9.872 23.066 22.325 23.923-.003.024-.005.048-.007.072-32.553 25.167-75.921 35.333-117.77 24.73 7.302-13.736 6.242-29.226-4.99-40.459-19.066-19.064-65.719-15.718-92.252-10.67-12.083 2.3-21.377 11.594-23.678 23.678-5.051 26.542-8.39 73.19 10.67 92.252 15.64 15.638 39.099 11.153 53.813-5.725 49.786 23.532 105.467 26.261 156.351 9.395 1.244 9.341 4.789 14.726 6.409 18.696-10.911 2.57-19.828 10.951-22.792 22.139l-1.833 6.917c-3.484 13.155 6.426 26.033 20.035 26.033h145.185c4.143 0 7.5-3.357 7.5-7.5s-3.357-7.5-7.5-7.5h-145.188c-3.756 0-6.499-3.556-5.535-7.191l1.833-6.916c1.844-6.959 8.158-11.819 15.357-11.819.188 0 158.951.005 165.787 0 7.198 0 13.514 4.86 15.357 11.819l1.832 6.915c.963 3.633-1.773 7.192-5.534 7.192h-8.728c-4.142 0-7.5 3.357-7.5 7.5s3.358 7.5 7.5 7.5h8.728c13.604-.001 23.522-12.877 20.035-26.036zm-198.105-241.094c0-2.612 2.125-4.737 4.737-4.737h42.538c2.612 0 4.737 2.125 4.737 4.737v12.503c0 9.668 7.865 17.533 17.533 17.533h27.951c9.667 0 17.532-7.865 17.532-17.533v-12.503c0-2.612 2.125-4.737 4.737-4.737h42.538c2.612 0 4.737 2.125 4.737 4.737v19.79c0 5.299-1.166 10.646-3.373 15.461l-7.27 15.866h-145.753l-7.27-15.866c-2.207-4.817-3.374-10.163-3.374-15.461zm-2.308 76.148v-4.851c0-2.856 2.324-5.181 5.181-5.181.378 0 171.602.003 161.296 0 2.857 0 5.182 2.324 5.182 5.181v4.851c0 4.956-4.032 8.987-8.988 8.987h-153.683c-4.956 0-8.988-4.031-8.988-8.987zm-171.254 85.955c-5.903 17.332-26.128 29.677-38.84 16.963-8.718-8.718-14.483-37.107-6.542-78.84 1.142-5.995 5.753-10.605 11.747-11.746 13.91-2.647 26.334-3.771 37.045-3.771 21.424 0 35.983 4.5 41.795 10.313 12.711 12.709.417 32.92-16.963 38.84-13.388 4.56-23.682 14.854-28.242 28.241zm161.518 15.082c-48.493 17.639-101.64 15.839-149.009-6.001.618-1.387 1.196-2.796 1.69-4.245 3.048-8.949 9.93-15.831 18.879-18.879 6.632-2.259 12.653-5.882 17.665-10.406 42.656 12.852 88.259 5.936 125.166-17.36-5.325 32.405-13.001 50.991-14.391 56.891zm174.548 22.841-5.16 11.176h-147.646l-5.159-11.175c-3.291-7.125-3.634-15.115-1.129-22.359 5.991-17.333 13.547-44.439 16.678-77.532h126.868c3.132 33.094 10.688 60.199 16.678 77.531 2.538 7.345 2.138 15.286-1.13 22.359zm-259.738-181.836-4.11-17.968c-2.969-12.973-13.68-22.335-26.645-23.725-2.983-10.129-4.999-25.332-6.32-41.205.669-.58 1.323-1.175 1.945-1.797 34.166-34.165 84.518-47.803 130.732-36.115-7.305 13.74-6.244 29.231 4.987 40.464 19.067 19.065 65.699 15.722 92.252 10.67 12.083-2.3 21.377-11.594 23.677-23.678 5.053-26.55 8.39-73.191-10.669-92.252-15.64-15.638-39.104-11.149-53.815 5.727-59.439-28.01-128.804-26.601-187.683 3.857 3.898-7.684 6.911-16.203 8.968-25.492 3.599-16.251-12.664-29.895-28.053-23.548-7.48 3.083-14.541 4.379-21.148 3.923 5.894-21.253-10.206-41.922-31.852-41.922-21.639 0-37.747 20.663-31.851 41.923-6.608.456-13.669-.84-21.149-3.924-15.381-6.345-31.653 7.29-28.053 23.547 2.131 9.626 5.297 18.418 9.403 26.316-12.243 3.543-20.336 16.7-16.315 30.088 2.668 8.882 10.36 15.029 19.464 15.757-.05 3.73-.144 8.39-.316 13.773-.135 4.217 3.241 7.74 7.501 7.74 4.03 0 7.361-3.201 7.491-7.26.178-5.545.274-10.347.324-14.181h107.003c.243 17.976 1.503 61.255 7.906 87.402h-122.821c2.323-9.472 4.18-22.037 5.54-37.568.361-4.127-2.691-7.765-6.817-8.126-4.124-.358-7.765 2.691-8.126 6.817-1.489 17.008-3.602 30.337-6.167 39.063-12.962 1.393-23.671 10.753-26.64 23.725l-4.111 17.968c-2.795 12.225 6.507 23.805 18.973 23.805h177.523c12.516.001 21.76-11.63 18.972-23.804zm156.402-158.036c5.903-17.332 26.129-29.677 38.84-16.963 8.719 8.718 14.484 37.108 6.54 78.84-1.141 5.995-5.751 10.605-11.745 11.746-41.731 7.944-70.122 2.178-78.84-6.541-12.711-12.709-.417-32.92 16.963-38.84 13.388-4.56 23.682-14.854 28.242-28.242zm-179.331-7.564c52.856-25.193 113.951-25.787 166.819-1.509-.617 1.385-1.194 2.792-1.687 4.238-3.048 8.949-9.93 15.831-18.879 18.879-6.633 2.259-12.655 5.883-17.668 10.408-49.766-14.979-104.805-2.848-144.011 31.397-.504-9.872-.775-19.29-.88-27.166 9.104-.727 16.797-6.874 19.465-15.756 2.118-7.048.957-14.455-3.159-20.491zm-84.805-82.461c11.757 0 20.536 11.163 17.452 22.737-1.711-.924-3.386-1.981-5.013-3.204-7.439-5.592-17.438-5.592-24.877 0-1.627 1.223-3.301 2.28-5.013 3.204-3.071-11.529 5.645-22.737 17.451-22.737zm-58.716 36.866c18.805 7.754 38.774 7.074 55.292-5.343 2.049-1.541 4.801-1.541 6.85 0 16.395 12.323 36.326 13.164 55.292 5.343 4.194-1.726 8.676 1.993 7.691 6.438-2.377 10.732-6.329 20.533-11.497 28.601h-109.822c-5.169-8.067-9.122-17.869-11.498-28.602-.98-4.425 3.479-8.173 7.692-6.437zm-7.963 66.914c-3.214 0-5.994-2.067-6.919-5.145-1.756-5.848 2.614-11.731 8.726-11.731 9.193.002 122.806 0 129.746 0 6.108 0 10.483 5.878 8.726 11.731-.925 3.077-3.705 5.145-6.918 5.145zm-26.432 147.627 4.11-17.967c1.652-7.218 7.977-12.258 15.38-12.258 37.748 0 143.798.003 147.243 0 7.403 0 13.727 5.04 15.378 12.257l4.112 17.969c.64 2.798-1.48 5.458-4.351 5.458h-177.522c-2.871 0-4.991-2.66-4.35-5.459z"/></g></svg>