<svg id="Capa_1" enable-background="new 0 0 512 512" height="512" viewBox="0 0 512 512" width="512" xmlns="http://www.w3.org/2000/svg"><g><ellipse cx="336.942" cy="154.955" fill="#b2ecde" rx="172.85" ry="154.955"/><path d="m474.169 249.168c-188.575-3.529-234.232-173.526-200.646-238.405-64.086 22.671-109.43 78.684-109.43 144.193 0 85.579 77.387 154.955 172.85 154.955 55.922-.001 105.633-23.816 137.226-60.743z" fill="#8ee2cf"/><path d="m449.9 221.495h-225.917c-4.142 0-7.5-3.358-7.5-7.5s3.358-7.5 7.5-7.5h225.917c4.142 0 7.5 3.358 7.5 7.5s-3.358 7.5-7.5 7.5z" fill="#a78cd6"/><g><g><path d="m391.378 166.724c-4.142 0-7.5-3.358-7.5-7.5v-70.553c0-3.282 2.134-6.183 5.268-7.16 3.133-.977 6.538.197 8.403 2.898l35.659 51.636-.458-47.434c-.04-4.142 3.285-7.532 7.427-7.572 4.149-.083 7.532 3.285 7.572 7.427l.66 68.303c.001 4.239-2.339 7.662-5.961 8.792-3.537 1.106-7.28-.289-9.537-3.55l-34.033-49.282v46.494c0 4.143-3.358 7.501-7.5 7.501z" fill="#fff"/></g><g><path d="m348.707 166.724c-4.142 0-7.5-3.358-7.5-7.5v-70.685c0-4.142 3.358-7.5 7.5-7.5s7.5 3.358 7.5 7.5v70.684c.001 4.143-3.357 7.501-7.5 7.501z" fill="#fff"/></g><g><path d="m294.215 166.724c-3.843 0-7.282-2.425-8.57-6.051-.036-.1-.069-.201-.1-.303l-14.278-46.347-14.342 46.336c-.02.065-.041.131-.063.196-1.245 3.663-4.681 6.142-8.549 6.168-.02 0-.041 0-.063 0-3.843 0-7.282-2.425-8.57-6.051-.122-.344-.219-.697-.29-1.055l-13.772-69.623c-.804-4.063 1.839-8.009 5.902-8.813 4.063-.8 8.009 1.838 8.813 5.902l9.191 46.461 14.387-46.479c.608-3.044 3.066-5.465 6.238-5.943 3.676-.553 7.192 1.662 8.284 5.208l14.544 47.21 9.222-46.336c.809-4.063 4.757-6.698 8.82-5.892 4.063.809 6.7 4.757 5.892 8.82l-13.827 69.473c-.064.323-.15.641-.256.952-1.246 3.662-4.682 6.14-8.55 6.166-.022 0-.043.001-.063.001z" fill="#fff"/></g></g><path d="m364.669 268.805c-41.828-17.934-106.062-78.345-126.596-98.879l-159.394 159.394c20.534 20.534 80.945 84.768 98.879 126.596z" fill="#daa985"/><g><g><path d="m201.961 369.375c9.794 9.794 7.764 27.703-4.535 40.002s-30.208 14.329-40.002 4.535-7.764-27.704 4.535-40.002c12.299-12.299 30.208-14.329 40.002-4.535z" fill="#fff"/><path d="m278.127 293.209c9.794 9.794 27.703 7.763 40.002-4.535s14.329-30.208 4.535-40.002-27.704-7.764-40.002 4.535c-12.298 12.298-14.329 30.208-4.535 40.002z" fill="#fff"/><path d="m244.373 299.712c-11.096-11.096-20.177-4.1-30.092 5.816-9.916 9.916-16.911 18.996-5.816 30.092 11.096 11.096 28.129 12.052 38.044 2.136 9.916-9.915 8.96-26.948-2.136-38.044z" fill="#4e5660"/></g><g fill="#4e5660"><path d="m162.244 374.249c-1.919 0-3.839-.732-5.303-2.197l-9.093-9.093c-2.929-2.929-2.929-7.677 0-10.607 2.929-2.929 7.678-2.93 10.606 0l9.093 9.093c2.929 2.929 2.929 7.677 0 10.606-1.464 1.465-3.384 2.198-5.303 2.198z"/><path d="m275.501 260.991c-1.919 0-3.839-.732-5.303-2.197l-9.093-9.093c-2.929-2.929-2.929-7.678 0-10.607s7.678-2.93 10.606 0l9.093 9.093c2.929 2.929 2.929 7.678 0 10.606-1.464 1.465-3.384 2.198-5.303 2.198z"/></g></g><path d="m350.453 274.214-167.486 167.487c-10.599 10.599-13.038 26.875-6.011 40.115l9.319 17.56c7.489 14.112 26.492 16.959 37.788 5.663l189.728-189.729c11.297-11.297 8.449-30.299-5.663-37.788l-17.56-9.319c-13.24-7.027-29.516-4.588-40.115 6.011z" fill="#e7c7af"/><path d="m73.419 154.06-21.726-21.726 2.61-2.61c2.929-2.929 2.929-7.677 0-10.606-2.929-2.93-7.678-2.929-10.606 0l-2.61 2.61-8.016-8.016c-2.929-2.929-7.678-2.929-10.606 0-2.929 2.929-2.929 7.678 0 10.607l8.016 8.016-2.61 2.61c-2.929 2.929-2.929 7.677 0 10.606 2.929 2.93 7.678 2.928 10.607 0l2.61-2.61 21.726 21.727c2.929 2.929 7.677 2.929 10.606 0 2.929-2.93 2.929-7.679-.001-10.608z" fill="#e7c7af"/><path d="m45.193 283.929 147.489-147.489c-5.446-8.511-12.432-20.387-18.177-30.965-6.467-11.906-21.737-15.65-33.009-8.132-28.824 19.224-58.937 47.577-73.38 62.02s-42.796 44.557-62.02 73.38c-7.518 11.272-3.774 26.542 8.132 33.009 10.578 5.745 22.454 12.732 30.965 18.177z" fill="#daa985"/><path d="m45.193 283.929 147.489-147.489c-4.851-7.582-10.922-17.831-16.251-27.456l-158.694 158.694c9.625 5.329 19.875 11.4 27.456 16.251z" fill="#d2896f"/><path d="m78.679 329.32c5.49 5.49 13.833 14.107 23.451 24.582l160.525-160.526c-10.475-9.618-19.092-17.96-24.582-23.451z" fill="#d2896f"/><path d="m238.755 173.569-156.433 156.433c-9.357 9.357-24.527 9.357-33.884 0l-7.717-7.717c-9.357-9.357-9.357-24.527 0-33.884l156.433-156.433c9.357-9.357 24.527-9.357 33.884 0l7.717 7.717c9.357 9.357 9.357 24.528 0 33.884z" fill="#f2d98d"/><path d="m40.721 288.401c-9.357 9.357-9.357 24.527 0 33.884l7.717 7.717c9.357 9.357 24.527 9.357 33.884 0l64.902-64.902c-21.858 2.333-44.435-16.2-52.182-31.02z" fill="#eec076"/></g></svg>